{"glyphs":{"0":{"ha":833,"x_min":43,"x_max":790,"o":"m 417 -15 q 139 117 235 -15 q 43 493 43 250 q 139 866 43 738 q 417 994 235 994 q 694 866 599 994 q 790 494 790 738 q 694 117 790 250 q 417 -15 599 -15 m 417 188 q 516 260 483 188 q 549 494 549 333 q 516 723 549 654 q 417 792 483 792 q 317 723 350 792 q 285 494 285 654 q 317 260 285 333 q 417 188 350 188 z "},"1":{"ha":833,"x_min":85,"x_max":801,"o":"m 125 0 l 125 207 l 343 207 l 343 700 l 178 606 l 85 790 l 418 979 l 597 979 l 597 207 l 801 207 l 801 0 l 125 0 z "},"2":{"ha":833,"x_min":49,"x_max":776,"o":"m 96 0 l 96 188 l 390 496 q 467 596 444 554 q 490 679 490 638 q 356 785 490 785 q 242 764 300 785 q 128 700 185 743 l 49 886 q 203 965 113 936 q 392 994 294 994 q 651 921 561 994 q 740 708 740 847 q 700 538 740 619 q 565 365 660 457 l 407 207 l 776 207 l 776 0 l 96 0 z "},"3":{"ha":833,"x_min":35,"x_max":771,"o":"m 388 -15 q 188 13 283 -15 q 35 89 92 42 l 113 279 q 378 194 233 194 q 528 297 528 194 q 394 392 528 392 l 224 392 l 224 594 l 369 594 q 463 619 429 594 q 497 692 497 644 q 368 785 497 785 q 129 700 236 785 l 50 886 q 203 966 113 938 q 393 994 294 994 q 649 923 557 994 q 740 725 740 851 q 703 593 740 650 q 599 510 665 536 q 726 424 681 486 q 771 272 771 361 q 669 62 771 139 q 388 -15 567 -15 z "},"4":{"ha":833,"x_min":43,"x_max":814,"o":"m 440 0 l 440 164 l 43 164 l 43 343 l 481 979 l 686 979 l 686 357 l 814 357 l 814 164 l 686 164 l 686 0 l 440 0 m 440 357 l 440 619 l 264 357 l 440 357 z "},"5":{"ha":833,"x_min":67,"x_max":796,"o":"m 410 -15 q 217 13 313 -15 q 67 89 122 42 l 144 279 q 404 194 268 194 q 514 225 475 194 q 553 311 553 256 q 515 398 553 365 q 415 431 478 431 q 254 367 325 431 l 94 367 l 94 979 l 733 979 l 733 772 l 335 772 l 335 599 q 482 633 399 633 q 646 594 575 633 q 756 483 717 554 q 796 318 796 413 q 749 142 796 218 q 615 26 701 67 q 410 -15 529 -15 z "},"6":{"ha":833,"x_min":53,"x_max":799,"o":"m 456 -15 q 158 114 263 -15 q 53 481 53 243 q 106 757 53 642 q 261 933 160 872 q 503 994 363 994 q 661 969 583 994 q 799 894 739 943 l 721 707 q 613 765 669 746 q 500 785 557 785 q 292 526 292 785 l 292 517 q 378 610 321 576 q 510 643 436 643 q 655 602 590 643 q 757 489 719 561 q 794 325 794 417 q 751 149 794 225 q 632 28 708 72 q 456 -15 556 -15 m 442 179 q 528 216 496 179 q 561 314 561 253 q 528 413 561 375 q 442 450 496 450 q 356 413 389 450 q 322 314 322 375 q 356 216 322 253 q 442 179 389 179 z "},"7":{"ha":833,"x_min":56,"x_max":779,"o":"m 75 0 l 500 771 l 56 771 l 56 979 l 779 979 l 779 788 l 354 0 l 75 0 z "},"8":{"ha":833,"x_min":35,"x_max":799,"o":"m 417 -15 q 137 60 239 -15 q 35 268 35 135 q 77 416 35 354 q 189 506 119 478 q 96 594 131 536 q 61 726 61 653 q 157 923 61 851 q 417 994 253 994 q 676 923 581 994 q 772 726 772 851 q 738 592 772 650 q 647 504 704 533 q 757 415 715 476 q 799 268 799 353 q 697 60 799 135 q 417 -15 594 -15 m 417 592 q 508 620 475 592 q 542 697 542 649 q 508 774 542 746 q 417 803 475 803 q 326 774 358 803 q 293 697 293 746 q 326 620 293 649 q 417 592 358 592 m 417 176 q 568 288 568 176 q 417 399 568 399 q 304 370 343 399 q 265 288 265 342 q 304 205 265 233 q 417 176 343 176 z "},"9":{"ha":833,"x_min":35,"x_max":781,"o":"m 331 -15 q 173 10 250 -15 q 35 86 96 36 l 114 272 q 333 194 214 194 q 543 453 543 194 l 543 464 q 455 369 513 403 q 324 336 397 336 q 178 377 243 336 q 76 490 114 418 q 39 654 39 563 q 83 831 39 754 q 203 951 126 907 q 378 994 279 994 q 676 865 571 994 q 781 499 781 736 q 727 222 781 338 q 573 46 674 107 q 331 -15 472 -15 m 392 531 q 478 567 446 531 q 511 665 511 604 q 478 763 511 726 q 392 800 446 800 q 305 763 338 800 q 272 665 272 726 q 305 567 272 604 q 392 531 338 531 z "},"A":{"ha":1060,"x_min":-29,"x_max":1089,"o":"m -29 0 l 429 979 l 631 979 l 1089 0 l 833 0 l 749 199 l 311 199 l 226 0 l -29 0 m 528 713 l 394 394 l 664 394 l 531 713 l 528 713 z "},"Á":{"ha":1060,"x_min":-29,"x_max":1089,"o":"m -29 0 l 429 979 l 631 979 l 1089 0 l 833 0 l 749 199 l 311 199 l 226 0 l -29 0 m 528 713 l 394 394 l 664 394 l 531 713 l 528 713 m 444 1063 l 608 1307 l 856 1307 l 614 1063 l 444 1063 z "},"Ă":{"ha":1060,"x_min":-29,"x_max":1089,"o":"m -29 0 l 429 979 l 631 979 l 1089 0 l 833 0 l 749 199 l 311 199 l 226 0 l -29 0 m 528 713 l 394 394 l 664 394 l 531 713 l 528 713 m 529 1056 q 335 1120 410 1056 q 253 1294 260 1185 l 386 1311 q 428 1224 392 1256 q 528 1193 465 1193 q 628 1224 590 1193 q 674 1311 667 1256 l 806 1294 q 724 1120 799 1185 q 529 1056 650 1056 z "},"Ắ":{"ha":1060,"x_min":-29,"x_max":1089,"o":"m -29 0 l 429 979 l 631 979 l 1089 0 l 833 0 l 749 199 l 311 199 l 226 0 l -29 0 m 528 713 l 394 394 l 664 394 l 531 713 l 528 713 m 449 1253 l 528 1422 l 751 1422 l 593 1253 l 449 1253 m 529 1056 q 348 1115 418 1056 q 268 1275 278 1175 l 378 1286 q 429 1210 393 1238 q 529 1183 465 1183 q 630 1210 594 1183 q 681 1286 665 1238 l 790 1275 q 710 1115 781 1175 q 529 1056 640 1056 z "},"Ặ":{"ha":1060,"x_min":-29,"x_max":1089,"o":"m -29 0 l 429 979 l 631 979 l 1089 0 l 833 0 l 749 199 l 311 199 l 226 0 l -29 0 m 528 713 l 394 394 l 664 394 l 531 713 l 528 713 m 419 -311 l 419 -104 l 642 -104 l 642 -311 l 419 -311 m 529 1056 q 335 1120 410 1056 q 253 1294 260 1185 l 386 1311 q 428 1224 392 1256 q 528 1193 465 1193 q 628 1224 590 1193 q 674 1311 667 1256 l 806 1294 q 724 1120 799 1185 q 529 1056 650 1056 z "},"Ằ":{"ha":1060,"x_min":-29,"x_max":1089,"o":"m -29 0 l 429 979 l 631 979 l 1089 0 l 833 0 l 749 199 l 311 199 l 226 0 l -29 0 m 528 713 l 394 394 l 664 394 l 531 713 l 528 713 m 465 1253 l 307 1422 l 531 1422 l 610 1253 l 465 1253 m 529 1056 q 348 1115 418 1056 q 268 1275 278 1175 l 378 1286 q 429 1210 393 1238 q 529 1183 465 1183 q 630 1210 594 1183 q 681 1286 665 1238 l 790 1275 q 710 1115 781 1175 q 529 1056 640 1056 z "},"Ẳ":{"ha":1060,"x_min":-29,"x_max":1089,"o":"m -29 0 l 429 979 l 631 979 l 1089 0 l 833 0 l 749 199 l 311 199 l 226 0 l -29 0 m 528 713 l 394 394 l 664 394 l 531 713 l 528 713 m 467 1253 q 480 1290 467 1278 q 507 1310 493 1301 q 521 1335 521 1319 q 510 1349 521 1344 q 488 1353 500 1353 q 448 1349 467 1353 q 411 1338 429 1346 l 383 1419 q 449 1440 414 1432 q 539 1447 483 1447 q 640 1428 604 1447 q 675 1376 675 1410 q 663 1338 675 1353 q 634 1312 650 1324 q 606 1287 618 1300 q 593 1253 593 1274 l 467 1253 m 529 1056 q 348 1115 418 1056 q 268 1275 278 1175 l 378 1286 q 429 1210 393 1238 q 529 1183 465 1183 q 630 1210 594 1183 q 681 1286 665 1238 l 790 1275 q 710 1115 781 1175 q 529 1056 640 1056 z "},"Ẵ":{"ha":1060,"x_min":-29,"x_max":1089,"o":"m -29 0 l 429 979 l 631 979 l 1089 0 l 833 0 l 749 199 l 311 199 l 226 0 l -29 0 m 528 713 l 394 394 l 664 394 l 531 713 l 528 713 m 369 1281 l 267 1286 q 319 1406 272 1365 q 435 1447 365 1447 q 488 1440 463 1447 q 543 1419 514 1432 q 615 1400 594 1400 q 689 1447 676 1400 l 792 1442 q 740 1321 788 1361 q 624 1281 693 1281 q 568 1289 596 1281 q 511 1310 540 1297 q 443 1328 468 1328 q 394 1316 411 1328 q 369 1281 376 1304 m 529 1056 q 358 1100 429 1056 q 268 1219 288 1144 l 378 1253 q 431 1201 394 1219 q 529 1183 467 1183 q 628 1201 592 1183 q 681 1253 664 1219 l 790 1219 q 701 1100 771 1144 q 529 1056 631 1056 z "},"Ǎ":{"ha":1060,"x_min":-29,"x_max":1089,"o":"m -29 0 l 429 979 l 631 979 l 1089 0 l 833 0 l 749 199 l 311 199 l 226 0 l -29 0 m 528 713 l 394 394 l 664 394 l 531 713 l 528 713 m 428 1063 l 253 1307 l 419 1307 l 529 1188 l 639 1307 l 806 1307 l 631 1063 l 428 1063 z "},"Â":{"ha":1060,"x_min":-29,"x_max":1089,"o":"m -29 0 l 429 979 l 631 979 l 1089 0 l 833 0 l 749 199 l 311 199 l 226 0 l -29 0 m 528 713 l 394 394 l 664 394 l 531 713 l 528 713 m 253 1063 l 428 1307 l 631 1307 l 806 1063 l 639 1063 l 529 1182 l 419 1063 l 253 1063 z "},"Ấ":{"ha":1060,"x_min":-29,"x_max":1089,"o":"m -29 0 l 429 979 l 631 979 l 1089 0 l 833 0 l 749 199 l 311 199 l 226 0 l -29 0 m 528 713 l 394 394 l 664 394 l 531 713 l 528 713 m 704 1215 l 818 1424 l 1007 1424 l 835 1215 l 704 1215 m 272 1063 l 426 1293 l 632 1293 l 786 1063 l 636 1063 l 529 1171 l 422 1063 l 272 1063 z "},"Ậ":{"ha":1060,"x_min":-29,"x_max":1089,"o":"m -29 0 l 429 979 l 631 979 l 1089 0 l 833 0 l 749 199 l 311 199 l 226 0 l -29 0 m 528 713 l 394 394 l 664 394 l 531 713 l 528 713 m 419 -311 l 419 -104 l 642 -104 l 642 -311 l 419 -311 m 253 1063 l 428 1307 l 631 1307 l 806 1063 l 639 1063 l 529 1182 l 419 1063 l 253 1063 z "},"Ầ":{"ha":1060,"x_min":-29,"x_max":1089,"o":"m -29 0 l 429 979 l 631 979 l 1089 0 l 833 0 l 749 199 l 311 199 l 226 0 l -29 0 m 528 713 l 394 394 l 664 394 l 531 713 l 528 713 m 758 1215 l 586 1424 l 776 1424 l 889 1215 l 758 1215 m 272 1063 l 426 1293 l 632 1293 l 786 1063 l 636 1063 l 529 1171 l 422 1063 l 272 1063 z "},"Ẩ":{"ha":1060,"x_min":-29,"x_max":1089,"o":"m -29 0 l 429 979 l 631 979 l 1089 0 l 833 0 l 749 199 l 311 199 l 226 0 l -29 0 m 528 713 l 394 394 l 664 394 l 531 713 l 528 713 m 699 1215 q 713 1258 699 1242 q 740 1288 726 1275 q 753 1318 753 1301 q 742 1332 753 1328 q 719 1336 732 1336 q 681 1333 700 1336 q 643 1319 661 1329 l 615 1401 q 681 1422 646 1414 q 771 1429 717 1429 q 872 1410 836 1429 q 908 1360 908 1392 q 896 1318 908 1336 q 867 1285 883 1300 q 838 1253 850 1269 q 825 1215 825 1238 l 699 1215 m 272 1063 l 426 1293 l 632 1293 l 786 1063 l 636 1063 l 529 1171 l 422 1063 l 272 1063 z "},"Ẫ":{"ha":1060,"x_min":-29,"x_max":1089,"o":"m -29 0 l 429 979 l 631 979 l 1089 0 l 833 0 l 749 199 l 311 199 l 226 0 l -29 0 m 528 713 l 394 394 l 664 394 l 531 713 l 528 713 m 369 1282 l 267 1288 q 319 1407 272 1367 q 435 1447 365 1447 q 488 1440 463 1447 q 543 1421 514 1433 q 615 1401 594 1401 q 689 1449 676 1401 l 792 1442 q 740 1322 788 1363 q 624 1282 693 1282 q 568 1290 596 1282 q 511 1310 540 1299 q 443 1329 468 1329 q 394 1317 411 1329 q 369 1282 376 1306 m 272 1063 l 426 1251 l 632 1251 l 786 1063 l 642 1063 l 529 1142 l 417 1063 l 272 1063 z "},"Ȁ":{"ha":1060,"x_min":-29,"x_max":1089,"o":"m -29 0 l 429 979 l 631 979 l 1089 0 l 833 0 l 749 199 l 311 199 l 226 0 l -29 0 m 528 713 l 394 394 l 664 394 l 531 713 l 528 713 m 579 1063 l 390 1307 l 599 1307 l 717 1063 l 579 1063 m 343 1063 l 131 1307 l 340 1307 l 479 1063 l 343 1063 z "},"Ä":{"ha":1060,"x_min":-29,"x_max":1089,"o":"m -29 0 l 429 979 l 631 979 l 1089 0 l 833 0 l 749 199 l 311 199 l 226 0 l -29 0 m 528 713 l 394 394 l 664 394 l 531 713 l 528 713 m 568 1071 l 568 1278 l 776 1278 l 776 1071 l 568 1071 m 282 1071 l 282 1278 l 490 1278 l 490 1071 l 282 1071 z "},"Ȧ":{"ha":1060,"x_min":-29,"x_max":1089,"o":"m -29 0 l 429 979 l 631 979 l 1089 0 l 833 0 l 749 199 l 311 199 l 226 0 l -29 0 m 528 713 l 394 394 l 664 394 l 531 713 l 528 713 m 418 1081 l 418 1289 l 640 1289 l 640 1081 l 418 1081 z "},"Ạ":{"ha":1060,"x_min":-29,"x_max":1089,"o":"m -29 0 l 429 979 l 631 979 l 1089 0 l 833 0 l 749 199 l 311 199 l 226 0 l -29 0 m 528 713 l 394 394 l 664 394 l 531 713 l 528 713 m 419 -311 l 419 -104 l 642 -104 l 642 -311 l 419 -311 z "},"À":{"ha":1060,"x_min":-29,"x_max":1089,"o":"m -29 0 l 429 979 l 631 979 l 1089 0 l 833 0 l 749 199 l 311 199 l 226 0 l -29 0 m 528 713 l 394 394 l 664 394 l 531 713 l 528 713 m 444 1063 l 203 1307 l 450 1307 l 614 1063 l 444 1063 z "},"Ả":{"ha":1060,"x_min":-29,"x_max":1089,"o":"m -29 0 l 429 979 l 631 979 l 1089 0 l 833 0 l 749 199 l 311 199 l 226 0 l -29 0 m 528 713 l 394 394 l 664 394 l 531 713 l 528 713 m 458 1063 l 458 1090 q 475 1134 458 1118 q 509 1162 492 1150 q 526 1189 526 1174 q 481 1213 526 1213 q 440 1208 458 1213 q 401 1196 421 1204 l 365 1289 q 544 1319 435 1319 q 662 1295 619 1319 q 704 1228 704 1271 q 689 1177 704 1196 q 653 1146 674 1158 q 616 1119 632 1133 q 600 1081 600 1104 l 600 1063 l 458 1063 z "},"Ȃ":{"ha":1060,"x_min":-29,"x_max":1089,"o":"m -29 0 l 429 979 l 631 979 l 1089 0 l 833 0 l 749 199 l 311 199 l 226 0 l -29 0 m 528 713 l 394 394 l 664 394 l 531 713 l 528 713 m 386 1056 l 253 1072 q 335 1247 260 1182 q 529 1311 410 1311 q 724 1247 650 1311 q 806 1072 799 1182 l 674 1056 q 628 1142 667 1111 q 528 1174 590 1174 q 428 1142 465 1174 q 386 1056 392 1111 z "},"Ā":{"ha":1060,"x_min":-29,"x_max":1089,"o":"m -29 0 l 429 979 l 631 979 l 1089 0 l 833 0 l 749 199 l 311 199 l 226 0 l -29 0 m 528 713 l 394 394 l 664 394 l 531 713 l 528 713 m 275 1106 l 275 1240 l 785 1240 l 785 1106 l 275 1106 z "},"Ą":{"ha":1060,"x_min":-29,"x_max":1097,"o":"m -29 0 l 429 979 l 631 979 l 1089 0 l 833 0 l 749 199 l 311 199 l 226 0 l -29 0 m 528 713 l 394 394 l 664 394 l 531 713 l 528 713 m 964 -275 q 826 -233 875 -275 q 778 -121 778 -192 q 820 -8 778 -58 q 931 67 863 43 l 997 0 q 942 -40 960 -14 q 924 -92 924 -65 q 944 -137 924 -121 q 997 -154 965 -154 q 1037 -151 1019 -154 q 1075 -140 1054 -147 l 1097 -251 q 1031 -270 1061 -265 q 964 -275 1001 -275 z "},"Å":{"ha":1060,"x_min":-29,"x_max":1089,"o":"m -29 0 l 429 979 l 631 979 l 1089 0 l 833 0 l 749 199 l 311 199 l 226 0 l -29 0 m 528 713 l 394 394 l 664 394 l 531 713 l 528 713 m 529 1044 q 434 1068 476 1044 q 367 1133 392 1092 q 342 1225 342 1174 q 367 1318 342 1278 q 434 1383 392 1358 q 529 1407 476 1407 q 624 1383 582 1407 q 692 1318 667 1358 q 717 1225 717 1278 q 692 1133 717 1174 q 624 1068 667 1092 q 529 1044 582 1044 m 529 1146 q 585 1168 563 1146 q 608 1225 608 1190 q 585 1282 608 1260 q 529 1304 563 1304 q 473 1282 496 1304 q 450 1225 450 1260 q 473 1168 450 1190 q 529 1146 496 1146 z "},"Ǻ":{"ha":1060,"x_min":-29,"x_max":1089,"o":"m -29 0 l 429 979 l 631 979 l 1089 0 l 833 0 l 749 199 l 311 199 l 226 0 l -29 0 m 528 713 l 394 394 l 664 394 l 531 713 l 528 713 m 529 1044 q 440 1067 479 1044 q 376 1128 400 1089 q 353 1214 353 1167 q 376 1301 353 1263 q 440 1361 400 1339 q 529 1383 479 1383 q 614 1364 574 1383 l 694 1438 l 868 1438 l 690 1283 q 706 1214 706 1251 q 682 1128 706 1167 q 619 1067 658 1089 q 529 1044 579 1044 m 529 1135 q 585 1157 563 1135 q 608 1214 608 1179 q 585 1271 608 1249 q 529 1293 563 1293 q 473 1271 496 1293 q 450 1214 450 1249 q 473 1157 450 1179 q 529 1135 496 1135 z "},"Ã":{"ha":1060,"x_min":-29,"x_max":1089,"o":"m -29 0 l 429 979 l 631 979 l 1089 0 l 833 0 l 749 199 l 311 199 l 226 0 l -29 0 m 528 713 l 394 394 l 664 394 l 531 713 l 528 713 m 308 1054 l 196 1063 q 260 1232 203 1172 q 406 1292 318 1292 q 473 1281 439 1292 q 551 1250 507 1271 q 615 1224 590 1231 q 657 1217 639 1217 q 750 1299 733 1217 l 863 1292 q 798 1122 856 1181 q 653 1063 740 1063 q 583 1073 617 1063 q 504 1104 549 1083 q 444 1129 467 1122 q 401 1136 422 1136 q 308 1054 325 1136 z "},"Æ":{"ha":1397,"x_min":-83,"x_max":1325,"o":"m -83 0 l 540 979 l 1325 979 l 1325 782 l 813 782 l 853 596 l 1293 596 l 1293 399 l 896 399 l 942 197 l 1325 197 l 1325 0 l 758 0 l 715 199 l 301 199 l 183 0 l -83 0 m 601 704 l 417 394 l 672 394 l 604 704 l 601 704 z "},"Ǽ":{"ha":1397,"x_min":-83,"x_max":1325,"o":"m -83 0 l 540 979 l 1325 979 l 1325 782 l 813 782 l 853 596 l 1293 596 l 1293 399 l 896 399 l 942 197 l 1325 197 l 1325 0 l 758 0 l 715 199 l 301 199 l 183 0 l -83 0 m 601 704 l 417 394 l 672 394 l 604 704 l 601 704 m 594 1063 l 758 1307 l 1006 1307 l 764 1063 l 594 1063 z "},"B":{"ha":975,"x_min":89,"x_max":919,"o":"m 89 0 l 89 979 l 561 979 q 806 910 719 979 q 893 726 893 842 q 855 593 893 650 q 749 508 817 536 q 875 424 831 483 q 919 278 919 365 q 827 74 919 149 q 575 0 735 0 l 89 0 m 333 590 l 515 590 q 617 615 585 590 q 650 692 650 640 q 617 767 650 743 q 515 792 585 792 l 333 792 l 333 590 m 333 188 l 540 188 q 644 215 611 188 q 676 296 676 242 q 644 376 676 350 q 540 403 611 403 l 333 403 l 333 188 z "},"Ɓ":{"ha":1226,"x_min":0,"x_max":1171,"o":"m 342 0 l 342 806 l 315 806 q 231 778 257 806 q 204 689 204 750 l 204 618 l 0 618 l 0 696 q 81 907 0 835 q 322 979 161 979 l 813 979 q 1058 910 971 979 q 1144 726 1144 842 q 1106 593 1144 650 q 1001 508 1068 536 q 1127 424 1083 483 q 1171 278 1171 365 q 1078 74 1171 149 q 826 0 986 0 l 342 0 m 585 590 l 767 590 q 869 615 838 590 q 901 692 901 640 q 869 767 901 743 q 767 792 838 792 l 585 792 l 585 590 m 585 188 l 792 188 q 895 215 863 188 q 928 296 928 242 q 895 376 928 350 q 792 403 863 403 l 585 403 l 585 188 z "},"C":{"ha":954,"x_min":64,"x_max":917,"o":"m 583 -15 q 304 47 421 -15 q 126 224 188 110 q 64 490 64 338 q 126 756 64 643 q 304 932 188 869 q 583 994 421 994 q 771 965 681 994 q 917 886 861 935 l 840 685 q 718 751 779 729 q 593 772 657 772 q 399 699 464 772 q 333 490 333 626 q 399 280 333 353 q 593 207 464 207 q 718 228 657 207 q 840 294 779 250 l 917 93 q 771 15 861 44 q 583 -15 681 -15 z "},"Ć":{"ha":954,"x_min":64,"x_max":917,"o":"m 583 -15 q 304 47 421 -15 q 126 224 188 110 q 64 490 64 338 q 126 756 64 643 q 304 932 188 869 q 583 994 421 994 q 771 965 681 994 q 917 886 861 935 l 840 685 q 718 751 779 729 q 593 772 657 772 q 399 699 464 772 q 333 490 333 626 q 399 280 333 353 q 593 207 464 207 q 718 228 657 207 q 840 294 779 250 l 917 93 q 771 15 861 44 q 583 -15 681 -15 m 468 1063 l 632 1307 l 879 1307 l 638 1063 l 468 1063 z "},"Č":{"ha":954,"x_min":64,"x_max":917,"o":"m 583 -15 q 304 47 421 -15 q 126 224 188 110 q 64 490 64 338 q 126 756 64 643 q 304 932 188 869 q 583 994 421 994 q 771 965 681 994 q 917 886 861 935 l 840 685 q 718 751 779 729 q 593 772 657 772 q 399 699 464 772 q 333 490 333 626 q 399 280 333 353 q 593 207 464 207 q 718 228 657 207 q 840 294 779 250 l 917 93 q 771 15 861 44 q 583 -15 681 -15 m 451 1063 l 276 1307 l 443 1307 l 553 1188 l 663 1307 l 829 1307 l 654 1063 l 451 1063 z "},"Ç":{"ha":954,"x_min":64,"x_max":917,"o":"m 583 -15 q 304 47 421 -15 q 126 224 188 110 q 64 490 64 338 q 126 756 64 643 q 304 932 188 869 q 583 994 421 994 q 771 965 681 994 q 917 886 861 935 l 840 685 q 718 751 779 729 q 593 772 657 772 q 399 699 464 772 q 333 490 333 626 q 399 280 333 353 q 593 207 464 207 q 718 228 657 207 q 840 294 779 250 l 917 93 q 771 15 861 44 q 583 -15 681 -15 m 550 -275 q 461 -267 504 -275 q 386 -243 418 -260 l 419 -146 q 524 -169 472 -169 q 592 -140 592 -169 q 542 -115 592 -115 q 493 -121 519 -115 l 464 -92 l 481 28 l 599 28 l 588 -43 l 589 -43 q 690 -71 654 -43 q 726 -149 726 -99 q 677 -241 726 -207 q 550 -275 628 -275 z "},"Ḉ":{"ha":954,"x_min":64,"x_max":917,"o":"m 583 -15 q 304 47 421 -15 q 126 224 188 110 q 64 490 64 338 q 126 756 64 643 q 304 932 188 869 q 583 994 421 994 q 771 965 681 994 q 917 886 861 935 l 840 685 q 718 751 779 729 q 593 772 657 772 q 399 699 464 772 q 333 490 333 626 q 399 280 333 353 q 593 207 464 207 q 718 228 657 207 q 840 294 779 250 l 917 93 q 771 15 861 44 q 583 -15 681 -15 m 550 -275 q 461 -267 504 -275 q 386 -243 418 -260 l 419 -146 q 524 -169 472 -169 q 592 -140 592 -169 q 542 -115 592 -115 q 493 -121 519 -115 l 464 -92 l 481 28 l 599 28 l 588 -43 l 589 -43 q 690 -71 654 -43 q 726 -149 726 -99 q 677 -241 726 -207 q 550 -275 628 -275 m 468 1063 l 632 1307 l 879 1307 l 638 1063 l 468 1063 z "},"Ĉ":{"ha":954,"x_min":64,"x_max":917,"o":"m 583 -15 q 304 47 421 -15 q 126 224 188 110 q 64 490 64 338 q 126 756 64 643 q 304 932 188 869 q 583 994 421 994 q 771 965 681 994 q 917 886 861 935 l 840 685 q 718 751 779 729 q 593 772 657 772 q 399 699 464 772 q 333 490 333 626 q 399 280 333 353 q 593 207 464 207 q 718 228 657 207 q 840 294 779 250 l 917 93 q 771 15 861 44 q 583 -15 681 -15 m 276 1063 l 451 1307 l 654 1307 l 829 1063 l 663 1063 l 553 1182 l 443 1063 l 276 1063 z "},"Ċ":{"ha":954,"x_min":64,"x_max":917,"o":"m 583 -15 q 304 47 421 -15 q 126 224 188 110 q 64 490 64 338 q 126 756 64 643 q 304 932 188 869 q 583 994 421 994 q 771 965 681 994 q 917 886 861 935 l 840 685 q 718 751 779 729 q 593 772 657 772 q 399 699 464 772 q 333 490 333 626 q 399 280 333 353 q 593 207 464 207 q 718 228 657 207 q 840 294 779 250 l 917 93 q 771 15 861 44 q 583 -15 681 -15 m 442 1081 l 442 1289 l 664 1289 l 664 1081 l 442 1081 z "},"D":{"ha":1092,"x_min":89,"x_max":1029,"o":"m 89 0 l 89 979 l 494 979 q 889 851 749 979 q 1029 490 1029 724 q 889 128 1029 257 q 494 0 749 0 l 89 0 m 344 207 l 478 207 q 694 277 624 207 q 764 490 764 347 q 693 703 764 633 q 478 772 622 772 l 344 772 l 344 207 z "},"Ǆ":{"ha":1939,"x_min":89,"x_max":1910,"o":"m 89 0 l 89 979 l 494 979 q 889 851 749 979 q 1029 490 1029 724 q 889 128 1029 257 q 494 0 749 0 l 89 0 m 344 207 l 478 207 q 694 277 624 207 q 764 490 764 347 q 693 703 764 633 q 478 772 622 772 l 344 772 l 344 207 z "},"Ð":{"ha":1092,"x_min":-28,"x_max":1029,"o":"m 89 0 l 89 979 l 494 979 q 889 851 749 979 q 1029 490 1029 724 q 889 128 1029 257 q 494 0 749 0 l 89 0 m 344 207 l 478 207 q 694 277 624 207 q 764 490 764 347 q 693 703 764 633 q 478 772 622 772 l 344 772 l 344 207 m -28 404 l -28 585 l 597 585 l 597 404 l -28 404 z "},"Ď":{"ha":1092,"x_min":89,"x_max":1029,"o":"m 89 0 l 89 979 l 494 979 q 889 851 749 979 q 1029 490 1029 724 q 889 128 1029 257 q 494 0 749 0 l 89 0 m 344 207 l 478 207 q 694 277 624 207 q 764 490 764 347 q 693 703 764 633 q 478 772 622 772 l 344 772 l 344 207 m 439 1063 l 264 1307 l 431 1307 l 540 1188 l 650 1307 l 817 1307 l 642 1063 l 439 1063 z "},"Đ":{"ha":1092,"x_min":-28,"x_max":1029,"o":"m 89 0 l 89 979 l 494 979 q 889 851 749 979 q 1029 490 1029 724 q 889 128 1029 257 q 494 0 749 0 l 89 0 m 344 207 l 478 207 q 694 277 624 207 q 764 490 764 347 q 693 703 764 633 q 478 772 622 772 l 344 772 l 344 207 m -28 404 l -28 585 l 597 585 l 597 404 l -28 404 z "},"Ḍ":{"ha":1092,"x_min":89,"x_max":1029,"o":"m 89 0 l 89 979 l 494 979 q 889 851 749 979 q 1029 490 1029 724 q 889 128 1029 257 q 494 0 749 0 l 89 0 m 344 207 l 478 207 q 694 277 624 207 q 764 490 764 347 q 693 703 764 633 q 478 772 622 772 l 344 772 l 344 207 m 429 -311 l 429 -104 l 651 -104 l 651 -311 l 429 -311 z "},"Ɗ":{"ha":1344,"x_min":0,"x_max":1281,"o":"m 342 0 l 342 806 l 315 806 q 231 778 257 806 q 204 689 204 750 l 204 618 l 0 618 l 0 696 q 81 907 0 835 q 319 979 161 979 l 746 979 q 1141 851 1001 979 q 1281 490 1281 724 q 1141 128 1281 257 q 746 0 1001 0 l 342 0 m 596 207 l 731 207 q 945 277 875 207 q 1015 490 1015 347 q 944 703 1015 633 q 731 772 874 772 l 596 772 l 596 207 z "},"Ḏ":{"ha":1092,"x_min":89,"x_max":1029,"o":"m 89 0 l 89 979 l 494 979 q 889 851 749 979 q 1029 490 1029 724 q 889 128 1029 257 q 494 0 749 0 l 89 0 m 344 207 l 478 207 q 694 277 624 207 q 764 490 764 347 q 693 703 764 633 q 478 772 622 772 l 344 772 l 344 207 m 307 -243 l 307 -108 l 775 -108 l 775 -243 l 307 -243 z "},"ǅ":{"ha":1768,"x_min":89,"x_max":1738,"o":"m 89 0 l 89 979 l 494 979 q 889 851 749 979 q 1029 490 1029 724 q 889 128 1029 257 q 494 0 749 0 l 89 0 m 344 207 l 478 207 q 694 277 624 207 q 764 490 764 347 q 693 703 764 633 q 478 772 622 772 l 344 772 l 344 207 z "},"E":{"ha":853,"x_min":89,"x_max":781,"o":"m 89 0 l 89 979 l 781 979 l 781 782 l 333 782 l 333 596 l 749 596 l 749 399 l 333 399 l 333 197 l 781 197 l 781 0 l 89 0 z "},"É":{"ha":853,"x_min":89,"x_max":789,"o":"m 89 0 l 89 979 l 781 979 l 781 782 l 333 782 l 333 596 l 749 596 l 749 399 l 333 399 l 333 197 l 781 197 l 781 0 l 89 0 m 378 1063 l 542 1307 l 789 1307 l 547 1063 l 378 1063 z "},"Ĕ":{"ha":853,"x_min":89,"x_max":781,"o":"m 89 0 l 89 979 l 781 979 l 781 782 l 333 782 l 333 596 l 749 596 l 749 399 l 333 399 l 333 197 l 781 197 l 781 0 l 89 0 m 463 1056 q 268 1120 343 1056 q 186 1294 193 1185 l 319 1311 q 362 1224 325 1256 q 461 1193 399 1193 q 562 1224 524 1193 q 607 1311 600 1256 l 739 1294 q 658 1120 732 1185 q 463 1056 583 1056 z "},"Ě":{"ha":853,"x_min":89,"x_max":781,"o":"m 89 0 l 89 979 l 781 979 l 781 782 l 333 782 l 333 596 l 749 596 l 749 399 l 333 399 l 333 197 l 781 197 l 781 0 l 89 0 m 361 1063 l 186 1307 l 353 1307 l 463 1188 l 572 1307 l 739 1307 l 564 1063 l 361 1063 z "},"Ȩ":{"ha":853,"x_min":89,"x_max":781,"o":"m 89 0 l 89 979 l 781 979 l 781 782 l 333 782 l 333 596 l 749 596 l 749 399 l 333 399 l 333 197 l 781 197 l 781 0 l 89 0 m 460 -275 q 371 -267 414 -275 q 296 -243 328 -260 l 329 -146 q 433 -169 382 -169 q 501 -140 501 -169 q 451 -115 501 -115 q 403 -121 429 -115 l 374 -92 l 390 28 l 508 28 l 497 -43 l 499 -43 q 600 -71 564 -43 q 636 -149 636 -99 q 587 -241 636 -207 q 460 -275 538 -275 z "},"Ḝ":{"ha":853,"x_min":89,"x_max":781,"o":"m 89 0 l 89 979 l 781 979 l 781 782 l 333 782 l 333 596 l 749 596 l 749 399 l 333 399 l 333 197 l 781 197 l 781 0 l 89 0 m 460 -275 q 371 -267 414 -275 q 296 -243 328 -260 l 329 -146 q 433 -169 382 -169 q 501 -140 501 -169 q 451 -115 501 -115 q 403 -121 429 -115 l 374 -92 l 390 28 l 508 28 l 497 -43 l 499 -43 q 600 -71 564 -43 q 636 -149 636 -99 q 587 -241 636 -207 q 460 -275 538 -275 m 463 1056 q 268 1120 343 1056 q 186 1294 193 1185 l 319 1311 q 362 1224 325 1256 q 461 1193 399 1193 q 562 1224 524 1193 q 607 1311 600 1256 l 739 1294 q 658 1120 732 1185 q 463 1056 583 1056 z "},"Ê":{"ha":853,"x_min":89,"x_max":781,"o":"m 89 0 l 89 979 l 781 979 l 781 782 l 333 782 l 333 596 l 749 596 l 749 399 l 333 399 l 333 197 l 781 197 l 781 0 l 89 0 m 186 1063 l 361 1307 l 564 1307 l 739 1063 l 572 1063 l 463 1182 l 353 1063 l 186 1063 z "},"Ế":{"ha":853,"x_min":89,"x_max":940,"o":"m 89 0 l 89 979 l 781 979 l 781 782 l 333 782 l 333 596 l 749 596 l 749 399 l 333 399 l 333 197 l 781 197 l 781 0 l 89 0 m 638 1215 l 751 1424 l 940 1424 l 768 1215 l 638 1215 m 206 1063 l 360 1293 l 565 1293 l 719 1063 l 569 1063 l 463 1171 l 356 1063 l 206 1063 z "},"Ệ":{"ha":853,"x_min":89,"x_max":781,"o":"m 89 0 l 89 979 l 781 979 l 781 782 l 333 782 l 333 596 l 749 596 l 749 399 l 333 399 l 333 197 l 781 197 l 781 0 l 89 0 m 351 -311 l 351 -104 l 574 -104 l 574 -311 l 351 -311 m 186 1063 l 361 1307 l 564 1307 l 739 1063 l 572 1063 l 463 1182 l 353 1063 l 186 1063 z "},"Ề":{"ha":853,"x_min":89,"x_max":822,"o":"m 89 0 l 89 979 l 781 979 l 781 782 l 333 782 l 333 596 l 749 596 l 749 399 l 333 399 l 333 197 l 781 197 l 781 0 l 89 0 m 692 1215 l 519 1424 l 710 1424 l 822 1215 l 692 1215 m 206 1063 l 360 1293 l 565 1293 l 719 1063 l 569 1063 l 463 1171 l 356 1063 l 206 1063 z "},"Ể":{"ha":853,"x_min":89,"x_max":842,"o":"m 89 0 l 89 979 l 781 979 l 781 782 l 333 782 l 333 596 l 749 596 l 749 399 l 333 399 l 333 197 l 781 197 l 781 0 l 89 0 m 632 1215 q 646 1258 632 1242 q 673 1288 660 1275 q 686 1318 686 1301 q 676 1332 686 1328 q 653 1336 665 1336 q 614 1333 633 1336 q 576 1319 594 1329 l 549 1401 q 615 1422 579 1414 q 704 1429 650 1429 q 806 1410 769 1429 q 842 1360 842 1392 q 829 1318 842 1336 q 800 1285 817 1300 q 771 1253 783 1269 q 758 1215 758 1238 l 632 1215 m 206 1063 l 360 1293 l 565 1293 l 719 1063 l 569 1063 l 463 1171 l 356 1063 l 206 1063 z "},"Ễ":{"ha":853,"x_min":89,"x_max":781,"o":"m 89 0 l 89 979 l 781 979 l 781 782 l 333 782 l 333 596 l 749 596 l 749 399 l 333 399 l 333 197 l 781 197 l 781 0 l 89 0 m 303 1282 l 200 1288 q 252 1407 206 1367 q 368 1447 299 1447 q 422 1440 396 1447 q 476 1421 447 1433 q 549 1401 528 1401 q 622 1449 610 1401 l 725 1442 q 674 1322 721 1363 q 557 1282 626 1282 q 501 1290 529 1282 q 444 1310 474 1299 q 376 1329 401 1329 q 327 1317 344 1329 q 303 1282 310 1306 m 206 1063 l 360 1251 l 565 1251 l 719 1063 l 575 1063 l 463 1142 l 350 1063 l 206 1063 z "},"Ȅ":{"ha":853,"x_min":64,"x_max":781,"o":"m 89 0 l 89 979 l 781 979 l 781 782 l 333 782 l 333 596 l 749 596 l 749 399 l 333 399 l 333 197 l 781 197 l 781 0 l 89 0 m 513 1063 l 324 1307 l 532 1307 l 650 1063 l 513 1063 m 276 1063 l 64 1307 l 274 1307 l 413 1063 l 276 1063 z "},"Ë":{"ha":853,"x_min":89,"x_max":781,"o":"m 89 0 l 89 979 l 781 979 l 781 782 l 333 782 l 333 596 l 749 596 l 749 399 l 333 399 l 333 197 l 781 197 l 781 0 l 89 0 m 501 1071 l 501 1278 l 710 1278 l 710 1071 l 501 1071 m 215 1071 l 215 1278 l 424 1278 l 424 1071 l 215 1071 z "},"Ė":{"ha":853,"x_min":89,"x_max":781,"o":"m 89 0 l 89 979 l 781 979 l 781 782 l 333 782 l 333 596 l 749 596 l 749 399 l 333 399 l 333 197 l 781 197 l 781 0 l 89 0 m 351 1081 l 351 1289 l 574 1289 l 574 1081 l 351 1081 z "},"Ẹ":{"ha":853,"x_min":89,"x_max":781,"o":"m 89 0 l 89 979 l 781 979 l 781 782 l 333 782 l 333 596 l 749 596 l 749 399 l 333 399 l 333 197 l 781 197 l 781 0 l 89 0 m 351 -311 l 351 -104 l 574 -104 l 574 -311 l 351 -311 z "},"È":{"ha":853,"x_min":89,"x_max":781,"o":"m 89 0 l 89 979 l 781 979 l 781 782 l 333 782 l 333 596 l 749 596 l 749 399 l 333 399 l 333 197 l 781 197 l 781 0 l 89 0 m 378 1063 l 136 1307 l 383 1307 l 547 1063 l 378 1063 z "},"Ẻ":{"ha":853,"x_min":89,"x_max":781,"o":"m 89 0 l 89 979 l 781 979 l 781 782 l 333 782 l 333 596 l 749 596 l 749 399 l 333 399 l 333 197 l 781 197 l 781 0 l 89 0 m 392 1063 l 392 1090 q 408 1134 392 1118 q 442 1162 425 1150 q 460 1189 460 1174 q 414 1213 460 1213 q 373 1208 392 1213 q 335 1196 354 1204 l 299 1289 q 478 1319 368 1319 q 595 1295 553 1319 q 638 1228 638 1271 q 622 1177 638 1196 q 586 1146 607 1158 q 549 1119 565 1133 q 533 1081 533 1104 l 533 1063 l 392 1063 z "},"Ȇ":{"ha":853,"x_min":89,"x_max":781,"o":"m 89 0 l 89 979 l 781 979 l 781 782 l 333 782 l 333 596 l 749 596 l 749 399 l 333 399 l 333 197 l 781 197 l 781 0 l 89 0 m 319 1056 l 186 1072 q 268 1247 193 1182 q 463 1311 343 1311 q 658 1247 583 1311 q 739 1072 732 1182 l 607 1056 q 562 1142 600 1111 q 461 1174 524 1174 q 362 1142 399 1174 q 319 1056 325 1111 z "},"Ē":{"ha":853,"x_min":89,"x_max":781,"o":"m 89 0 l 89 979 l 781 979 l 781 782 l 333 782 l 333 596 l 749 596 l 749 399 l 333 399 l 333 197 l 781 197 l 781 0 l 89 0 m 208 1106 l 208 1240 l 718 1240 l 718 1106 l 208 1106 z "},"Ḗ":{"ha":853,"x_min":89,"x_max":781,"o":"m 89 0 l 89 979 l 781 979 l 781 782 l 333 782 l 333 596 l 749 596 l 749 399 l 333 399 l 333 197 l 781 197 l 781 0 l 89 0 m 390 1261 l 469 1429 l 693 1429 l 535 1261 l 390 1261 m 229 1075 l 229 1210 l 697 1210 l 697 1075 l 229 1075 z "},"Ḕ":{"ha":853,"x_min":89,"x_max":781,"o":"m 89 0 l 89 979 l 781 979 l 781 782 l 333 782 l 333 596 l 749 596 l 749 399 l 333 399 l 333 197 l 781 197 l 781 0 l 89 0 m 390 1261 l 232 1429 l 456 1429 l 535 1261 l 390 1261 m 229 1075 l 229 1210 l 697 1210 l 697 1075 l 229 1075 z "},"Ę":{"ha":853,"x_min":89,"x_max":799,"o":"m 89 0 l 89 979 l 781 979 l 781 782 l 333 782 l 333 596 l 749 596 l 749 399 l 333 399 l 333 197 l 781 197 l 781 0 l 89 0 m 665 -275 q 528 -233 576 -275 q 479 -121 479 -192 q 522 -8 479 -58 q 632 67 564 43 l 699 0 q 643 -40 661 -14 q 625 -92 625 -65 q 646 -137 625 -121 q 699 -154 667 -154 q 738 -151 721 -154 q 776 -140 756 -147 l 799 -251 q 733 -270 763 -265 q 665 -275 703 -275 z "},"Ẽ":{"ha":853,"x_min":89,"x_max":796,"o":"m 89 0 l 89 979 l 781 979 l 781 782 l 333 782 l 333 596 l 749 596 l 749 399 l 333 399 l 333 197 l 781 197 l 781 0 l 89 0 m 242 1054 l 129 1063 q 194 1232 136 1172 q 339 1292 251 1292 q 406 1281 372 1292 q 485 1250 440 1271 q 548 1224 524 1231 q 590 1217 572 1217 q 683 1299 667 1217 l 796 1292 q 731 1122 789 1181 q 586 1063 674 1063 q 516 1073 550 1063 q 438 1104 482 1083 q 378 1129 400 1122 q 335 1136 356 1136 q 242 1054 258 1136 z "},"F":{"ha":804,"x_min":89,"x_max":772,"o":"m 89 0 l 89 979 l 772 979 l 772 782 l 344 782 l 344 585 l 742 585 l 742 389 l 344 389 l 344 0 l 89 0 z "},"G":{"ha":1038,"x_min":64,"x_max":956,"o":"m 589 -15 q 303 47 421 -15 q 125 222 186 110 q 64 485 64 335 q 128 755 64 640 q 314 932 193 869 q 606 994 435 994 q 801 967 708 994 q 953 894 894 940 l 875 697 q 746 758 811 739 q 607 776 681 776 q 398 701 467 776 q 329 485 329 626 q 399 271 329 343 q 604 199 468 199 q 747 218 668 199 l 747 372 l 551 372 l 551 551 l 956 551 l 956 60 q 782 4 878 24 q 589 -15 686 -15 z "},"Ğ":{"ha":1038,"x_min":64,"x_max":956,"o":"m 589 -15 q 303 47 421 -15 q 125 222 186 110 q 64 485 64 335 q 128 755 64 640 q 314 932 193 869 q 606 994 435 994 q 801 967 708 994 q 953 894 894 940 l 875 697 q 746 758 811 739 q 607 776 681 776 q 398 701 467 776 q 329 485 329 626 q 399 271 329 343 q 604 199 468 199 q 747 218 668 199 l 747 372 l 551 372 l 551 551 l 956 551 l 956 60 q 782 4 878 24 q 589 -15 686 -15 m 572 1056 q 378 1120 453 1056 q 296 1294 303 1185 l 429 1311 q 472 1224 435 1256 q 571 1193 508 1193 q 672 1224 633 1193 q 717 1311 710 1256 l 849 1294 q 767 1120 842 1185 q 572 1056 693 1056 z "},"Ǧ":{"ha":1038,"x_min":64,"x_max":956,"o":"m 589 -15 q 303 47 421 -15 q 125 222 186 110 q 64 485 64 335 q 128 755 64 640 q 314 932 193 869 q 606 994 435 994 q 801 967 708 994 q 953 894 894 940 l 875 697 q 746 758 811 739 q 607 776 681 776 q 398 701 467 776 q 329 485 329 626 q 399 271 329 343 q 604 199 468 199 q 747 218 668 199 l 747 372 l 551 372 l 551 551 l 956 551 l 956 60 q 782 4 878 24 q 589 -15 686 -15 m 471 1063 l 296 1307 l 463 1307 l 572 1188 l 682 1307 l 849 1307 l 674 1063 l 471 1063 z "},"Ĝ":{"ha":1038,"x_min":64,"x_max":956,"o":"m 589 -15 q 303 47 421 -15 q 125 222 186 110 q 64 485 64 335 q 128 755 64 640 q 314 932 193 869 q 606 994 435 994 q 801 967 708 994 q 953 894 894 940 l 875 697 q 746 758 811 739 q 607 776 681 776 q 398 701 467 776 q 329 485 329 626 q 399 271 329 343 q 604 199 468 199 q 747 218 668 199 l 747 372 l 551 372 l 551 551 l 956 551 l 956 60 q 782 4 878 24 q 589 -15 686 -15 m 296 1063 l 471 1307 l 674 1307 l 849 1063 l 682 1063 l 572 1182 l 463 1063 l 296 1063 z "},"Ģ":{"ha":1038,"x_min":64,"x_max":956,"o":"m 589 -15 q 303 47 421 -15 q 125 222 186 110 q 64 485 64 335 q 128 755 64 640 q 314 932 193 869 q 606 994 435 994 q 801 967 708 994 q 953 894 894 940 l 875 697 q 746 758 811 739 q 607 776 681 776 q 398 701 467 776 q 329 485 329 626 q 399 271 329 343 q 604 199 468 199 q 747 218 668 199 l 747 372 l 551 372 l 551 551 l 956 551 l 956 60 q 782 4 878 24 q 589 -15 686 -15 m 610 -403 l 526 -347 q 560 -307 549 -328 q 576 -264 572 -286 l 464 -264 l 464 -90 l 699 -90 l 699 -194 q 679 -310 699 -258 q 610 -403 660 -361 z "},"Ġ":{"ha":1038,"x_min":64,"x_max":956,"o":"m 589 -15 q 303 47 421 -15 q 125 222 186 110 q 64 485 64 335 q 128 755 64 640 q 314 932 193 869 q 606 994 435 994 q 801 967 708 994 q 953 894 894 940 l 875 697 q 746 758 811 739 q 607 776 681 776 q 398 701 467 776 q 329 485 329 626 q 399 271 329 343 q 604 199 468 199 q 747 218 668 199 l 747 372 l 551 372 l 551 551 l 956 551 l 956 60 q 782 4 878 24 q 589 -15 686 -15 m 461 1081 l 461 1289 l 683 1289 l 683 1081 l 461 1081 z "},"Ḡ":{"ha":1038,"x_min":64,"x_max":956,"o":"m 589 -15 q 303 47 421 -15 q 125 222 186 110 q 64 485 64 335 q 128 755 64 640 q 314 932 193 869 q 606 994 435 994 q 801 967 708 994 q 953 894 894 940 l 875 697 q 746 758 811 739 q 607 776 681 776 q 398 701 467 776 q 329 485 329 626 q 399 271 329 343 q 604 199 468 199 q 747 218 668 199 l 747 372 l 551 372 l 551 551 l 956 551 l 956 60 q 782 4 878 24 q 589 -15 686 -15 m 318 1106 l 318 1240 l 828 1240 l 828 1106 l 318 1106 z "},"H":{"ha":1092,"x_min":89,"x_max":1003,"o":"m 89 0 l 89 979 l 344 979 l 344 601 l 749 601 l 749 979 l 1003 979 l 1003 0 l 749 0 l 749 392 l 344 392 l 344 0 l 89 0 z "},"Ħ":{"ha":1168,"x_min":18,"x_max":1149,"o":"m 126 0 l 126 696 l 18 696 l 18 876 l 126 876 l 126 979 l 382 979 l 382 876 l 786 876 l 786 979 l 1040 979 l 1040 876 l 1149 876 l 1149 696 l 1040 696 l 1040 0 l 786 0 l 786 368 l 382 368 l 382 0 l 126 0 m 382 578 l 786 578 l 786 696 l 382 696 l 382 578 z "},"Ḫ":{"ha":1092,"x_min":89,"x_max":1003,"o":"m 89 0 l 89 979 l 344 979 l 344 601 l 749 601 l 749 979 l 1003 979 l 1003 0 l 749 0 l 749 392 l 344 392 l 344 0 l 89 0 m 546 -299 q 366 -239 435 -299 q 296 -81 297 -179 l 428 -68 q 464 -136 433 -111 q 546 -161 494 -161 q 628 -136 597 -161 q 664 -68 658 -111 l 796 -81 q 726 -239 794 -179 q 546 -299 657 -299 z "},"Ĥ":{"ha":1092,"x_min":89,"x_max":1003,"o":"m 89 0 l 89 979 l 344 979 l 344 601 l 749 601 l 749 979 l 1003 979 l 1003 0 l 749 0 l 749 392 l 344 392 l 344 0 l 89 0 m 269 1063 l 444 1307 l 647 1307 l 822 1063 l 656 1063 l 546 1182 l 436 1063 l 269 1063 z "},"Ḥ":{"ha":1092,"x_min":89,"x_max":1003,"o":"m 89 0 l 89 979 l 344 979 l 344 601 l 749 601 l 749 979 l 1003 979 l 1003 0 l 749 0 l 749 392 l 344 392 l 344 0 l 89 0 m 435 -311 l 435 -104 l 657 -104 l 657 -311 l 435 -311 z "},"I":{"ha":433,"x_min":89,"x_max":344,"o":"m 89 0 l 89 979 l 344 979 l 344 0 l 89 0 z "},"Ĳ":{"ha":975,"x_min":89,"x_max":888,"o":"m 89 0 l 89 979 l 344 979 l 344 0 l 89 0 m 436 -15 l 421 189 l 535 196 q 609 220 586 199 q 632 292 632 242 l 632 979 l 888 979 l 888 296 q 578 -8 888 10 l 436 -15 z "},"Í":{"ha":433,"x_min":89,"x_max":543,"o":"m 89 0 l 89 979 l 344 979 l 344 0 l 89 0 m 132 1063 l 296 1307 l 543 1307 l 301 1063 l 132 1063 z "},"Ĭ":{"ha":433,"x_min":-60,"x_max":493,"o":"m 89 0 l 89 979 l 344 979 l 344 0 l 89 0 m 217 1056 q 22 1120 97 1056 q -60 1294 -53 1185 l 74 1311 q 116 1224 79 1256 q 215 1193 153 1193 q 316 1224 278 1193 q 361 1311 354 1256 l 493 1294 q 412 1120 486 1185 q 217 1056 338 1056 z "},"Î":{"ha":433,"x_min":-60,"x_max":493,"o":"m 89 0 l 89 979 l 344 979 l 344 0 l 89 0 m -60 1063 l 115 1307 l 318 1307 l 493 1063 l 326 1063 l 217 1182 l 107 1063 l -60 1063 z "},"Ȉ":{"ha":433,"x_min":-182,"x_max":404,"o":"m 89 0 l 89 979 l 344 979 l 344 0 l 89 0 m 267 1063 l 78 1307 l 286 1307 l 404 1063 l 267 1063 m 31 1063 l -182 1307 l 28 1307 l 167 1063 l 31 1063 z "},"Ï":{"ha":433,"x_min":-31,"x_max":464,"o":"m 89 0 l 89 979 l 344 979 l 344 0 l 89 0 m 256 1071 l 256 1278 l 464 1278 l 464 1071 l 256 1071 m -31 1071 l -31 1278 l 178 1278 l 178 1071 l -31 1071 z "},"Ḯ":{"ha":433,"x_min":-31,"x_max":464,"o":"m 89 0 l 89 979 l 344 979 l 344 0 l 89 0 m 144 1261 l 224 1429 l 447 1429 l 289 1261 l 144 1261 m -31 1068 l -31 1215 l 178 1215 l 178 1068 l -31 1068 m 256 1068 l 256 1215 l 464 1215 l 464 1068 l 256 1068 z "},"İ":{"ha":433,"x_min":89,"x_max":344,"o":"m 89 0 l 89 979 l 344 979 l 344 0 l 89 0 m 106 1081 l 106 1289 l 328 1289 l 328 1081 l 106 1081 z "},"Ị":{"ha":433,"x_min":89,"x_max":344,"o":"m 89 0 l 89 979 l 344 979 l 344 0 l 89 0 m 106 -311 l 106 -104 l 328 -104 l 328 -311 l 106 -311 z "},"Ì":{"ha":433,"x_min":-110,"x_max":344,"o":"m 89 0 l 89 979 l 344 979 l 344 0 l 89 0 m 132 1063 l -110 1307 l 138 1307 l 301 1063 l 132 1063 z "},"Ỉ":{"ha":433,"x_min":53,"x_max":392,"o":"m 89 0 l 89 979 l 344 979 l 344 0 l 89 0 m 146 1063 l 146 1090 q 163 1134 146 1118 q 197 1162 179 1150 q 214 1189 214 1174 q 168 1213 214 1213 q 127 1208 146 1213 q 89 1196 108 1204 l 53 1289 q 232 1319 122 1319 q 349 1295 307 1319 q 392 1228 392 1271 q 376 1177 392 1196 q 340 1146 361 1158 q 303 1119 319 1133 q 288 1081 288 1104 l 288 1063 l 146 1063 z "},"Ȋ":{"ha":433,"x_min":-60,"x_max":493,"o":"m 89 0 l 89 979 l 344 979 l 344 0 l 89 0 m 74 1056 l -60 1072 q 22 1247 -53 1182 q 217 1311 97 1311 q 412 1247 338 1311 q 493 1072 486 1182 l 361 1056 q 316 1142 354 1111 q 215 1174 278 1174 q 116 1142 153 1174 q 74 1056 79 1111 z "},"Ī":{"ha":433,"x_min":-37,"x_max":472,"o":"m 89 0 l 89 979 l 344 979 l 344 0 l 89 0 m -37 1106 l -37 1240 l 472 1240 l 472 1106 l -37 1106 z "},"Į":{"ha":433,"x_min":63,"x_max":382,"o":"m 89 0 l 89 979 l 344 979 l 344 0 l 89 0 m 249 -275 q 111 -233 160 -275 q 63 -121 63 -192 q 105 -8 63 -58 q 215 67 147 43 l 282 0 q 226 -40 244 -14 q 208 -92 208 -65 q 229 -137 208 -121 q 282 -154 250 -154 q 322 -151 304 -154 q 360 -140 339 -147 l 382 -251 q 316 -270 346 -265 q 249 -275 286 -275 z "},"Ĩ":{"ha":433,"x_min":-117,"x_max":550,"o":"m 89 0 l 89 979 l 344 979 l 344 0 l 89 0 m -4 1054 l -117 1063 q -52 1232 -110 1172 q 93 1292 6 1292 q 160 1281 126 1292 q 239 1250 194 1271 q 302 1224 278 1231 q 344 1217 326 1217 q 438 1299 421 1217 l 550 1292 q 485 1122 543 1181 q 340 1063 428 1063 q 270 1073 304 1063 q 192 1104 236 1083 q 132 1129 154 1122 q 89 1136 110 1136 q -4 1054 13 1136 z "},"J":{"ha":543,"x_min":-12,"x_max":454,"o":"m 3 -15 l -12 189 l 101 196 q 176 220 153 199 q 199 292 199 242 l 199 979 l 454 979 l 454 296 q 144 -8 454 10 l 3 -15 z "},"Ĵ":{"ha":543,"x_min":-12,"x_max":601,"o":"m 3 -15 l -12 189 l 101 196 q 176 220 153 199 q 199 292 199 242 l 199 979 l 454 979 l 454 296 q 144 -8 454 10 l 3 -15 m 49 1063 l 224 1307 l 426 1307 l 601 1063 l 435 1063 l 325 1182 l 215 1063 l 49 1063 z "},"K":{"ha":989,"x_min":89,"x_max":1046,"o":"m 89 0 l 89 979 l 344 979 l 344 560 l 347 560 l 728 979 l 1031 979 l 594 514 l 1046 0 l 742 0 l 347 442 l 344 442 l 344 0 l 89 0 z "},"Ķ":{"ha":989,"x_min":89,"x_max":1046,"o":"m 89 0 l 89 979 l 344 979 l 344 560 l 347 560 l 728 979 l 1031 979 l 594 514 l 1046 0 l 742 0 l 347 442 l 344 442 l 344 0 l 89 0 m 515 -403 l 432 -347 q 466 -307 454 -328 q 482 -264 478 -286 l 369 -264 l 369 -90 l 604 -90 l 604 -194 q 585 -310 604 -258 q 515 -403 565 -361 z "},"L":{"ha":813,"x_min":89,"x_max":781,"o":"m 89 0 l 89 979 l 344 979 l 344 213 l 781 213 l 781 0 l 89 0 z "},"Ǉ":{"ha":1411,"x_min":89,"x_max":1322,"o":"m 89 0 l 89 979 l 344 979 l 344 213 l 781 213 l 781 0 l 89 0 m 871 -15 l 856 189 l 969 196 q 1044 220 1021 199 q 1067 292 1067 242 l 1067 979 l 1322 979 l 1322 296 q 1013 -8 1322 10 l 871 -15 z "},"Ĺ":{"ha":813,"x_min":89,"x_max":781,"o":"m 89 0 l 89 979 l 344 979 l 344 213 l 781 213 l 781 0 l 89 0 m 132 1063 l 296 1307 l 543 1307 l 301 1063 l 132 1063 z "},"Ľ":{"ha":813,"x_min":89,"x_max":781,"o":"m 89 0 l 89 979 l 344 979 l 344 213 l 781 213 l 781 0 l 89 0 m 478 633 l 478 979 l 656 979 l 619 633 l 478 633 z "},"Ļ":{"ha":813,"x_min":89,"x_max":781,"o":"m 89 0 l 89 979 l 344 979 l 344 213 l 781 213 l 781 0 l 89 0 m 463 -403 l 379 -347 q 413 -307 401 -328 q 429 -264 425 -286 l 317 -264 l 317 -90 l 551 -90 l 551 -194 q 532 -310 551 -258 q 463 -403 513 -361 z "},"Ŀ":{"ha":813,"x_min":89,"x_max":781,"o":"m 89 0 l 89 979 l 344 979 l 344 213 l 781 213 l 781 0 l 89 0 m 497 443 l 497 664 l 756 664 l 756 443 l 497 443 z "},"Ḷ":{"ha":813,"x_min":89,"x_max":781,"o":"m 89 0 l 89 979 l 344 979 l 344 213 l 781 213 l 781 0 l 89 0 m 324 -311 l 324 -104 l 546 -104 l 546 -311 l 324 -311 z "},"ǈ":{"ha":1211,"x_min":89,"x_max":1144,"o":"m 89 0 l 89 979 l 344 979 l 344 213 l 781 213 l 781 0 l 89 0 m 883 801 l 883 1025 l 1144 1025 l 1144 801 l 883 801 m 758 -268 l 742 -94 l 810 -86 q 872 -60 853 -81 q 892 4 892 -39 l 892 683 l 1139 683 l 1139 39 q 1109 -128 1139 -64 q 1009 -224 1079 -192 q 819 -264 939 -256 l 758 -268 z "},"Ḻ":{"ha":813,"x_min":89,"x_max":781,"o":"m 89 0 l 89 979 l 344 979 l 344 213 l 781 213 l 781 0 l 89 0 m 201 -243 l 201 -108 l 669 -108 l 669 -243 l 201 -243 z "},"Ł":{"ha":813,"x_min":-75,"x_max":781,"o":"m 89 0 l 89 979 l 344 979 l 344 213 l 781 213 l 781 0 l 89 0 m 17 275 l -75 439 l 547 797 l 639 633 l 17 275 z "},"M":{"ha":1228,"x_min":92,"x_max":1136,"o":"m 92 0 l 92 979 l 304 979 l 617 418 l 929 979 l 1136 979 l 1136 0 l 906 0 l 906 532 l 682 144 l 543 144 l 322 526 l 322 0 l 92 0 z "},"Ṃ":{"ha":1228,"x_min":92,"x_max":1136,"o":"m 92 0 l 92 979 l 304 979 l 617 418 l 929 979 l 1136 979 l 1136 0 l 906 0 l 906 532 l 682 144 l 543 144 l 322 526 l 322 0 l 92 0 m 504 -311 l 504 -104 l 726 -104 l 726 -311 l 504 -311 z "},"N":{"ha":1053,"x_min":89,"x_max":963,"o":"m 89 0 l 89 979 l 276 979 l 726 418 l 726 979 l 963 979 l 963 0 l 776 0 l 326 561 l 326 0 l 89 0 z "},"Ǌ":{"ha":1594,"x_min":89,"x_max":1507,"o":"m 89 0 l 89 979 l 276 979 l 726 418 l 726 979 l 963 979 l 963 0 l 776 0 l 326 561 l 326 0 l 89 0 m 1056 -15 l 1040 189 l 1154 196 q 1228 220 1206 199 q 1251 292 1251 242 l 1251 979 l 1507 979 l 1507 296 q 1197 -8 1507 10 l 1056 -15 z "},"Ń":{"ha":1053,"x_min":89,"x_max":963,"o":"m 89 0 l 89 979 l 276 979 l 726 418 l 726 979 l 963 979 l 963 0 l 776 0 l 326 561 l 326 0 l 89 0 m 440 1063 l 604 1307 l 851 1307 l 610 1063 l 440 1063 z "},"Ň":{"ha":1053,"x_min":89,"x_max":963,"o":"m 89 0 l 89 979 l 276 979 l 726 418 l 726 979 l 963 979 l 963 0 l 776 0 l 326 561 l 326 0 l 89 0 m 424 1063 l 249 1307 l 415 1307 l 525 1188 l 635 1307 l 801 1307 l 626 1063 l 424 1063 z "},"Ņ":{"ha":1053,"x_min":89,"x_max":963,"o":"m 89 0 l 89 979 l 276 979 l 726 418 l 726 979 l 963 979 l 963 0 l 776 0 l 326 561 l 326 0 l 89 0 m 554 -403 l 471 -347 q 505 -307 493 -328 q 521 -264 517 -286 l 408 -264 l 408 -90 l 643 -90 l 643 -194 q 624 -310 643 -258 q 554 -403 604 -361 z "},"Ṅ":{"ha":1053,"x_min":89,"x_max":963,"o":"m 89 0 l 89 979 l 276 979 l 726 418 l 726 979 l 963 979 l 963 0 l 776 0 l 326 561 l 326 0 l 89 0 m 414 1081 l 414 1289 l 636 1289 l 636 1081 l 414 1081 z "},"Ṇ":{"ha":1053,"x_min":89,"x_max":963,"o":"m 89 0 l 89 979 l 276 979 l 726 418 l 726 979 l 963 979 l 963 0 l 776 0 l 326 561 l 326 0 l 89 0 m 415 -311 l 415 -104 l 638 -104 l 638 -311 l 415 -311 z "},"Ŋ":{"ha":1053,"x_min":89,"x_max":963,"o":"m 583 -268 l 567 -94 l 640 -86 q 705 -60 683 -81 q 726 4 726 -39 l 726 61 l 326 561 l 326 0 l 89 0 l 89 979 l 276 979 l 726 418 l 726 979 l 963 979 l 963 39 q 933 -128 963 -64 q 833 -224 903 -192 q 644 -264 764 -256 l 583 -268 z "},"ǋ":{"ha":1451,"x_min":89,"x_max":1385,"o":"m 89 0 l 89 979 l 276 979 l 726 418 l 726 979 l 963 979 l 963 0 l 776 0 l 326 561 l 326 0 l 89 0 m 1124 801 l 1124 1025 l 1385 1025 l 1385 801 l 1124 801 m 999 -268 l 982 -94 l 1050 -86 q 1113 -60 1093 -81 q 1132 4 1132 -39 l 1132 683 l 1379 683 l 1379 39 q 1349 -128 1379 -64 q 1249 -224 1319 -192 q 1060 -264 1179 -256 l 999 -268 z "},"Ṉ":{"ha":1053,"x_min":89,"x_max":963,"o":"m 89 0 l 89 979 l 276 979 l 726 418 l 726 979 l 963 979 l 963 0 l 776 0 l 326 561 l 326 0 l 89 0 m 293 -243 l 293 -108 l 761 -108 l 761 -243 l 293 -243 z "},"Ñ":{"ha":1053,"x_min":89,"x_max":963,"o":"m 89 0 l 89 979 l 276 979 l 726 418 l 726 979 l 963 979 l 963 0 l 776 0 l 326 561 l 326 0 l 89 0 m 304 1054 l 192 1063 q 256 1232 199 1172 q 401 1292 314 1292 q 469 1281 435 1292 q 547 1250 503 1271 q 610 1224 586 1231 q 653 1217 635 1217 q 746 1299 729 1217 l 858 1292 q 794 1122 851 1181 q 649 1063 736 1063 q 578 1073 613 1063 q 500 1104 544 1083 q 440 1129 463 1122 q 397 1136 418 1136 q 304 1054 321 1136 z "},"O":{"ha":1121,"x_min":64,"x_max":1058,"o":"m 561 -15 q 301 48 413 -15 q 126 225 189 111 q 64 490 64 339 q 126 756 64 643 q 300 932 188 869 q 561 994 413 994 q 822 932 710 994 q 996 756 933 869 q 1058 490 1058 643 q 996 225 1058 339 q 822 48 933 111 q 561 -15 710 -15 m 561 199 q 731 276 669 199 q 793 490 793 353 q 732 704 793 628 q 561 781 671 781 q 390 704 451 781 q 329 490 329 628 q 390 276 329 353 q 561 199 451 199 z "},"Ó":{"ha":1121,"x_min":64,"x_max":1058,"o":"m 561 -15 q 301 48 413 -15 q 126 225 189 111 q 64 490 64 339 q 126 756 64 643 q 300 932 188 869 q 561 994 413 994 q 822 932 710 994 q 996 756 933 869 q 1058 490 1058 643 q 996 225 1058 339 q 822 48 933 111 q 561 -15 710 -15 m 561 199 q 731 276 669 199 q 793 490 793 353 q 732 704 793 628 q 561 781 671 781 q 390 704 451 781 q 329 490 329 628 q 390 276 329 353 q 561 199 451 199 m 474 1063 l 638 1307 l 885 1307 l 643 1063 l 474 1063 z "},"Ŏ":{"ha":1121,"x_min":64,"x_max":1058,"o":"m 561 -15 q 301 48 413 -15 q 126 225 189 111 q 64 490 64 339 q 126 756 64 643 q 300 932 188 869 q 561 994 413 994 q 822 932 710 994 q 996 756 933 869 q 1058 490 1058 643 q 996 225 1058 339 q 822 48 933 111 q 561 -15 710 -15 m 561 199 q 731 276 669 199 q 793 490 793 353 q 732 704 793 628 q 561 781 671 781 q 390 704 451 781 q 329 490 329 628 q 390 276 329 353 q 561 199 451 199 m 558 1056 q 364 1120 439 1056 q 282 1294 289 1185 l 415 1311 q 458 1224 421 1256 q 557 1193 494 1193 q 658 1224 619 1193 q 703 1311 696 1256 l 835 1294 q 753 1120 828 1185 q 558 1056 679 1056 z "},"Ô":{"ha":1121,"x_min":64,"x_max":1058,"o":"m 561 -15 q 301 48 413 -15 q 126 225 189 111 q 64 490 64 339 q 126 756 64 643 q 300 932 188 869 q 561 994 413 994 q 822 932 710 994 q 996 756 933 869 q 1058 490 1058 643 q 996 225 1058 339 q 822 48 933 111 q 561 -15 710 -15 m 561 199 q 731 276 669 199 q 793 490 793 353 q 732 704 793 628 q 561 781 671 781 q 390 704 451 781 q 329 490 329 628 q 390 276 329 353 q 561 199 451 199 m 282 1063 l 457 1307 l 660 1307 l 835 1063 l 668 1063 l 558 1182 l 449 1063 l 282 1063 z "},"Ố":{"ha":1121,"x_min":64,"x_max":1058,"o":"m 561 -15 q 301 48 413 -15 q 126 225 189 111 q 64 490 64 339 q 126 756 64 643 q 300 932 188 869 q 561 994 413 994 q 822 932 710 994 q 996 756 933 869 q 1058 490 1058 643 q 996 225 1058 339 q 822 48 933 111 q 561 -15 710 -15 m 561 199 q 731 276 669 199 q 793 490 793 353 q 732 704 793 628 q 561 781 671 781 q 390 704 451 781 q 329 490 329 628 q 390 276 329 353 q 561 199 451 199 m 733 1215 l 847 1424 l 1036 1424 l 864 1215 l 733 1215 m 301 1063 l 456 1293 l 661 1293 l 815 1063 l 665 1063 l 558 1171 l 451 1063 l 301 1063 z "},"Ộ":{"ha":1121,"x_min":64,"x_max":1058,"o":"m 561 -15 q 301 48 413 -15 q 126 225 189 111 q 64 490 64 339 q 126 756 64 643 q 300 932 188 869 q 561 994 413 994 q 822 932 710 994 q 996 756 933 869 q 1058 490 1058 643 q 996 225 1058 339 q 822 48 933 111 q 561 -15 710 -15 m 561 199 q 731 276 669 199 q 793 490 793 353 q 732 704 793 628 q 561 781 671 781 q 390 704 451 781 q 329 490 329 628 q 390 276 329 353 q 561 199 451 199 m 449 -311 l 449 -104 l 671 -104 l 671 -311 l 449 -311 m 282 1063 l 457 1307 l 660 1307 l 835 1063 l 668 1063 l 558 1182 l 449 1063 l 282 1063 z "},"Ồ":{"ha":1121,"x_min":64,"x_max":1058,"o":"m 561 -15 q 301 48 413 -15 q 126 225 189 111 q 64 490 64 339 q 126 756 64 643 q 300 932 188 869 q 561 994 413 994 q 822 932 710 994 q 996 756 933 869 q 1058 490 1058 643 q 996 225 1058 339 q 822 48 933 111 q 561 -15 710 -15 m 561 199 q 731 276 669 199 q 793 490 793 353 q 732 704 793 628 q 561 781 671 781 q 390 704 451 781 q 329 490 329 628 q 390 276 329 353 q 561 199 451 199 m 788 1215 l 615 1424 l 806 1424 l 918 1215 l 788 1215 m 301 1063 l 456 1293 l 661 1293 l 815 1063 l 665 1063 l 558 1171 l 451 1063 l 301 1063 z "},"Ổ":{"ha":1121,"x_min":64,"x_max":1058,"o":"m 561 -15 q 301 48 413 -15 q 126 225 189 111 q 64 490 64 339 q 126 756 64 643 q 300 932 188 869 q 561 994 413 994 q 822 932 710 994 q 996 756 933 869 q 1058 490 1058 643 q 996 225 1058 339 q 822 48 933 111 q 561 -15 710 -15 m 561 199 q 731 276 669 199 q 793 490 793 353 q 732 704 793 628 q 561 781 671 781 q 390 704 451 781 q 329 490 329 628 q 390 276 329 353 q 561 199 451 199 m 728 1215 q 742 1258 728 1242 q 769 1288 756 1275 q 782 1318 782 1301 q 772 1332 782 1328 q 749 1336 761 1336 q 710 1333 729 1336 q 672 1319 690 1329 l 644 1401 q 710 1422 675 1414 q 800 1429 746 1429 q 901 1410 865 1429 q 938 1360 938 1392 q 925 1318 938 1336 q 896 1285 913 1300 q 867 1253 879 1269 q 854 1215 854 1238 l 728 1215 m 301 1063 l 456 1293 l 661 1293 l 815 1063 l 665 1063 l 558 1171 l 451 1063 l 301 1063 z "},"Ỗ":{"ha":1121,"x_min":64,"x_max":1058,"o":"m 561 -15 q 301 48 413 -15 q 126 225 189 111 q 64 490 64 339 q 126 756 64 643 q 300 932 188 869 q 561 994 413 994 q 822 932 710 994 q 996 756 933 869 q 1058 490 1058 643 q 996 225 1058 339 q 822 48 933 111 q 561 -15 710 -15 m 561 199 q 731 276 669 199 q 793 490 793 353 q 732 704 793 628 q 561 781 671 781 q 390 704 451 781 q 329 490 329 628 q 390 276 329 353 q 561 199 451 199 m 399 1282 l 296 1288 q 348 1407 301 1367 q 464 1447 394 1447 q 517 1440 492 1447 q 572 1421 543 1433 q 644 1401 624 1401 q 718 1449 706 1401 l 821 1442 q 769 1322 817 1363 q 653 1282 722 1282 q 597 1290 625 1282 q 540 1310 569 1299 q 472 1329 497 1329 q 423 1317 440 1329 q 399 1282 406 1306 m 301 1063 l 456 1251 l 661 1251 l 815 1063 l 671 1063 l 558 1142 l 446 1063 l 301 1063 z "},"Ȍ":{"ha":1121,"x_min":64,"x_max":1058,"o":"m 561 -15 q 301 48 413 -15 q 126 225 189 111 q 64 490 64 339 q 126 756 64 643 q 300 932 188 869 q 561 994 413 994 q 822 932 710 994 q 996 756 933 869 q 1058 490 1058 643 q 996 225 1058 339 q 822 48 933 111 q 561 -15 710 -15 m 561 199 q 731 276 669 199 q 793 490 793 353 q 732 704 793 628 q 561 781 671 781 q 390 704 451 781 q 329 490 329 628 q 390 276 329 353 q 561 199 451 199 m 608 1063 l 419 1307 l 628 1307 l 746 1063 l 608 1063 m 372 1063 l 160 1307 l 369 1307 l 508 1063 l 372 1063 z "},"Ö":{"ha":1121,"x_min":64,"x_max":1058,"o":"m 561 -15 q 301 48 413 -15 q 126 225 189 111 q 64 490 64 339 q 126 756 64 643 q 300 932 188 869 q 561 994 413 994 q 822 932 710 994 q 996 756 933 869 q 1058 490 1058 643 q 996 225 1058 339 q 822 48 933 111 q 561 -15 710 -15 m 561 199 q 731 276 669 199 q 793 490 793 353 q 732 704 793 628 q 561 781 671 781 q 390 704 451 781 q 329 490 329 628 q 390 276 329 353 q 561 199 451 199 m 597 1071 l 597 1278 l 806 1278 l 806 1071 l 597 1071 m 311 1071 l 311 1278 l 519 1278 l 519 1071 l 311 1071 z "},"Ȫ":{"ha":1121,"x_min":64,"x_max":1058,"o":"m 561 -15 q 301 48 413 -15 q 126 225 189 111 q 64 490 64 339 q 126 756 64 643 q 300 932 188 869 q 561 994 413 994 q 822 932 710 994 q 996 756 933 869 q 1058 490 1058 643 q 996 225 1058 339 q 822 48 933 111 q 561 -15 710 -15 m 561 199 q 731 276 669 199 q 793 490 793 353 q 732 704 793 628 q 561 781 671 781 q 390 704 451 781 q 329 490 329 628 q 390 276 329 353 q 561 199 451 199 m 325 1281 l 325 1415 l 793 1415 l 793 1281 l 325 1281 m 311 1078 l 311 1224 l 519 1224 l 519 1078 l 311 1078 m 597 1078 l 597 1224 l 806 1224 l 806 1078 l 597 1078 z "},"Ȱ":{"ha":1121,"x_min":64,"x_max":1058,"o":"m 561 -15 q 301 48 413 -15 q 126 225 189 111 q 64 490 64 339 q 126 756 64 643 q 300 932 188 869 q 561 994 413 994 q 822 932 710 994 q 996 756 933 869 q 1058 490 1058 643 q 996 225 1058 339 q 822 48 933 111 q 561 -15 710 -15 m 561 199 q 731 276 669 199 q 793 490 793 353 q 732 704 793 628 q 561 781 671 781 q 390 704 451 781 q 329 490 329 628 q 390 276 329 353 q 561 199 451 199 m 324 1281 l 324 1415 l 793 1415 l 793 1281 l 324 1281 m 454 1078 l 454 1224 l 663 1224 l 663 1078 l 454 1078 z "},"Ọ":{"ha":1121,"x_min":64,"x_max":1058,"o":"m 561 -15 q 301 48 413 -15 q 126 225 189 111 q 64 490 64 339 q 126 756 64 643 q 300 932 188 869 q 561 994 413 994 q 822 932 710 994 q 996 756 933 869 q 1058 490 1058 643 q 996 225 1058 339 q 822 48 933 111 q 561 -15 710 -15 m 561 199 q 731 276 669 199 q 793 490 793 353 q 732 704 793 628 q 561 781 671 781 q 390 704 451 781 q 329 490 329 628 q 390 276 329 353 q 561 199 451 199 m 449 -311 l 449 -104 l 671 -104 l 671 -311 l 449 -311 z "},"Ò":{"ha":1121,"x_min":64,"x_max":1058,"o":"m 561 -15 q 301 48 413 -15 q 126 225 189 111 q 64 490 64 339 q 126 756 64 643 q 300 932 188 869 q 561 994 413 994 q 822 932 710 994 q 996 756 933 869 q 1058 490 1058 643 q 996 225 1058 339 q 822 48 933 111 q 561 -15 710 -15 m 561 199 q 731 276 669 199 q 793 490 793 353 q 732 704 793 628 q 561 781 671 781 q 390 704 451 781 q 329 490 329 628 q 390 276 329 353 q 561 199 451 199 m 474 1063 l 232 1307 l 479 1307 l 643 1063 l 474 1063 z "},"Ỏ":{"ha":1121,"x_min":64,"x_max":1058,"o":"m 561 -15 q 301 48 413 -15 q 126 225 189 111 q 64 490 64 339 q 126 756 64 643 q 300 932 188 869 q 561 994 413 994 q 822 932 710 994 q 996 756 933 869 q 1058 490 1058 643 q 996 225 1058 339 q 822 48 933 111 q 561 -15 710 -15 m 561 199 q 731 276 669 199 q 793 490 793 353 q 732 704 793 628 q 561 781 671 781 q 390 704 451 781 q 329 490 329 628 q 390 276 329 353 q 561 199 451 199 m 488 1063 l 488 1090 q 504 1134 488 1118 q 538 1162 521 1150 q 556 1189 556 1174 q 510 1213 556 1213 q 469 1208 488 1213 q 431 1196 450 1204 l 394 1289 q 574 1319 464 1319 q 691 1295 649 1319 q 733 1228 733 1271 q 718 1177 733 1196 q 682 1146 703 1158 q 645 1119 661 1133 q 629 1081 629 1104 l 629 1063 l 488 1063 z "},"Ơ":{"ha":1121,"x_min":64,"x_max":1058,"o":"m 561 -15 q 301 48 413 -15 q 126 225 189 111 q 64 490 64 339 q 126 756 64 643 q 300 932 188 869 q 561 994 413 994 q 822 932 710 994 q 996 756 933 869 q 1058 490 1058 643 q 996 225 1058 339 q 822 48 933 111 q 561 -15 710 -15 m 561 199 q 731 276 669 199 q 793 490 793 353 q 732 704 793 628 q 561 781 671 781 q 390 704 451 781 q 329 490 329 628 q 390 276 329 353 q 561 199 451 199 m 694 867 l 643 985 q 685 981 665 983 q 721 979 706 979 q 786 989 760 979 q 826 1028 813 999 q 839 1114 839 1057 l 839 1151 l 1050 1151 l 1050 1085 q 1024 979 1050 1029 q 954 898 999 929 q 854 867 910 867 l 694 867 z "},"Ớ":{"ha":1121,"x_min":64,"x_max":1058,"o":"m 561 -15 q 301 48 413 -15 q 126 225 189 111 q 64 490 64 339 q 126 756 64 643 q 300 932 188 869 q 561 994 413 994 q 822 932 710 994 q 996 756 933 869 q 1058 490 1058 643 q 996 225 1058 339 q 822 48 933 111 q 561 -15 710 -15 m 561 199 q 731 276 669 199 q 793 490 793 353 q 732 704 793 628 q 561 781 671 781 q 390 704 451 781 q 329 490 329 628 q 390 276 329 353 q 561 199 451 199 m 694 867 l 643 985 q 685 981 665 983 q 721 979 706 979 q 786 989 760 979 q 826 1028 813 999 q 839 1114 839 1057 l 839 1151 l 1050 1151 l 1050 1085 q 1024 979 1050 1029 q 954 898 999 929 q 854 867 910 867 l 694 867 m 468 1063 l 632 1307 l 879 1307 l 638 1063 l 468 1063 z "},"Ợ":{"ha":1121,"x_min":64,"x_max":1058,"o":"m 561 -15 q 301 48 413 -15 q 126 225 189 111 q 64 490 64 339 q 126 756 64 643 q 300 932 188 869 q 561 994 413 994 q 822 932 710 994 q 996 756 933 869 q 1058 490 1058 643 q 996 225 1058 339 q 822 48 933 111 q 561 -15 710 -15 m 561 199 q 731 276 669 199 q 793 490 793 353 q 732 704 793 628 q 561 781 671 781 q 390 704 451 781 q 329 490 329 628 q 390 276 329 353 q 561 199 451 199 m 694 867 l 643 985 q 685 981 665 983 q 721 979 706 979 q 786 989 760 979 q 826 1028 813 999 q 839 1114 839 1057 l 839 1151 l 1050 1151 l 1050 1085 q 1024 979 1050 1029 q 954 898 999 929 q 854 867 910 867 l 694 867 m 443 -311 l 443 -104 l 665 -104 l 665 -311 l 443 -311 z "},"Ờ":{"ha":1121,"x_min":64,"x_max":1058,"o":"m 561 -15 q 301 48 413 -15 q 126 225 189 111 q 64 490 64 339 q 126 756 64 643 q 300 932 188 869 q 561 994 413 994 q 822 932 710 994 q 996 756 933 869 q 1058 490 1058 643 q 996 225 1058 339 q 822 48 933 111 q 561 -15 710 -15 m 561 199 q 731 276 669 199 q 793 490 793 353 q 732 704 793 628 q 561 781 671 781 q 390 704 451 781 q 329 490 329 628 q 390 276 329 353 q 561 199 451 199 m 694 867 l 643 985 q 685 981 665 983 q 721 979 706 979 q 786 989 760 979 q 826 1028 813 999 q 839 1114 839 1057 l 839 1151 l 1050 1151 l 1050 1085 q 1024 979 1050 1029 q 954 898 999 929 q 854 867 910 867 l 694 867 m 468 1063 l 226 1307 l 474 1307 l 638 1063 l 468 1063 z "},"Ở":{"ha":1121,"x_min":64,"x_max":1058,"o":"m 561 -15 q 301 48 413 -15 q 126 225 189 111 q 64 490 64 339 q 126 756 64 643 q 300 932 188 869 q 561 994 413 994 q 822 932 710 994 q 996 756 933 869 q 1058 490 1058 643 q 996 225 1058 339 q 822 48 933 111 q 561 -15 710 -15 m 561 199 q 731 276 669 199 q 793 490 793 353 q 732 704 793 628 q 561 781 671 781 q 390 704 451 781 q 329 490 329 628 q 390 276 329 353 q 561 199 451 199 m 694 867 l 643 985 q 685 981 665 983 q 721 979 706 979 q 786 989 760 979 q 826 1028 813 999 q 839 1114 839 1057 l 839 1151 l 1050 1151 l 1050 1085 q 1024 979 1050 1029 q 954 898 999 929 q 854 867 910 867 l 694 867 m 482 1063 l 482 1090 q 499 1134 482 1118 q 533 1162 515 1150 q 550 1189 550 1174 q 504 1213 550 1213 q 463 1208 482 1213 q 425 1196 444 1204 l 389 1289 q 568 1319 458 1319 q 685 1295 643 1319 q 728 1228 728 1271 q 713 1177 728 1196 q 676 1146 697 1158 q 640 1119 656 1133 q 624 1081 624 1104 l 624 1063 l 482 1063 z "},"Ỡ":{"ha":1121,"x_min":64,"x_max":1058,"o":"m 561 -15 q 301 48 413 -15 q 126 225 189 111 q 64 490 64 339 q 126 756 64 643 q 300 932 188 869 q 561 994 413 994 q 822 932 710 994 q 996 756 933 869 q 1058 490 1058 643 q 996 225 1058 339 q 822 48 933 111 q 561 -15 710 -15 m 561 199 q 731 276 669 199 q 793 490 793 353 q 732 704 793 628 q 561 781 671 781 q 390 704 451 781 q 329 490 329 628 q 390 276 329 353 q 561 199 451 199 m 694 867 l 643 985 q 685 981 665 983 q 721 979 706 979 q 786 989 760 979 q 826 1028 813 999 q 839 1114 839 1057 l 839 1151 l 1050 1151 l 1050 1085 q 1024 979 1050 1029 q 954 898 999 929 q 854 867 910 867 l 694 867 m 346 1054 l 233 1063 q 292 1232 239 1172 q 424 1292 346 1292 q 487 1280 458 1292 q 544 1250 515 1268 q 590 1225 571 1233 q 629 1217 610 1217 q 714 1299 699 1217 l 826 1292 q 768 1122 821 1181 q 636 1063 715 1063 q 574 1074 603 1063 q 513 1106 544 1086 q 431 1136 464 1136 q 346 1054 361 1136 z "},"Ő":{"ha":1121,"x_min":64,"x_max":1058,"o":"m 561 -15 q 301 48 413 -15 q 126 225 189 111 q 64 490 64 339 q 126 756 64 643 q 300 932 188 869 q 561 994 413 994 q 822 932 710 994 q 996 756 933 869 q 1058 490 1058 643 q 996 225 1058 339 q 822 48 933 111 q 561 -15 710 -15 m 561 199 q 731 276 669 199 q 793 490 793 353 q 732 704 793 628 q 561 781 671 781 q 390 704 451 781 q 329 490 329 628 q 390 276 329 353 q 561 199 451 199 m 372 1063 l 489 1307 l 697 1307 l 508 1063 l 372 1063 m 608 1063 l 749 1307 l 957 1307 l 746 1063 l 608 1063 z "},"Ȏ":{"ha":1121,"x_min":64,"x_max":1058,"o":"m 561 -15 q 301 48 413 -15 q 126 225 189 111 q 64 490 64 339 q 126 756 64 643 q 300 932 188 869 q 561 994 413 994 q 822 932 710 994 q 996 756 933 869 q 1058 490 1058 643 q 996 225 1058 339 q 822 48 933 111 q 561 -15 710 -15 m 561 199 q 731 276 669 199 q 793 490 793 353 q 732 704 793 628 q 561 781 671 781 q 390 704 451 781 q 329 490 329 628 q 390 276 329 353 q 561 199 451 199 m 415 1056 l 282 1072 q 364 1247 289 1182 q 558 1311 439 1311 q 753 1247 679 1311 q 835 1072 828 1182 l 703 1056 q 658 1142 696 1111 q 557 1174 619 1174 q 458 1142 494 1174 q 415 1056 421 1111 z "},"Ō":{"ha":1121,"x_min":64,"x_max":1058,"o":"m 561 -15 q 301 48 413 -15 q 126 225 189 111 q 64 490 64 339 q 126 756 64 643 q 300 932 188 869 q 561 994 413 994 q 822 932 710 994 q 996 756 933 869 q 1058 490 1058 643 q 996 225 1058 339 q 822 48 933 111 q 561 -15 710 -15 m 561 199 q 731 276 669 199 q 793 490 793 353 q 732 704 793 628 q 561 781 671 781 q 390 704 451 781 q 329 490 329 628 q 390 276 329 353 q 561 199 451 199 m 304 1106 l 304 1240 l 814 1240 l 814 1106 l 304 1106 z "},"Ṓ":{"ha":1121,"x_min":64,"x_max":1058,"o":"m 561 -15 q 301 48 413 -15 q 126 225 189 111 q 64 490 64 339 q 126 756 64 643 q 300 932 188 869 q 561 994 413 994 q 822 932 710 994 q 996 756 933 869 q 1058 490 1058 643 q 996 225 1058 339 q 822 48 933 111 q 561 -15 710 -15 m 561 199 q 731 276 669 199 q 793 490 793 353 q 732 704 793 628 q 561 781 671 781 q 390 704 451 781 q 329 490 329 628 q 390 276 329 353 q 561 199 451 199 m 486 1261 l 565 1429 l 789 1429 l 631 1261 l 486 1261 m 325 1075 l 325 1210 l 793 1210 l 793 1075 l 325 1075 z "},"Ṑ":{"ha":1121,"x_min":64,"x_max":1058,"o":"m 561 -15 q 301 48 413 -15 q 126 225 189 111 q 64 490 64 339 q 126 756 64 643 q 300 932 188 869 q 561 994 413 994 q 822 932 710 994 q 996 756 933 869 q 1058 490 1058 643 q 996 225 1058 339 q 822 48 933 111 q 561 -15 710 -15 m 561 199 q 731 276 669 199 q 793 490 793 353 q 732 704 793 628 q 561 781 671 781 q 390 704 451 781 q 329 490 329 628 q 390 276 329 353 q 561 199 451 199 m 486 1261 l 328 1429 l 551 1429 l 631 1261 l 486 1261 m 325 1075 l 325 1210 l 793 1210 l 793 1075 l 325 1075 z "},"Ǫ":{"ha":1121,"x_min":64,"x_max":1058,"o":"m 561 -15 q 301 48 413 -15 q 126 225 189 111 q 64 490 64 339 q 126 756 64 643 q 300 932 188 869 q 561 994 413 994 q 822 932 710 994 q 996 756 933 869 q 1058 490 1058 643 q 996 225 1058 339 q 822 48 933 111 q 561 -15 710 -15 m 561 199 q 731 276 669 199 q 793 490 793 353 q 732 704 793 628 q 561 781 671 781 q 390 704 451 781 q 329 490 329 628 q 390 276 329 353 q 561 199 451 199 m 613 -275 q 475 -233 524 -275 q 426 -121 426 -192 q 469 -8 426 -58 q 579 67 511 43 l 646 0 q 590 -40 608 -14 q 572 -92 572 -65 q 593 -137 572 -121 q 646 -154 614 -154 q 685 -151 668 -154 q 724 -140 703 -147 l 746 -251 q 680 -270 710 -265 q 613 -275 650 -275 z "},"Ø":{"ha":1121,"x_min":64,"x_max":1058,"o":"m 561 -15 q 301 48 413 -15 q 126 225 189 111 q 64 490 64 339 q 126 756 64 643 q 300 932 188 869 q 561 994 413 994 q 822 932 710 994 q 996 756 933 869 q 1058 490 1058 643 q 996 225 1058 339 q 822 48 933 111 q 561 -15 710 -15 m 561 199 q 731 276 669 199 q 793 490 793 353 q 732 704 793 628 q 561 781 671 781 q 390 704 451 781 q 329 490 329 628 q 390 276 329 353 q 561 199 451 199 m 322 -104 l 161 -10 l 265 168 l 344 274 l 656 808 l 694 907 l 797 1083 l 958 989 l 854 811 l 775 706 l 464 172 l 425 72 l 322 -104 z "},"Ǿ":{"ha":1121,"x_min":64,"x_max":1058,"o":"m 561 -15 q 301 48 413 -15 q 126 225 189 111 q 64 490 64 339 q 126 756 64 643 q 300 932 188 869 q 561 994 413 994 q 822 932 710 994 q 996 756 933 869 q 1058 490 1058 643 q 996 225 1058 339 q 822 48 933 111 q 561 -15 710 -15 m 561 199 q 731 276 669 199 q 793 490 793 353 q 732 704 793 628 q 561 781 671 781 q 390 704 451 781 q 329 490 329 628 q 390 276 329 353 q 561 199 451 199 m 322 -104 l 161 -10 l 265 168 l 344 274 l 656 808 l 694 907 l 797 1083 l 958 989 l 854 811 l 775 706 l 464 172 l 425 72 l 322 -104 m 474 1063 l 638 1307 l 885 1307 l 643 1063 l 474 1063 z "},"Õ":{"ha":1121,"x_min":64,"x_max":1058,"o":"m 561 -15 q 301 48 413 -15 q 126 225 189 111 q 64 490 64 339 q 126 756 64 643 q 300 932 188 869 q 561 994 413 994 q 822 932 710 994 q 996 756 933 869 q 1058 490 1058 643 q 996 225 1058 339 q 822 48 933 111 q 561 -15 710 -15 m 561 199 q 731 276 669 199 q 793 490 793 353 q 732 704 793 628 q 561 781 671 781 q 390 704 451 781 q 329 490 329 628 q 390 276 329 353 q 561 199 451 199 m 338 1054 l 225 1063 q 290 1232 232 1172 q 435 1292 347 1292 q 502 1281 468 1292 q 581 1250 536 1271 q 644 1224 619 1231 q 686 1217 668 1217 q 779 1299 763 1217 l 892 1292 q 827 1122 885 1181 q 682 1063 769 1063 q 612 1073 646 1063 q 533 1104 578 1083 q 474 1129 496 1122 q 431 1136 451 1136 q 338 1054 354 1136 z "},"Ṍ":{"ha":1121,"x_min":64,"x_max":1058,"o":"m 561 -15 q 301 48 413 -15 q 126 225 189 111 q 64 490 64 339 q 126 756 64 643 q 300 932 188 869 q 561 994 413 994 q 822 932 710 994 q 996 756 933 869 q 1058 490 1058 643 q 996 225 1058 339 q 822 48 933 111 q 561 -15 710 -15 m 561 199 q 731 276 669 199 q 793 490 793 353 q 732 704 793 628 q 561 781 671 781 q 390 704 451 781 q 329 490 329 628 q 390 276 329 353 q 561 199 451 199 m 486 1261 l 565 1429 l 789 1429 l 631 1261 l 486 1261 m 653 1064 q 599 1072 626 1064 q 543 1092 572 1079 q 501 1107 517 1103 q 472 1111 485 1111 q 423 1099 440 1111 q 399 1064 406 1088 l 296 1069 q 348 1189 301 1149 q 464 1229 394 1229 q 572 1203 507 1229 q 644 1183 619 1183 q 718 1231 706 1183 l 821 1224 q 769 1104 815 1144 q 653 1064 722 1064 z "},"Ṏ":{"ha":1121,"x_min":64,"x_max":1058,"o":"m 561 -15 q 301 48 413 -15 q 126 225 189 111 q 64 490 64 339 q 126 756 64 643 q 300 932 188 869 q 561 994 413 994 q 822 932 710 994 q 996 756 933 869 q 1058 490 1058 643 q 996 225 1058 339 q 822 48 933 111 q 561 -15 710 -15 m 561 199 q 731 276 669 199 q 793 490 793 353 q 732 704 793 628 q 561 781 671 781 q 390 704 451 781 q 329 490 329 628 q 390 276 329 353 q 561 199 451 199 m 311 1271 l 311 1417 l 519 1417 l 519 1271 l 311 1271 m 597 1271 l 597 1417 l 806 1417 l 806 1271 l 597 1271 m 653 1064 q 599 1072 626 1064 q 543 1092 572 1079 q 501 1107 517 1103 q 472 1111 485 1111 q 423 1099 440 1111 q 399 1064 406 1088 l 296 1069 q 348 1189 301 1149 q 464 1229 394 1229 q 572 1203 507 1229 q 644 1183 619 1183 q 718 1231 706 1183 l 821 1224 q 769 1104 815 1144 q 653 1064 722 1064 z "},"Ȭ":{"ha":1121,"x_min":64,"x_max":1058,"o":"m 561 -15 q 301 48 413 -15 q 126 225 189 111 q 64 490 64 339 q 126 756 64 643 q 300 932 188 869 q 561 994 413 994 q 822 932 710 994 q 996 756 933 869 q 1058 490 1058 643 q 996 225 1058 339 q 822 48 933 111 q 561 -15 710 -15 m 561 199 q 731 276 669 199 q 793 490 793 353 q 732 704 793 628 q 561 781 671 781 q 390 704 451 781 q 329 490 329 628 q 390 276 329 353 q 561 199 451 199 m 324 1281 l 324 1415 l 793 1415 l 793 1281 l 324 1281 m 653 1064 q 599 1072 626 1064 q 543 1092 572 1079 q 501 1107 517 1103 q 472 1111 485 1111 q 423 1099 440 1111 q 399 1064 406 1088 l 296 1069 q 348 1189 301 1149 q 464 1229 394 1229 q 572 1203 507 1229 q 644 1183 619 1183 q 718 1231 706 1183 l 821 1224 q 769 1104 815 1144 q 653 1064 722 1064 z "},"Œ":{"ha":1482,"x_min":64,"x_max":1410,"o":"m 599 0 q 203 128 343 0 q 64 490 64 257 q 203 851 64 724 q 599 979 343 979 l 1410 979 l 1410 782 l 963 782 l 963 596 l 1379 596 l 1379 399 l 963 399 l 963 197 l 1410 197 l 1410 0 l 599 0 m 614 207 l 718 207 l 718 772 l 614 772 q 399 703 469 772 q 329 490 329 633 q 614 207 329 207 z "},"P":{"ha":939,"x_min":89,"x_max":908,"o":"m 89 0 l 89 979 l 560 979 q 817 894 726 979 q 908 658 908 808 q 817 423 908 508 q 560 338 726 338 l 344 338 l 344 0 l 89 0 m 344 533 l 515 533 q 665 658 665 533 q 515 783 665 783 l 344 783 l 344 533 z "},"Þ":{"ha":943,"x_min":89,"x_max":913,"o":"m 89 0 l 89 979 l 344 979 l 344 831 l 565 831 q 822 746 731 831 q 913 511 913 661 q 822 275 913 361 q 565 189 731 189 l 344 189 l 344 0 l 89 0 m 344 386 l 519 386 q 669 511 669 386 q 519 635 669 635 l 344 635 l 344 386 z "},"Q":{"ha":1121,"x_min":64,"x_max":1058,"o":"m 822 -317 l 665 -62 q 560 -15 635 -15 l 560 -15 q 299 48 411 -15 q 126 225 188 111 q 64 490 64 339 q 126 756 64 643 q 300 932 188 869 q 561 994 413 994 q 822 932 710 994 q 996 756 933 869 q 1058 490 1058 643 q 995 223 1058 338 q 819 47 932 108 q 929 -42 888 28 l 1040 -218 l 822 -317 m 561 199 q 731 276 669 199 q 793 490 793 353 q 732 704 793 628 q 561 781 671 781 q 390 704 451 781 q 329 490 329 628 q 390 276 329 353 q 561 199 451 199 z "},"R":{"ha":981,"x_min":89,"x_max":972,"o":"m 89 0 l 89 979 l 560 979 q 817 898 726 979 q 908 672 908 817 q 853 488 908 563 q 694 385 799 414 q 819 278 772 364 l 972 0 l 692 0 l 522 311 q 480 353 506 340 q 421 365 454 365 l 344 365 l 344 0 l 89 0 m 344 546 l 514 546 q 665 665 665 546 q 514 783 665 783 l 344 783 l 344 546 z "},"Ŕ":{"ha":981,"x_min":89,"x_max":972,"o":"m 89 0 l 89 979 l 560 979 q 817 898 726 979 q 908 672 908 817 q 853 488 908 563 q 694 385 799 414 q 819 278 772 364 l 972 0 l 692 0 l 522 311 q 480 353 506 340 q 421 365 454 365 l 344 365 l 344 0 l 89 0 m 344 546 l 514 546 q 665 665 665 546 q 514 783 665 783 l 344 783 l 344 546 m 411 1063 l 575 1307 l 822 1307 l 581 1063 l 411 1063 z "},"Ř":{"ha":981,"x_min":89,"x_max":972,"o":"m 89 0 l 89 979 l 560 979 q 817 898 726 979 q 908 672 908 817 q 853 488 908 563 q 694 385 799 414 q 819 278 772 364 l 972 0 l 692 0 l 522 311 q 480 353 506 340 q 421 365 454 365 l 344 365 l 344 0 l 89 0 m 344 546 l 514 546 q 665 665 665 546 q 514 783 665 783 l 344 783 l 344 546 m 394 1063 l 219 1307 l 386 1307 l 496 1188 l 606 1307 l 772 1307 l 597 1063 l 394 1063 z "},"Ŗ":{"ha":981,"x_min":89,"x_max":972,"o":"m 89 0 l 89 979 l 560 979 q 817 898 726 979 q 908 672 908 817 q 853 488 908 563 q 694 385 799 414 q 819 278 772 364 l 972 0 l 692 0 l 522 311 q 480 353 506 340 q 421 365 454 365 l 344 365 l 344 0 l 89 0 m 344 546 l 514 546 q 665 665 665 546 q 514 783 665 783 l 344 783 l 344 546 m 525 -403 l 442 -347 q 476 -307 464 -328 q 492 -264 488 -286 l 379 -264 l 379 -90 l 614 -90 l 614 -194 q 594 -310 614 -258 q 525 -403 575 -361 z "},"Ȑ":{"ha":981,"x_min":89,"x_max":972,"o":"m 89 0 l 89 979 l 560 979 q 817 898 726 979 q 908 672 908 817 q 853 488 908 563 q 694 385 799 414 q 819 278 772 364 l 972 0 l 692 0 l 522 311 q 480 353 506 340 q 421 365 454 365 l 344 365 l 344 0 l 89 0 m 344 546 l 514 546 q 665 665 665 546 q 514 783 665 783 l 344 783 l 344 546 m 546 1063 l 357 1307 l 565 1307 l 683 1063 l 546 1063 m 310 1063 l 97 1307 l 307 1307 l 446 1063 l 310 1063 z "},"Ṛ":{"ha":981,"x_min":89,"x_max":972,"o":"m 89 0 l 89 979 l 560 979 q 817 898 726 979 q 908 672 908 817 q 853 488 908 563 q 694 385 799 414 q 819 278 772 364 l 972 0 l 692 0 l 522 311 q 480 353 506 340 q 421 365 454 365 l 344 365 l 344 0 l 89 0 m 344 546 l 514 546 q 665 665 665 546 q 514 783 665 783 l 344 783 l 344 546 m 386 -311 l 386 -104 l 608 -104 l 608 -311 l 386 -311 z "},"Ȓ":{"ha":981,"x_min":89,"x_max":972,"o":"m 89 0 l 89 979 l 560 979 q 817 898 726 979 q 908 672 908 817 q 853 488 908 563 q 694 385 799 414 q 819 278 772 364 l 972 0 l 692 0 l 522 311 q 480 353 506 340 q 421 365 454 365 l 344 365 l 344 0 l 89 0 m 344 546 l 514 546 q 665 665 665 546 q 514 783 665 783 l 344 783 l 344 546 m 353 1056 l 219 1072 q 301 1247 226 1182 q 496 1311 376 1311 q 691 1247 617 1311 q 772 1072 765 1182 l 640 1056 q 595 1142 633 1111 q 494 1174 557 1174 q 395 1142 432 1174 q 353 1056 358 1111 z "},"Ṟ":{"ha":981,"x_min":89,"x_max":972,"o":"m 89 0 l 89 979 l 560 979 q 817 898 726 979 q 908 672 908 817 q 853 488 908 563 q 694 385 799 414 q 819 278 772 364 l 972 0 l 692 0 l 522 311 q 480 353 506 340 q 421 365 454 365 l 344 365 l 344 0 l 89 0 m 344 546 l 514 546 q 665 665 665 546 q 514 783 665 783 l 344 783 l 344 546 m 264 -243 l 264 -108 l 732 -108 l 732 -243 l 264 -243 z "},"S":{"ha":904,"x_min":58,"x_max":868,"o":"m 453 -15 q 232 13 338 -15 q 58 89 126 42 l 129 288 q 279 219 193 244 q 453 194 365 194 q 581 219 544 194 q 618 279 618 243 q 592 331 618 311 q 501 364 567 350 l 339 399 q 75 675 75 456 q 127 843 75 771 q 272 955 179 915 q 489 994 365 994 q 681 966 590 994 q 829 889 772 938 l 758 703 q 636 763 706 742 q 486 785 567 785 q 367 758 408 785 q 325 688 325 731 q 350 638 325 657 q 439 604 375 618 l 600 569 q 868 300 868 513 q 817 133 868 204 q 672 24 765 63 q 453 -15 579 -15 z "},"Ś":{"ha":904,"x_min":58,"x_max":868,"o":"m 453 -15 q 232 13 338 -15 q 58 89 126 42 l 129 288 q 279 219 193 244 q 453 194 365 194 q 581 219 544 194 q 618 279 618 243 q 592 331 618 311 q 501 364 567 350 l 339 399 q 75 675 75 456 q 127 843 75 771 q 272 955 179 915 q 489 994 365 994 q 681 966 590 994 q 829 889 772 938 l 758 703 q 636 763 706 742 q 486 785 567 785 q 367 758 408 785 q 325 688 325 731 q 350 638 325 657 q 439 604 375 618 l 600 569 q 868 300 868 513 q 817 133 868 204 q 672 24 765 63 q 453 -15 579 -15 m 385 1063 l 549 1307 l 796 1307 l 554 1063 l 385 1063 z "},"Ṥ":{"ha":904,"x_min":58,"x_max":868,"o":"m 453 -15 q 232 13 338 -15 q 58 89 126 42 l 129 288 q 279 219 193 244 q 453 194 365 194 q 581 219 544 194 q 618 279 618 243 q 592 331 618 311 q 501 364 567 350 l 339 399 q 75 675 75 456 q 127 843 75 771 q 272 955 179 915 q 489 994 365 994 q 681 966 590 994 q 829 889 772 938 l 758 703 q 636 763 706 742 q 486 785 567 785 q 367 758 408 785 q 325 688 325 731 q 350 638 325 657 q 439 604 375 618 l 600 569 q 868 300 868 513 q 817 133 868 204 q 672 24 765 63 q 453 -15 579 -15 m 263 1285 l 263 1431 l 469 1431 l 469 1285 l 263 1285 m 385 1063 l 549 1307 l 796 1307 l 554 1063 l 385 1063 z "},"Š":{"ha":904,"x_min":58,"x_max":868,"o":"m 453 -15 q 232 13 338 -15 q 58 89 126 42 l 129 288 q 279 219 193 244 q 453 194 365 194 q 581 219 544 194 q 618 279 618 243 q 592 331 618 311 q 501 364 567 350 l 339 399 q 75 675 75 456 q 127 843 75 771 q 272 955 179 915 q 489 994 365 994 q 681 966 590 994 q 829 889 772 938 l 758 703 q 636 763 706 742 q 486 785 567 785 q 367 758 408 785 q 325 688 325 731 q 350 638 325 657 q 439 604 375 618 l 600 569 q 868 300 868 513 q 817 133 868 204 q 672 24 765 63 q 453 -15 579 -15 m 368 1063 l 193 1307 l 360 1307 l 469 1188 l 579 1307 l 746 1307 l 571 1063 l 368 1063 z "},"Ṧ":{"ha":904,"x_min":58,"x_max":868,"o":"m 453 -15 q 232 13 338 -15 q 58 89 126 42 l 129 288 q 279 219 193 244 q 453 194 365 194 q 581 219 544 194 q 618 279 618 243 q 592 331 618 311 q 501 364 567 350 l 339 399 q 75 675 75 456 q 127 843 75 771 q 272 955 179 915 q 489 994 365 994 q 681 966 590 994 q 829 889 772 938 l 758 703 q 636 763 706 742 q 486 785 567 785 q 367 758 408 785 q 325 688 325 731 q 350 638 325 657 q 439 604 375 618 l 600 569 q 868 300 868 513 q 817 133 868 204 q 672 24 765 63 q 453 -15 579 -15 m 365 1326 l 365 1472 l 574 1472 l 574 1326 l 365 1326 m 367 1063 l 213 1282 l 363 1282 l 469 1185 l 576 1282 l 726 1282 l 572 1063 l 367 1063 z "},"Ş":{"ha":904,"x_min":58,"x_max":868,"o":"m 453 -15 q 232 13 338 -15 q 58 89 126 42 l 129 288 q 279 219 193 244 q 453 194 365 194 q 581 219 544 194 q 618 279 618 243 q 592 331 618 311 q 501 364 567 350 l 339 399 q 75 675 75 456 q 127 843 75 771 q 272 955 179 915 q 489 994 365 994 q 681 966 590 994 q 829 889 772 938 l 758 703 q 636 763 706 742 q 486 785 567 785 q 367 758 408 785 q 325 688 325 731 q 350 638 325 657 q 439 604 375 618 l 600 569 q 868 300 868 513 q 817 133 868 204 q 672 24 765 63 q 453 -15 579 -15 m 457 -275 q 368 -267 411 -275 q 293 -243 325 -260 l 326 -146 q 431 -169 379 -169 q 499 -140 499 -169 q 449 -115 499 -115 q 400 -121 426 -115 l 371 -92 l 388 28 l 506 28 l 494 -43 l 496 -43 q 597 -71 561 -43 q 633 -149 633 -99 q 584 -241 633 -207 q 457 -275 535 -275 z "},"Ŝ":{"ha":904,"x_min":58,"x_max":868,"o":"m 453 -15 q 232 13 338 -15 q 58 89 126 42 l 129 288 q 279 219 193 244 q 453 194 365 194 q 581 219 544 194 q 618 279 618 243 q 592 331 618 311 q 501 364 567 350 l 339 399 q 75 675 75 456 q 127 843 75 771 q 272 955 179 915 q 489 994 365 994 q 681 966 590 994 q 829 889 772 938 l 758 703 q 636 763 706 742 q 486 785 567 785 q 367 758 408 785 q 325 688 325 731 q 350 638 325 657 q 439 604 375 618 l 600 569 q 868 300 868 513 q 817 133 868 204 q 672 24 765 63 q 453 -15 579 -15 m 193 1063 l 368 1307 l 571 1307 l 746 1063 l 579 1063 l 469 1182 l 360 1063 l 193 1063 z "},"Ș":{"ha":904,"x_min":58,"x_max":868,"o":"m 453 -15 q 232 13 338 -15 q 58 89 126 42 l 129 288 q 279 219 193 244 q 453 194 365 194 q 581 219 544 194 q 618 279 618 243 q 592 331 618 311 q 501 364 567 350 l 339 399 q 75 675 75 456 q 127 843 75 771 q 272 955 179 915 q 489 994 365 994 q 681 966 590 994 q 829 889 772 938 l 758 703 q 636 763 706 742 q 486 785 567 785 q 367 758 408 785 q 325 688 325 731 q 350 638 325 657 q 439 604 375 618 l 600 569 q 868 300 868 513 q 817 133 868 204 q 672 24 765 63 q 453 -15 579 -15 m 488 -403 l 404 -347 q 438 -307 426 -328 q 454 -264 450 -286 l 342 -264 l 342 -90 l 576 -90 l 576 -194 q 557 -310 576 -258 q 488 -403 538 -361 z "},"Ṡ":{"ha":904,"x_min":58,"x_max":868,"o":"m 453 -15 q 232 13 338 -15 q 58 89 126 42 l 129 288 q 279 219 193 244 q 453 194 365 194 q 581 219 544 194 q 618 279 618 243 q 592 331 618 311 q 501 364 567 350 l 339 399 q 75 675 75 456 q 127 843 75 771 q 272 955 179 915 q 489 994 365 994 q 681 966 590 994 q 829 889 772 938 l 758 703 q 636 763 706 742 q 486 785 567 785 q 367 758 408 785 q 325 688 325 731 q 350 638 325 657 q 439 604 375 618 l 600 569 q 868 300 868 513 q 817 133 868 204 q 672 24 765 63 q 453 -15 579 -15 m 358 1081 l 358 1289 l 581 1289 l 581 1081 l 358 1081 z "},"Ṣ":{"ha":904,"x_min":58,"x_max":868,"o":"m 453 -15 q 232 13 338 -15 q 58 89 126 42 l 129 288 q 279 219 193 244 q 453 194 365 194 q 581 219 544 194 q 618 279 618 243 q 592 331 618 311 q 501 364 567 350 l 339 399 q 75 675 75 456 q 127 843 75 771 q 272 955 179 915 q 489 994 365 994 q 681 966 590 994 q 829 889 772 938 l 758 703 q 636 763 706 742 q 486 785 567 785 q 367 758 408 785 q 325 688 325 731 q 350 638 325 657 q 439 604 375 618 l 600 569 q 868 300 868 513 q 817 133 868 204 q 672 24 765 63 q 453 -15 579 -15 m 349 -311 l 349 -104 l 571 -104 l 571 -311 l 349 -311 z "},"Ṩ":{"ha":904,"x_min":58,"x_max":868,"o":"m 453 -15 q 232 13 338 -15 q 58 89 126 42 l 129 288 q 279 219 193 244 q 453 194 365 194 q 581 219 544 194 q 618 279 618 243 q 592 331 618 311 q 501 364 567 350 l 339 399 q 75 675 75 456 q 127 843 75 771 q 272 955 179 915 q 489 994 365 994 q 681 966 590 994 q 829 889 772 938 l 758 703 q 636 763 706 742 q 486 785 567 785 q 367 758 408 785 q 325 688 325 731 q 350 638 325 657 q 439 604 375 618 l 600 569 q 868 300 868 513 q 817 133 868 204 q 672 24 765 63 q 453 -15 579 -15 m 349 -311 l 349 -104 l 571 -104 l 571 -311 l 349 -311 m 358 1081 l 358 1289 l 581 1289 l 581 1081 l 358 1081 z "},"ẞ":{"ha":1044,"x_min":89,"x_max":988,"o":"m 661 -15 q 515 2 578 -15 q 393 58 451 19 l 461 238 q 547 196 507 208 q 632 183 586 183 q 715 212 685 183 q 746 288 746 240 q 707 367 746 340 q 583 393 668 393 l 467 393 l 467 586 l 563 586 q 660 613 626 586 q 694 689 694 639 q 540 793 694 793 q 344 607 344 793 l 344 0 l 89 0 l 89 607 q 209 896 89 797 q 557 994 329 994 q 835 922 732 994 q 938 725 938 849 q 810 511 938 579 q 940 424 892 489 q 988 269 988 360 q 901 60 988 136 q 661 -15 815 -15 z "},"Ə":{"ha":1121,"x_min":64,"x_max":1058,"o":"m 572 -15 q 293 51 407 -15 q 122 236 179 118 q 64 508 64 354 l 64 588 l 783 588 q 494 781 736 781 q 335 760 413 781 q 189 697 257 739 l 107 890 q 291 966 183 938 q 528 994 399 994 q 806 933 686 994 q 992 758 925 872 q 1058 488 1058 644 q 996 222 1058 336 q 824 47 933 108 q 572 -15 714 -15 m 560 189 q 710 239 653 189 q 786 392 768 289 l 331 392 q 560 189 364 189 z "},"T":{"ha":894,"x_min":8,"x_max":886,"o":"m 319 0 l 319 771 l 8 771 l 8 979 l 886 979 l 886 771 l 575 771 l 575 0 l 319 0 z "},"Ŧ":{"ha":894,"x_min":8,"x_max":886,"o":"m 319 0 l 319 771 l 8 771 l 8 979 l 886 979 l 886 771 l 575 771 l 575 0 l 319 0 m 133 404 l 133 585 l 758 585 l 758 404 l 133 404 z "},"Ť":{"ha":894,"x_min":8,"x_max":886,"o":"m 319 0 l 319 771 l 8 771 l 8 979 l 886 979 l 886 771 l 575 771 l 575 0 l 319 0 m 346 1063 l 171 1307 l 338 1307 l 447 1188 l 557 1307 l 724 1307 l 549 1063 l 346 1063 z "},"Ţ":{"ha":894,"x_min":8,"x_max":886,"o":"m 319 0 l 319 771 l 8 771 l 8 979 l 886 979 l 886 771 l 575 771 l 575 0 l 319 0 m 444 -275 q 356 -267 399 -275 q 281 -243 313 -260 l 314 -146 q 418 -169 367 -169 q 486 -140 486 -169 q 436 -115 486 -115 q 388 -121 414 -115 l 358 -92 l 375 28 l 493 28 l 482 -43 l 483 -43 q 585 -71 549 -43 q 621 -149 621 -99 q 572 -241 621 -207 q 444 -275 522 -275 z "},"Ț":{"ha":894,"x_min":8,"x_max":886,"o":"m 319 0 l 319 771 l 8 771 l 8 979 l 886 979 l 886 771 l 575 771 l 575 0 l 319 0 m 475 -403 l 392 -347 q 426 -307 414 -328 q 442 -264 438 -286 l 329 -264 l 329 -90 l 564 -90 l 564 -194 q 544 -310 564 -258 q 475 -403 525 -361 z "},"Ṭ":{"ha":894,"x_min":8,"x_max":886,"o":"m 319 0 l 319 771 l 8 771 l 8 979 l 886 979 l 886 771 l 575 771 l 575 0 l 319 0 m 336 -311 l 336 -104 l 558 -104 l 558 -311 l 336 -311 z "},"Ṯ":{"ha":894,"x_min":8,"x_max":886,"o":"m 319 0 l 319 771 l 8 771 l 8 979 l 886 979 l 886 771 l 575 771 l 575 0 l 319 0 m 214 -243 l 214 -108 l 682 -108 l 682 -243 l 214 -243 z "},"U":{"ha":1039,"x_min":82,"x_max":957,"o":"m 522 -15 q 195 93 308 -15 q 82 417 82 201 l 82 979 l 338 979 l 338 414 q 385 253 338 307 q 522 199 432 199 q 658 253 611 199 q 706 414 706 307 l 706 979 l 957 979 l 957 417 q 847 93 957 201 q 522 -15 736 -15 z "},"Ú":{"ha":1039,"x_min":82,"x_max":957,"o":"m 522 -15 q 195 93 308 -15 q 82 417 82 201 l 82 979 l 338 979 l 338 414 q 385 253 338 307 q 522 199 432 199 q 658 253 611 199 q 706 414 706 307 l 706 979 l 957 979 l 957 417 q 847 93 957 201 q 522 -15 736 -15 m 438 1063 l 601 1307 l 849 1307 l 607 1063 l 438 1063 z "},"Ŭ":{"ha":1039,"x_min":82,"x_max":957,"o":"m 522 -15 q 195 93 308 -15 q 82 417 82 201 l 82 979 l 338 979 l 338 414 q 385 253 338 307 q 522 199 432 199 q 658 253 611 199 q 706 414 706 307 l 706 979 l 957 979 l 957 417 q 847 93 957 201 q 522 -15 736 -15 m 522 1056 q 328 1120 403 1056 q 246 1294 253 1185 l 379 1311 q 422 1224 385 1256 q 521 1193 458 1193 q 622 1224 583 1193 q 667 1311 660 1256 l 799 1294 q 717 1120 792 1185 q 522 1056 643 1056 z "},"Û":{"ha":1039,"x_min":82,"x_max":957,"o":"m 522 -15 q 195 93 308 -15 q 82 417 82 201 l 82 979 l 338 979 l 338 414 q 385 253 338 307 q 522 199 432 199 q 658 253 611 199 q 706 414 706 307 l 706 979 l 957 979 l 957 417 q 847 93 957 201 q 522 -15 736 -15 m 246 1063 l 421 1307 l 624 1307 l 799 1063 l 632 1063 l 522 1182 l 413 1063 l 246 1063 z "},"Ȕ":{"ha":1039,"x_min":82,"x_max":957,"o":"m 522 -15 q 195 93 308 -15 q 82 417 82 201 l 82 979 l 338 979 l 338 414 q 385 253 338 307 q 522 199 432 199 q 658 253 611 199 q 706 414 706 307 l 706 979 l 957 979 l 957 417 q 847 93 957 201 q 522 -15 736 -15 m 572 1063 l 383 1307 l 592 1307 l 710 1063 l 572 1063 m 336 1063 l 124 1307 l 333 1307 l 472 1063 l 336 1063 z "},"Ü":{"ha":1039,"x_min":82,"x_max":957,"o":"m 522 -15 q 195 93 308 -15 q 82 417 82 201 l 82 979 l 338 979 l 338 414 q 385 253 338 307 q 522 199 432 199 q 658 253 611 199 q 706 414 706 307 l 706 979 l 957 979 l 957 417 q 847 93 957 201 q 522 -15 736 -15 m 561 1071 l 561 1278 l 769 1278 l 769 1071 l 561 1071 m 275 1071 l 275 1278 l 483 1278 l 483 1071 l 275 1071 z "},"Ụ":{"ha":1039,"x_min":82,"x_max":957,"o":"m 522 -15 q 195 93 308 -15 q 82 417 82 201 l 82 979 l 338 979 l 338 414 q 385 253 338 307 q 522 199 432 199 q 658 253 611 199 q 706 414 706 307 l 706 979 l 957 979 l 957 417 q 847 93 957 201 q 522 -15 736 -15 m 411 -311 l 411 -104 l 633 -104 l 633 -311 l 411 -311 z "},"Ù":{"ha":1039,"x_min":82,"x_max":957,"o":"m 522 -15 q 195 93 308 -15 q 82 417 82 201 l 82 979 l 338 979 l 338 414 q 385 253 338 307 q 522 199 432 199 q 658 253 611 199 q 706 414 706 307 l 706 979 l 957 979 l 957 417 q 847 93 957 201 q 522 -15 736 -15 m 438 1063 l 196 1307 l 443 1307 l 607 1063 l 438 1063 z "},"Ủ":{"ha":1039,"x_min":82,"x_max":957,"o":"m 522 -15 q 195 93 308 -15 q 82 417 82 201 l 82 979 l 338 979 l 338 414 q 385 253 338 307 q 522 199 432 199 q 658 253 611 199 q 706 414 706 307 l 706 979 l 957 979 l 957 417 q 847 93 957 201 q 522 -15 736 -15 m 451 1063 l 451 1090 q 468 1134 451 1118 q 502 1162 485 1150 q 519 1189 519 1174 q 474 1213 519 1213 q 433 1208 451 1213 q 394 1196 414 1204 l 358 1289 q 538 1319 428 1319 q 655 1295 613 1319 q 697 1228 697 1271 q 682 1177 697 1196 q 646 1146 667 1158 q 609 1119 625 1133 q 593 1081 593 1104 l 593 1063 l 451 1063 z "},"Ư":{"ha":1039,"x_min":82,"x_max":1110,"o":"m 522 -15 q 195 93 308 -15 q 82 417 82 201 l 82 979 l 338 979 l 338 414 q 385 253 338 307 q 522 199 432 199 q 658 253 611 199 q 706 414 706 307 l 706 979 l 957 979 l 957 417 q 847 93 957 201 q 522 -15 736 -15 m 931 867 l 782 958 l 782 979 q 845 989 819 979 q 885 1028 871 999 q 899 1114 899 1057 l 899 1151 l 1110 1151 l 1110 1085 q 1060 939 1110 1000 q 931 867 1010 878 z "},"Ứ":{"ha":1039,"x_min":82,"x_max":1110,"o":"m 522 -15 q 195 93 308 -15 q 82 417 82 201 l 82 979 l 338 979 l 338 414 q 385 253 338 307 q 522 199 432 199 q 658 253 611 199 q 706 414 706 307 l 706 979 l 957 979 l 957 417 q 847 93 957 201 q 522 -15 736 -15 m 931 867 l 782 958 l 782 979 q 845 989 819 979 q 885 1028 871 999 q 899 1114 899 1057 l 899 1151 l 1110 1151 l 1110 1085 q 1060 939 1110 1000 q 931 867 1010 878 m 438 1063 l 601 1307 l 849 1307 l 607 1063 l 438 1063 z "},"Ự":{"ha":1039,"x_min":82,"x_max":1110,"o":"m 522 -15 q 195 93 308 -15 q 82 417 82 201 l 82 979 l 338 979 l 338 414 q 385 253 338 307 q 522 199 432 199 q 658 253 611 199 q 706 414 706 307 l 706 979 l 957 979 l 957 417 q 847 93 957 201 q 522 -15 736 -15 m 931 867 l 782 958 l 782 979 q 845 989 819 979 q 885 1028 871 999 q 899 1114 899 1057 l 899 1151 l 1110 1151 l 1110 1085 q 1060 939 1110 1000 q 931 867 1010 878 m 411 -311 l 411 -104 l 633 -104 l 633 -311 l 411 -311 z "},"Ừ":{"ha":1039,"x_min":82,"x_max":1110,"o":"m 522 -15 q 195 93 308 -15 q 82 417 82 201 l 82 979 l 338 979 l 338 414 q 385 253 338 307 q 522 199 432 199 q 658 253 611 199 q 706 414 706 307 l 706 979 l 957 979 l 957 417 q 847 93 957 201 q 522 -15 736 -15 m 931 867 l 782 958 l 782 979 q 845 989 819 979 q 885 1028 871 999 q 899 1114 899 1057 l 899 1151 l 1110 1151 l 1110 1085 q 1060 939 1110 1000 q 931 867 1010 878 m 438 1063 l 196 1307 l 443 1307 l 607 1063 l 438 1063 z "},"Ử":{"ha":1039,"x_min":82,"x_max":1110,"o":"m 522 -15 q 195 93 308 -15 q 82 417 82 201 l 82 979 l 338 979 l 338 414 q 385 253 338 307 q 522 199 432 199 q 658 253 611 199 q 706 414 706 307 l 706 979 l 957 979 l 957 417 q 847 93 957 201 q 522 -15 736 -15 m 931 867 l 782 958 l 782 979 q 845 989 819 979 q 885 1028 871 999 q 899 1114 899 1057 l 899 1151 l 1110 1151 l 1110 1085 q 1060 939 1110 1000 q 931 867 1010 878 m 451 1063 l 451 1090 q 468 1134 451 1118 q 502 1162 485 1150 q 519 1189 519 1174 q 474 1213 519 1213 q 433 1208 451 1213 q 394 1196 414 1204 l 358 1289 q 538 1319 428 1319 q 655 1295 613 1319 q 697 1228 697 1271 q 682 1177 697 1196 q 646 1146 667 1158 q 609 1119 625 1133 q 593 1081 593 1104 l 593 1063 l 451 1063 z "},"Ữ":{"ha":1039,"x_min":82,"x_max":1110,"o":"m 522 -15 q 195 93 308 -15 q 82 417 82 201 l 82 979 l 338 979 l 338 414 q 385 253 338 307 q 522 199 432 199 q 658 253 611 199 q 706 414 706 307 l 706 979 l 957 979 l 957 417 q 847 93 957 201 q 522 -15 736 -15 m 931 867 l 782 958 l 782 979 q 845 989 819 979 q 885 1028 871 999 q 899 1114 899 1057 l 899 1151 l 1110 1151 l 1110 1085 q 1060 939 1110 1000 q 931 867 1010 878 m 315 1054 l 203 1063 q 262 1232 208 1172 q 393 1292 315 1292 q 456 1280 428 1292 q 514 1250 485 1268 q 560 1225 540 1233 q 599 1217 579 1217 q 683 1299 668 1217 l 796 1292 q 738 1122 790 1181 q 606 1063 685 1063 q 543 1074 572 1063 q 482 1106 514 1086 q 400 1136 433 1136 q 315 1054 331 1136 z "},"Ű":{"ha":1039,"x_min":82,"x_max":957,"o":"m 522 -15 q 195 93 308 -15 q 82 417 82 201 l 82 979 l 338 979 l 338 414 q 385 253 338 307 q 522 199 432 199 q 658 253 611 199 q 706 414 706 307 l 706 979 l 957 979 l 957 417 q 847 93 957 201 q 522 -15 736 -15 m 336 1063 l 453 1307 l 661 1307 l 472 1063 l 336 1063 m 572 1063 l 713 1307 l 921 1307 l 710 1063 l 572 1063 z "},"Ȗ":{"ha":1039,"x_min":82,"x_max":957,"o":"m 522 -15 q 195 93 308 -15 q 82 417 82 201 l 82 979 l 338 979 l 338 414 q 385 253 338 307 q 522 199 432 199 q 658 253 611 199 q 706 414 706 307 l 706 979 l 957 979 l 957 417 q 847 93 957 201 q 522 -15 736 -15 m 379 1056 l 246 1072 q 328 1247 253 1182 q 522 1311 403 1311 q 717 1247 643 1311 q 799 1072 792 1182 l 667 1056 q 622 1142 660 1111 q 521 1174 583 1174 q 422 1142 458 1174 q 379 1056 385 1111 z "},"Ū":{"ha":1039,"x_min":82,"x_max":957,"o":"m 522 -15 q 195 93 308 -15 q 82 417 82 201 l 82 979 l 338 979 l 338 414 q 385 253 338 307 q 522 199 432 199 q 658 253 611 199 q 706 414 706 307 l 706 979 l 957 979 l 957 417 q 847 93 957 201 q 522 -15 736 -15 m 268 1106 l 268 1240 l 778 1240 l 778 1106 l 268 1106 z "},"Ṻ":{"ha":1039,"x_min":82,"x_max":957,"o":"m 522 -15 q 195 93 308 -15 q 82 417 82 201 l 82 979 l 338 979 l 338 414 q 385 253 338 307 q 522 199 432 199 q 658 253 611 199 q 706 414 706 307 l 706 979 l 957 979 l 957 417 q 847 93 957 201 q 522 -15 736 -15 m 275 1269 l 275 1415 l 483 1415 l 483 1269 l 275 1269 m 561 1269 l 561 1415 l 769 1415 l 769 1269 l 561 1269 m 289 1078 l 289 1213 l 757 1213 l 757 1078 l 289 1078 z "},"Ų":{"ha":1039,"x_min":82,"x_max":957,"o":"m 522 -15 q 195 93 308 -15 q 82 417 82 201 l 82 979 l 338 979 l 338 414 q 385 253 338 307 q 522 199 432 199 q 658 253 611 199 q 706 414 706 307 l 706 979 l 957 979 l 957 417 q 847 93 957 201 q 522 -15 736 -15 m 568 -275 q 431 -233 479 -275 q 382 -121 382 -192 q 424 -8 382 -58 q 535 67 467 43 l 601 0 q 546 -40 564 -14 q 528 -92 528 -65 q 549 -137 528 -121 q 601 -154 569 -154 q 641 -151 624 -154 q 679 -140 658 -147 l 701 -251 q 635 -270 665 -265 q 568 -275 606 -275 z "},"Ů":{"ha":1039,"x_min":82,"x_max":957,"o":"m 522 -15 q 195 93 308 -15 q 82 417 82 201 l 82 979 l 338 979 l 338 414 q 385 253 338 307 q 522 199 432 199 q 658 253 611 199 q 706 414 706 307 l 706 979 l 957 979 l 957 417 q 847 93 957 201 q 522 -15 736 -15 m 522 1044 q 427 1068 469 1044 q 360 1133 385 1092 q 335 1225 335 1174 q 360 1318 335 1278 q 427 1383 385 1358 q 522 1407 469 1407 q 617 1383 575 1407 q 685 1318 660 1358 q 710 1225 710 1278 q 685 1133 710 1174 q 617 1068 660 1092 q 522 1044 575 1044 m 522 1146 q 578 1168 556 1146 q 601 1225 601 1190 q 578 1282 601 1260 q 522 1304 556 1304 q 466 1282 489 1304 q 443 1225 443 1260 q 466 1168 443 1190 q 522 1146 489 1146 z "},"Ũ":{"ha":1039,"x_min":82,"x_max":957,"o":"m 522 -15 q 195 93 308 -15 q 82 417 82 201 l 82 979 l 338 979 l 338 414 q 385 253 338 307 q 522 199 432 199 q 658 253 611 199 q 706 414 706 307 l 706 979 l 957 979 l 957 417 q 847 93 957 201 q 522 -15 736 -15 m 301 1054 l 189 1063 q 253 1232 196 1172 q 399 1292 311 1292 q 466 1281 432 1292 q 544 1250 500 1271 q 608 1224 583 1231 q 650 1217 632 1217 q 743 1299 726 1217 l 856 1292 q 791 1122 849 1181 q 646 1063 733 1063 q 576 1073 610 1063 q 497 1104 542 1083 q 438 1129 460 1122 q 394 1136 415 1136 q 301 1054 318 1136 z "},"Ṹ":{"ha":1039,"x_min":82,"x_max":957,"o":"m 522 -15 q 195 93 308 -15 q 82 417 82 201 l 82 979 l 338 979 l 338 414 q 385 253 338 307 q 522 199 432 199 q 658 253 611 199 q 706 414 706 307 l 706 979 l 957 979 l 957 417 q 847 93 957 201 q 522 -15 736 -15 m 450 1261 l 529 1429 l 753 1429 l 594 1261 l 450 1261 m 617 1064 q 563 1072 590 1064 q 507 1092 536 1079 q 465 1107 481 1103 q 436 1111 449 1111 q 387 1099 404 1111 q 363 1064 369 1088 l 260 1069 q 312 1189 265 1149 q 428 1229 358 1229 q 536 1203 471 1229 q 608 1183 583 1183 q 682 1231 669 1183 l 785 1224 q 733 1104 779 1144 q 617 1064 686 1064 z "},"V":{"ha":1031,"x_min":-32,"x_max":1064,"o":"m 414 0 l -32 979 l 240 979 l 521 328 l 801 979 l 1064 979 l 617 0 l 414 0 z "},"W":{"ha":1567,"x_min":15,"x_max":1553,"o":"m 367 0 l 15 979 l 276 979 l 481 365 l 701 979 l 882 979 l 1093 353 l 1307 979 l 1553 979 l 1199 0 l 994 0 l 785 589 l 571 0 l 367 0 z "},"Ẃ":{"ha":1567,"x_min":15,"x_max":1553,"o":"m 367 0 l 15 979 l 276 979 l 481 365 l 701 979 l 882 979 l 1093 353 l 1307 979 l 1553 979 l 1199 0 l 994 0 l 785 589 l 571 0 l 367 0 m 700 1063 l 864 1307 l 1111 1307 l 869 1063 l 700 1063 z "},"Ŵ":{"ha":1567,"x_min":15,"x_max":1553,"o":"m 367 0 l 15 979 l 276 979 l 481 365 l 701 979 l 882 979 l 1093 353 l 1307 979 l 1553 979 l 1199 0 l 994 0 l 785 589 l 571 0 l 367 0 m 508 1063 l 683 1307 l 886 1307 l 1061 1063 l 894 1063 l 785 1182 l 675 1063 l 508 1063 z "},"Ẅ":{"ha":1567,"x_min":15,"x_max":1553,"o":"m 367 0 l 15 979 l 276 979 l 481 365 l 701 979 l 882 979 l 1093 353 l 1307 979 l 1553 979 l 1199 0 l 994 0 l 785 589 l 571 0 l 367 0 m 824 1071 l 824 1278 l 1032 1278 l 1032 1071 l 824 1071 m 538 1071 l 538 1278 l 746 1278 l 746 1071 l 538 1071 z "},"Ẁ":{"ha":1567,"x_min":15,"x_max":1553,"o":"m 367 0 l 15 979 l 276 979 l 481 365 l 701 979 l 882 979 l 1093 353 l 1307 979 l 1553 979 l 1199 0 l 994 0 l 785 589 l 571 0 l 367 0 m 700 1063 l 458 1307 l 706 1307 l 869 1063 l 700 1063 z "},"X":{"ha":969,"x_min":-35,"x_max":1004,"o":"m -35 0 l 340 494 l -26 979 l 269 979 l 485 679 l 700 979 l 997 979 l 631 494 l 1004 0 l 707 0 l 485 308 l 263 0 l -35 0 z "},"Y":{"ha":896,"x_min":-57,"x_max":951,"o":"m 319 0 l 319 433 l -57 979 l 236 979 l 451 661 l 667 979 l 951 979 l 575 433 l 575 0 l 319 0 z "},"Ý":{"ha":896,"x_min":-57,"x_max":951,"o":"m 319 0 l 319 433 l -57 979 l 236 979 l 451 661 l 667 979 l 951 979 l 575 433 l 575 0 l 319 0 m 363 1063 l 526 1307 l 774 1307 l 532 1063 l 363 1063 z "},"Ŷ":{"ha":896,"x_min":-57,"x_max":951,"o":"m 319 0 l 319 433 l -57 979 l 236 979 l 451 661 l 667 979 l 951 979 l 575 433 l 575 0 l 319 0 m 171 1063 l 346 1307 l 549 1307 l 724 1063 l 557 1063 l 447 1182 l 338 1063 l 171 1063 z "},"Ÿ":{"ha":896,"x_min":-57,"x_max":951,"o":"m 319 0 l 319 433 l -57 979 l 236 979 l 451 661 l 667 979 l 951 979 l 575 433 l 575 0 l 319 0 m 486 1071 l 486 1278 l 694 1278 l 694 1071 l 486 1071 m 200 1071 l 200 1278 l 408 1278 l 408 1071 l 200 1071 z "},"Ẏ":{"ha":896,"x_min":-57,"x_max":951,"o":"m 319 0 l 319 433 l -57 979 l 236 979 l 451 661 l 667 979 l 951 979 l 575 433 l 575 0 l 319 0 m 336 1081 l 336 1289 l 558 1289 l 558 1081 l 336 1081 z "},"Ỵ":{"ha":896,"x_min":-57,"x_max":951,"o":"m 319 0 l 319 433 l -57 979 l 236 979 l 451 661 l 667 979 l 951 979 l 575 433 l 575 0 l 319 0 m 336 -311 l 336 -104 l 558 -104 l 558 -311 l 336 -311 z "},"Ỳ":{"ha":896,"x_min":-57,"x_max":951,"o":"m 319 0 l 319 433 l -57 979 l 236 979 l 451 661 l 667 979 l 951 979 l 575 433 l 575 0 l 319 0 m 363 1063 l 121 1307 l 368 1307 l 532 1063 l 363 1063 z "},"Ƴ":{"ha":932,"x_min":-57,"x_max":978,"o":"m 319 0 l 319 433 l -57 979 l 236 979 l 451 661 l 572 843 q 692 956 624 918 q 863 993 761 993 q 926 988 893 993 q 978 975 960 983 l 978 806 q 946 812 963 810 q 908 814 929 814 q 845 799 876 814 q 792 751 814 785 l 575 435 l 575 0 l 319 0 z "},"Ỷ":{"ha":896,"x_min":-57,"x_max":951,"o":"m 319 0 l 319 433 l -57 979 l 236 979 l 451 661 l 667 979 l 951 979 l 575 433 l 575 0 l 319 0 m 376 1063 l 376 1090 q 393 1134 376 1118 q 427 1162 410 1150 q 444 1189 444 1174 q 399 1213 444 1213 q 358 1208 376 1213 q 319 1196 339 1204 l 283 1289 q 463 1319 353 1319 q 580 1295 538 1319 q 622 1228 622 1271 q 607 1177 622 1196 q 571 1146 592 1158 q 534 1119 550 1133 q 518 1081 518 1104 l 518 1063 l 376 1063 z "},"Ȳ":{"ha":896,"x_min":-57,"x_max":951,"o":"m 319 0 l 319 433 l -57 979 l 236 979 l 451 661 l 667 979 l 951 979 l 575 433 l 575 0 l 319 0 m 193 1106 l 193 1240 l 703 1240 l 703 1106 l 193 1106 z "},"Ỹ":{"ha":896,"x_min":-57,"x_max":951,"o":"m 319 0 l 319 433 l -57 979 l 236 979 l 451 661 l 667 979 l 951 979 l 575 433 l 575 0 l 319 0 m 226 1054 l 114 1063 q 178 1232 121 1172 q 324 1292 236 1292 q 391 1281 357 1292 q 469 1250 425 1271 q 533 1224 508 1231 q 575 1217 557 1217 q 668 1299 651 1217 l 781 1292 q 716 1122 774 1181 q 571 1063 658 1063 q 501 1073 535 1063 q 422 1104 467 1083 q 363 1129 385 1122 q 319 1136 340 1136 q 226 1054 243 1136 z "},"Z":{"ha":868,"x_min":63,"x_max":839,"o":"m 63 0 l 63 188 l 522 769 l 63 769 l 63 979 l 818 979 l 818 792 l 358 210 l 839 210 l 839 0 l 63 0 z "},"Ź":{"ha":868,"x_min":63,"x_max":839,"o":"m 63 0 l 63 188 l 522 769 l 63 769 l 63 979 l 818 979 l 818 792 l 358 210 l 839 210 l 839 0 l 63 0 m 361 1063 l 525 1307 l 772 1307 l 531 1063 l 361 1063 z "},"Ž":{"ha":868,"x_min":63,"x_max":839,"o":"m 63 0 l 63 188 l 522 769 l 63 769 l 63 979 l 818 979 l 818 792 l 358 210 l 839 210 l 839 0 l 63 0 m 344 1063 l 169 1307 l 336 1307 l 446 1188 l 556 1307 l 722 1307 l 547 1063 l 344 1063 z "},"Ż":{"ha":868,"x_min":63,"x_max":839,"o":"m 63 0 l 63 188 l 522 769 l 63 769 l 63 979 l 818 979 l 818 792 l 358 210 l 839 210 l 839 0 l 63 0 m 335 1081 l 335 1289 l 557 1289 l 557 1081 l 335 1081 z "},"Ẓ":{"ha":868,"x_min":63,"x_max":839,"o":"m 63 0 l 63 188 l 522 769 l 63 769 l 63 979 l 818 979 l 818 792 l 358 210 l 839 210 l 839 0 l 63 0 m 336 -311 l 336 -104 l 558 -104 l 558 -311 l 336 -311 z "},"a":{"ha":789,"x_min":42,"x_max":721,"o":"m 310 -15 q 170 14 231 -15 q 76 94 110 43 q 42 210 42 144 q 81 327 42 283 q 206 390 119 371 q 435 408 292 408 l 488 408 l 488 428 q 462 499 488 478 q 374 519 436 519 q 257 503 321 519 q 132 451 193 486 l 69 614 q 158 658 104 639 q 272 688 213 678 q 385 699 332 699 q 638 625 556 699 q 721 393 721 551 l 721 0 l 490 0 l 490 97 q 425 15 472 44 q 310 -15 378 -15 m 365 146 q 452 179 417 146 q 488 267 488 213 l 488 292 l 435 292 q 315 274 353 292 q 276 219 276 257 q 299 167 276 188 q 365 146 322 146 z "},"á":{"ha":789,"x_min":42,"x_max":721,"o":"m 310 -15 q 170 14 231 -15 q 76 94 110 43 q 42 210 42 144 q 81 327 42 283 q 206 390 119 371 q 435 408 292 408 l 488 408 l 488 428 q 462 499 488 478 q 374 519 436 519 q 257 503 321 519 q 132 451 193 486 l 69 614 q 158 658 104 639 q 272 688 213 678 q 385 699 332 699 q 638 625 556 699 q 721 393 721 551 l 721 0 l 490 0 l 490 97 q 425 15 472 44 q 310 -15 378 -15 m 365 146 q 452 179 417 146 q 488 267 488 213 l 488 292 l 435 292 q 315 274 353 292 q 276 219 276 257 q 299 167 276 188 q 365 146 322 146 m 321 774 l 461 1058 l 693 1058 l 479 774 l 321 774 z "},"ă":{"ha":789,"x_min":42,"x_max":721,"o":"m 310 -15 q 170 14 231 -15 q 76 94 110 43 q 42 210 42 144 q 81 327 42 283 q 206 390 119 371 q 435 408 292 408 l 488 408 l 488 428 q 462 499 488 478 q 374 519 436 519 q 257 503 321 519 q 132 451 193 486 l 69 614 q 158 658 104 639 q 272 688 213 678 q 385 699 332 699 q 638 625 556 699 q 721 393 721 551 l 721 0 l 490 0 l 490 97 q 425 15 472 44 q 310 -15 378 -15 m 365 146 q 452 179 417 146 q 488 267 488 213 l 488 292 l 435 292 q 315 274 353 292 q 276 219 276 257 q 299 167 276 188 q 365 146 322 146 m 400 768 q 220 842 289 768 q 150 1042 151 917 l 282 1054 q 318 946 288 983 q 400 908 349 908 q 482 946 451 908 q 518 1054 513 983 l 650 1042 q 580 842 649 917 q 400 768 511 768 z "},"ắ":{"ha":789,"x_min":42,"x_max":721,"o":"m 310 -15 q 170 14 231 -15 q 76 94 110 43 q 42 210 42 144 q 81 327 42 283 q 206 390 119 371 q 435 408 292 408 l 488 408 l 488 428 q 462 499 488 478 q 374 519 436 519 q 257 503 321 519 q 132 451 193 486 l 69 614 q 158 658 104 639 q 272 688 213 678 q 385 699 332 699 q 638 625 556 699 q 721 393 721 551 l 721 0 l 490 0 l 490 97 q 425 15 472 44 q 310 -15 378 -15 m 365 146 q 452 179 417 146 q 488 267 488 213 l 488 292 l 435 292 q 315 274 353 292 q 276 219 276 257 q 299 167 276 188 q 365 146 322 146 m 319 965 l 399 1133 l 622 1133 l 464 965 l 319 965 m 400 768 q 219 827 289 768 q 139 986 149 886 l 249 999 q 300 923 264 950 q 400 896 336 896 q 501 923 465 896 q 551 999 536 950 l 661 986 q 581 827 651 886 q 400 768 511 768 z "},"ặ":{"ha":789,"x_min":42,"x_max":721,"o":"m 310 -15 q 170 14 231 -15 q 76 94 110 43 q 42 210 42 144 q 81 327 42 283 q 206 390 119 371 q 435 408 292 408 l 488 408 l 488 428 q 462 499 488 478 q 374 519 436 519 q 257 503 321 519 q 132 451 193 486 l 69 614 q 158 658 104 639 q 272 688 213 678 q 385 699 332 699 q 638 625 556 699 q 721 393 721 551 l 721 0 l 490 0 l 490 97 q 425 15 472 44 q 310 -15 378 -15 m 365 146 q 452 179 417 146 q 488 267 488 213 l 488 292 l 435 292 q 315 274 353 292 q 276 219 276 257 q 299 167 276 188 q 365 146 322 146 m 282 -311 l 282 -104 l 504 -104 l 504 -311 l 282 -311 m 400 768 q 220 842 289 768 q 150 1042 151 917 l 282 1054 q 318 946 288 983 q 400 908 349 908 q 482 946 451 908 q 518 1054 513 983 l 650 1042 q 580 842 649 917 q 400 768 511 768 z "},"ằ":{"ha":789,"x_min":42,"x_max":721,"o":"m 310 -15 q 170 14 231 -15 q 76 94 110 43 q 42 210 42 144 q 81 327 42 283 q 206 390 119 371 q 435 408 292 408 l 488 408 l 488 428 q 462 499 488 478 q 374 519 436 519 q 257 503 321 519 q 132 451 193 486 l 69 614 q 158 658 104 639 q 272 688 213 678 q 385 699 332 699 q 638 625 556 699 q 721 393 721 551 l 721 0 l 490 0 l 490 97 q 425 15 472 44 q 310 -15 378 -15 m 365 146 q 452 179 417 146 q 488 267 488 213 l 488 292 l 435 292 q 315 274 353 292 q 276 219 276 257 q 299 167 276 188 q 365 146 322 146 m 336 965 l 178 1133 l 401 1133 l 481 965 l 336 965 m 400 768 q 219 827 289 768 q 139 986 149 886 l 249 999 q 300 923 264 950 q 400 896 336 896 q 501 923 465 896 q 551 999 536 950 l 661 986 q 581 827 651 886 q 400 768 511 768 z "},"ẳ":{"ha":789,"x_min":42,"x_max":721,"o":"m 310 -15 q 170 14 231 -15 q 76 94 110 43 q 42 210 42 144 q 81 327 42 283 q 206 390 119 371 q 435 408 292 408 l 488 408 l 488 428 q 462 499 488 478 q 374 519 436 519 q 257 503 321 519 q 132 451 193 486 l 69 614 q 158 658 104 639 q 272 688 213 678 q 385 699 332 699 q 638 625 556 699 q 721 393 721 551 l 721 0 l 490 0 l 490 97 q 425 15 472 44 q 310 -15 378 -15 m 365 146 q 452 179 417 146 q 488 267 488 213 l 488 292 l 435 292 q 315 274 353 292 q 276 219 276 257 q 299 167 276 188 q 365 146 322 146 m 338 965 q 351 1002 338 990 q 378 1023 364 1014 q 392 1047 392 1032 q 381 1061 392 1057 q 358 1065 371 1065 q 319 1062 338 1065 q 282 1050 300 1058 l 254 1131 q 319 1151 285 1144 q 410 1158 354 1158 q 510 1140 475 1158 q 546 1089 546 1121 q 533 1050 546 1065 q 505 1024 521 1035 q 476 999 489 1013 q 464 965 464 986 l 338 965 m 400 768 q 219 827 289 768 q 139 986 149 886 l 249 999 q 300 923 264 950 q 400 896 336 896 q 501 923 465 896 q 551 999 536 950 l 661 986 q 581 827 651 886 q 400 768 511 768 z "},"ẵ":{"ha":789,"x_min":42,"x_max":721,"o":"m 310 -15 q 170 14 231 -15 q 76 94 110 43 q 42 210 42 144 q 81 327 42 283 q 206 390 119 371 q 435 408 292 408 l 488 408 l 488 428 q 462 499 488 478 q 374 519 436 519 q 257 503 321 519 q 132 451 193 486 l 69 614 q 158 658 104 639 q 272 688 213 678 q 385 699 332 699 q 638 625 556 699 q 721 393 721 551 l 721 0 l 490 0 l 490 97 q 425 15 472 44 q 310 -15 378 -15 m 365 146 q 452 179 417 146 q 488 267 488 213 l 488 292 l 435 292 q 315 274 353 292 q 276 219 276 257 q 299 167 276 188 q 365 146 322 146 m 240 993 l 138 997 q 190 1118 143 1078 q 306 1158 236 1158 q 359 1151 333 1158 q 414 1132 385 1144 q 486 1111 465 1111 q 560 1158 547 1111 l 663 1153 q 610 1033 657 1074 q 494 993 564 993 q 439 1001 467 993 q 382 1021 411 1008 q 314 1040 339 1040 q 265 1028 282 1040 q 240 993 247 1017 m 400 768 q 229 812 300 768 q 139 931 158 856 l 249 965 q 301 914 265 932 q 400 896 338 896 q 499 914 463 896 q 551 965 535 932 l 661 931 q 572 813 642 857 q 400 768 501 768 z "},"ǎ":{"ha":789,"x_min":42,"x_max":721,"o":"m 310 -15 q 170 14 231 -15 q 76 94 110 43 q 42 210 42 144 q 81 327 42 283 q 206 390 119 371 q 435 408 292 408 l 488 408 l 488 428 q 462 499 488 478 q 374 519 436 519 q 257 503 321 519 q 132 451 193 486 l 69 614 q 158 658 104 639 q 272 688 213 678 q 385 699 332 699 q 638 625 556 699 q 721 393 721 551 l 721 0 l 490 0 l 490 97 q 425 15 472 44 q 310 -15 378 -15 m 365 146 q 452 179 417 146 q 488 267 488 213 l 488 292 l 435 292 q 315 274 353 292 q 276 219 276 257 q 299 167 276 188 q 365 146 322 146 m 297 774 l 143 1058 l 293 1058 l 400 901 l 507 1058 l 657 1058 l 503 774 l 297 774 z "},"â":{"ha":789,"x_min":42,"x_max":721,"o":"m 310 -15 q 170 14 231 -15 q 76 94 110 43 q 42 210 42 144 q 81 327 42 283 q 206 390 119 371 q 435 408 292 408 l 488 408 l 488 428 q 462 499 488 478 q 374 519 436 519 q 257 503 321 519 q 132 451 193 486 l 69 614 q 158 658 104 639 q 272 688 213 678 q 385 699 332 699 q 638 625 556 699 q 721 393 721 551 l 721 0 l 490 0 l 490 97 q 425 15 472 44 q 310 -15 378 -15 m 365 146 q 452 179 417 146 q 488 267 488 213 l 488 292 l 435 292 q 315 274 353 292 q 276 219 276 257 q 299 167 276 188 q 365 146 322 146 m 143 774 l 297 1058 l 503 1058 l 657 774 l 507 774 l 400 931 l 293 774 l 143 774 z "},"ấ":{"ha":789,"x_min":42,"x_max":878,"o":"m 310 -15 q 170 14 231 -15 q 76 94 110 43 q 42 210 42 144 q 81 327 42 283 q 206 390 119 371 q 435 408 292 408 l 488 408 l 488 428 q 462 499 488 478 q 374 519 436 519 q 257 503 321 519 q 132 451 193 486 l 69 614 q 158 658 104 639 q 272 688 213 678 q 385 699 332 699 q 638 625 556 699 q 721 393 721 551 l 721 0 l 490 0 l 490 97 q 425 15 472 44 q 310 -15 378 -15 m 365 146 q 452 179 417 146 q 488 267 488 213 l 488 292 l 435 292 q 315 274 353 292 q 276 219 276 257 q 299 167 276 188 q 365 146 322 146 m 575 925 l 689 1133 l 878 1133 l 706 925 l 575 925 m 143 774 l 297 1003 l 503 1003 l 657 774 l 507 774 l 400 881 l 293 774 l 143 774 z "},"ậ":{"ha":789,"x_min":42,"x_max":721,"o":"m 310 -15 q 170 14 231 -15 q 76 94 110 43 q 42 210 42 144 q 81 327 42 283 q 206 390 119 371 q 435 408 292 408 l 488 408 l 488 428 q 462 499 488 478 q 374 519 436 519 q 257 503 321 519 q 132 451 193 486 l 69 614 q 158 658 104 639 q 272 688 213 678 q 385 699 332 699 q 638 625 556 699 q 721 393 721 551 l 721 0 l 490 0 l 490 97 q 425 15 472 44 q 310 -15 378 -15 m 365 146 q 452 179 417 146 q 488 267 488 213 l 488 292 l 435 292 q 315 274 353 292 q 276 219 276 257 q 299 167 276 188 q 365 146 322 146 m 282 -311 l 282 -104 l 504 -104 l 504 -311 l 282 -311 m 143 774 l 297 1058 l 503 1058 l 657 774 l 507 774 l 400 931 l 293 774 l 143 774 z "},"ầ":{"ha":789,"x_min":42,"x_max":760,"o":"m 310 -15 q 170 14 231 -15 q 76 94 110 43 q 42 210 42 144 q 81 327 42 283 q 206 390 119 371 q 435 408 292 408 l 488 408 l 488 428 q 462 499 488 478 q 374 519 436 519 q 257 503 321 519 q 132 451 193 486 l 69 614 q 158 658 104 639 q 272 688 213 678 q 385 699 332 699 q 638 625 556 699 q 721 393 721 551 l 721 0 l 490 0 l 490 97 q 425 15 472 44 q 310 -15 378 -15 m 365 146 q 452 179 417 146 q 488 267 488 213 l 488 292 l 435 292 q 315 274 353 292 q 276 219 276 257 q 299 167 276 188 q 365 146 322 146 m 629 925 l 457 1133 l 647 1133 l 760 925 l 629 925 m 143 774 l 297 1003 l 503 1003 l 657 774 l 507 774 l 400 881 l 293 774 l 143 774 z "},"ẩ":{"ha":789,"x_min":42,"x_max":779,"o":"m 310 -15 q 170 14 231 -15 q 76 94 110 43 q 42 210 42 144 q 81 327 42 283 q 206 390 119 371 q 435 408 292 408 l 488 408 l 488 428 q 462 499 488 478 q 374 519 436 519 q 257 503 321 519 q 132 451 193 486 l 69 614 q 158 658 104 639 q 272 688 213 678 q 385 699 332 699 q 638 625 556 699 q 721 393 721 551 l 721 0 l 490 0 l 490 97 q 425 15 472 44 q 310 -15 378 -15 m 365 146 q 452 179 417 146 q 488 267 488 213 l 488 292 l 435 292 q 315 274 353 292 q 276 219 276 257 q 299 167 276 188 q 365 146 322 146 m 569 917 q 583 960 569 943 q 610 991 597 978 q 624 1019 624 1004 q 613 1033 624 1029 q 590 1038 603 1038 q 551 1034 571 1038 q 514 1022 532 1031 l 486 1103 q 552 1124 517 1117 q 642 1131 588 1131 q 743 1113 707 1131 q 779 1061 779 1094 q 767 1020 779 1038 q 738 988 754 1003 q 708 956 721 972 q 696 917 696 939 l 569 917 m 143 765 l 297 994 l 503 994 l 657 765 l 507 765 l 400 872 l 293 765 l 143 765 z "},"ẫ":{"ha":789,"x_min":42,"x_max":721,"o":"m 310 -15 q 170 14 231 -15 q 76 94 110 43 q 42 210 42 144 q 81 327 42 283 q 206 390 119 371 q 435 408 292 408 l 488 408 l 488 428 q 462 499 488 478 q 374 519 436 519 q 257 503 321 519 q 132 451 193 486 l 69 614 q 158 658 104 639 q 272 688 213 678 q 385 699 332 699 q 638 625 556 699 q 721 393 721 551 l 721 0 l 490 0 l 490 97 q 425 15 472 44 q 310 -15 378 -15 m 365 146 q 452 179 417 146 q 488 267 488 213 l 488 292 l 435 292 q 315 274 353 292 q 276 219 276 257 q 299 167 276 188 q 365 146 322 146 m 240 993 l 138 997 q 190 1118 143 1078 q 306 1158 236 1158 q 359 1151 333 1158 q 414 1132 385 1144 q 486 1111 465 1111 q 560 1158 547 1111 l 663 1153 q 610 1033 657 1074 q 494 993 564 993 q 439 1001 467 993 q 382 1021 411 1008 q 314 1040 339 1040 q 265 1028 282 1040 q 240 993 247 1017 m 143 774 l 297 961 l 503 961 l 657 774 l 513 774 l 400 851 l 288 774 l 143 774 z "},"ȁ":{"ha":789,"x_min":42,"x_max":721,"o":"m 310 -15 q 170 14 231 -15 q 76 94 110 43 q 42 210 42 144 q 81 327 42 283 q 206 390 119 371 q 435 408 292 408 l 488 408 l 488 428 q 462 499 488 478 q 374 519 436 519 q 257 503 321 519 q 132 451 193 486 l 69 614 q 158 658 104 639 q 272 688 213 678 q 385 699 332 699 q 638 625 556 699 q 721 393 721 551 l 721 0 l 490 0 l 490 97 q 425 15 472 44 q 310 -15 378 -15 m 365 146 q 452 179 417 146 q 488 267 488 213 l 488 292 l 435 292 q 315 274 353 292 q 276 219 276 257 q 299 167 276 188 q 365 146 322 146 m 461 774 l 331 1058 l 526 1058 l 588 774 l 461 774 m 221 774 l 89 1058 l 285 1058 l 347 774 l 221 774 z "},"ä":{"ha":789,"x_min":42,"x_max":721,"o":"m 310 -15 q 170 14 231 -15 q 76 94 110 43 q 42 210 42 144 q 81 327 42 283 q 206 390 119 371 q 435 408 292 408 l 488 408 l 488 428 q 462 499 488 478 q 374 519 436 519 q 257 503 321 519 q 132 451 193 486 l 69 614 q 158 658 104 639 q 272 688 213 678 q 385 699 332 699 q 638 625 556 699 q 721 393 721 551 l 721 0 l 490 0 l 490 97 q 425 15 472 44 q 310 -15 378 -15 m 365 146 q 452 179 417 146 q 488 267 488 213 l 488 292 l 435 292 q 315 274 353 292 q 276 219 276 257 q 299 167 276 188 q 365 146 322 146 m 439 808 l 439 1017 l 647 1017 l 647 808 l 439 808 m 153 808 l 153 1017 l 361 1017 l 361 808 l 153 808 z "},"ȧ":{"ha":789,"x_min":42,"x_max":721,"o":"m 310 -15 q 170 14 231 -15 q 76 94 110 43 q 42 210 42 144 q 81 327 42 283 q 206 390 119 371 q 435 408 292 408 l 488 408 l 488 428 q 462 499 488 478 q 374 519 436 519 q 257 503 321 519 q 132 451 193 486 l 69 614 q 158 658 104 639 q 272 688 213 678 q 385 699 332 699 q 638 625 556 699 q 721 393 721 551 l 721 0 l 490 0 l 490 97 q 425 15 472 44 q 310 -15 378 -15 m 365 146 q 452 179 417 146 q 488 267 488 213 l 488 292 l 435 292 q 315 274 353 292 q 276 219 276 257 q 299 167 276 188 q 365 146 322 146 m 289 810 l 289 1018 l 511 1018 l 511 810 l 289 810 z "},"ạ":{"ha":789,"x_min":42,"x_max":721,"o":"m 310 -15 q 170 14 231 -15 q 76 94 110 43 q 42 210 42 144 q 81 327 42 283 q 206 390 119 371 q 435 408 292 408 l 488 408 l 488 428 q 462 499 488 478 q 374 519 436 519 q 257 503 321 519 q 132 451 193 486 l 69 614 q 158 658 104 639 q 272 688 213 678 q 385 699 332 699 q 638 625 556 699 q 721 393 721 551 l 721 0 l 490 0 l 490 97 q 425 15 472 44 q 310 -15 378 -15 m 365 146 q 452 179 417 146 q 488 267 488 213 l 488 292 l 435 292 q 315 274 353 292 q 276 219 276 257 q 299 167 276 188 q 365 146 322 146 m 282 -311 l 282 -104 l 504 -104 l 504 -311 l 282 -311 z "},"à":{"ha":789,"x_min":42,"x_max":721,"o":"m 310 -15 q 170 14 231 -15 q 76 94 110 43 q 42 210 42 144 q 81 327 42 283 q 206 390 119 371 q 435 408 292 408 l 488 408 l 488 428 q 462 499 488 478 q 374 519 436 519 q 257 503 321 519 q 132 451 193 486 l 69 614 q 158 658 104 639 q 272 688 213 678 q 385 699 332 699 q 638 625 556 699 q 721 393 721 551 l 721 0 l 490 0 l 490 97 q 425 15 472 44 q 310 -15 378 -15 m 365 146 q 452 179 417 146 q 488 267 488 213 l 488 292 l 435 292 q 315 274 353 292 q 276 219 276 257 q 299 167 276 188 q 365 146 322 146 m 321 774 l 107 1058 l 339 1058 l 479 774 l 321 774 z "},"ả":{"ha":789,"x_min":42,"x_max":721,"o":"m 310 -15 q 170 14 231 -15 q 76 94 110 43 q 42 210 42 144 q 81 327 42 283 q 206 390 119 371 q 435 408 292 408 l 488 408 l 488 428 q 462 499 488 478 q 374 519 436 519 q 257 503 321 519 q 132 451 193 486 l 69 614 q 158 658 104 639 q 272 688 213 678 q 385 699 332 699 q 638 625 556 699 q 721 393 721 551 l 721 0 l 490 0 l 490 97 q 425 15 472 44 q 310 -15 378 -15 m 365 146 q 452 179 417 146 q 488 267 488 213 l 488 292 l 435 292 q 315 274 353 292 q 276 219 276 257 q 299 167 276 188 q 365 146 322 146 m 329 774 l 329 804 q 346 858 329 838 q 380 894 363 878 q 397 931 397 910 q 351 961 397 961 q 272 940 311 961 l 236 1035 q 411 1071 304 1071 q 532 1044 489 1071 q 575 967 575 1017 q 560 908 575 929 q 524 871 544 886 q 487 839 503 856 q 471 796 471 822 l 471 774 l 329 774 z "},"ȃ":{"ha":789,"x_min":42,"x_max":721,"o":"m 310 -15 q 170 14 231 -15 q 76 94 110 43 q 42 210 42 144 q 81 327 42 283 q 206 390 119 371 q 435 408 292 408 l 488 408 l 488 428 q 462 499 488 478 q 374 519 436 519 q 257 503 321 519 q 132 451 193 486 l 69 614 q 158 658 104 639 q 272 688 213 678 q 385 699 332 699 q 638 625 556 699 q 721 393 721 551 l 721 0 l 490 0 l 490 97 q 425 15 472 44 q 310 -15 378 -15 m 365 146 q 452 179 417 146 q 488 267 488 213 l 488 292 l 435 292 q 315 274 353 292 q 276 219 276 257 q 299 167 276 188 q 365 146 322 146 m 282 768 l 150 779 q 220 979 151 904 q 400 1054 289 1054 q 580 979 511 1054 q 650 779 649 904 l 518 768 q 482 875 513 838 q 400 913 451 913 q 318 875 349 913 q 282 768 288 838 z "},"ā":{"ha":789,"x_min":42,"x_max":721,"o":"m 310 -15 q 170 14 231 -15 q 76 94 110 43 q 42 210 42 144 q 81 327 42 283 q 206 390 119 371 q 435 408 292 408 l 488 408 l 488 428 q 462 499 488 478 q 374 519 436 519 q 257 503 321 519 q 132 451 193 486 l 69 614 q 158 658 104 639 q 272 688 213 678 q 385 699 332 699 q 638 625 556 699 q 721 393 721 551 l 721 0 l 490 0 l 490 97 q 425 15 472 44 q 310 -15 378 -15 m 365 146 q 452 179 417 146 q 488 267 488 213 l 488 292 l 435 292 q 315 274 353 292 q 276 219 276 257 q 299 167 276 188 q 365 146 322 146 m 167 840 l 167 975 l 635 975 l 635 840 l 167 840 z "},"ą":{"ha":789,"x_min":42,"x_max":740,"o":"m 310 -15 q 170 14 231 -15 q 76 94 110 43 q 42 210 42 144 q 81 327 42 283 q 206 390 119 371 q 435 408 292 408 l 488 408 l 488 428 q 462 499 488 478 q 374 519 436 519 q 257 503 321 519 q 132 451 193 486 l 69 614 q 158 658 104 639 q 272 688 213 678 q 385 699 332 699 q 638 625 556 699 q 721 393 721 551 l 721 0 l 490 0 l 490 97 q 425 15 472 44 q 310 -15 378 -15 m 365 146 q 452 179 417 146 q 488 267 488 213 l 488 292 l 435 292 q 315 274 353 292 q 276 219 276 257 q 299 167 276 188 q 365 146 322 146 m 607 -275 q 469 -233 518 -275 q 421 -121 421 -192 q 463 -8 421 -58 q 574 67 506 43 l 640 0 q 585 -40 603 -14 q 567 -92 567 -65 q 588 -137 567 -121 q 640 -154 608 -154 q 680 -151 663 -154 q 718 -140 697 -147 l 740 -251 q 674 -270 704 -265 q 607 -275 644 -275 z "},"å":{"ha":789,"x_min":42,"x_max":721,"o":"m 310 -15 q 170 14 231 -15 q 76 94 110 43 q 42 210 42 144 q 81 327 42 283 q 206 390 119 371 q 435 408 292 408 l 488 408 l 488 428 q 462 499 488 478 q 374 519 436 519 q 257 503 321 519 q 132 451 193 486 l 69 614 q 158 658 104 639 q 272 688 213 678 q 385 699 332 699 q 638 625 556 699 q 721 393 721 551 l 721 0 l 490 0 l 490 97 q 425 15 472 44 q 310 -15 378 -15 m 365 146 q 452 179 417 146 q 488 267 488 213 l 488 292 l 435 292 q 315 274 353 292 q 276 219 276 257 q 299 167 276 188 q 365 146 322 146 m 400 757 q 305 781 347 757 q 238 845 263 804 q 213 938 213 886 q 238 1030 213 989 q 305 1095 263 1071 q 400 1119 347 1119 q 495 1095 453 1119 q 563 1030 538 1071 q 588 938 588 989 q 563 845 588 886 q 495 781 538 804 q 400 757 453 757 m 400 858 q 456 881 433 858 q 479 938 479 903 q 456 994 479 972 q 400 1017 433 1017 q 344 994 367 1017 q 321 938 321 972 q 344 881 321 903 q 400 858 367 858 z "},"ǻ":{"ha":789,"x_min":42,"x_max":739,"o":"m 310 -15 q 170 14 231 -15 q 76 94 110 43 q 42 210 42 144 q 81 327 42 283 q 206 390 119 371 q 435 408 292 408 l 488 408 l 488 428 q 462 499 488 478 q 374 519 436 519 q 257 503 321 519 q 132 451 193 486 l 69 614 q 158 658 104 639 q 272 688 213 678 q 385 699 332 699 q 638 625 556 699 q 721 393 721 551 l 721 0 l 490 0 l 490 97 q 425 15 472 44 q 310 -15 378 -15 m 365 146 q 452 179 417 146 q 488 267 488 213 l 488 292 l 435 292 q 315 274 353 292 q 276 219 276 257 q 299 167 276 188 q 365 146 322 146 m 400 746 q 310 768 350 746 q 247 828 271 790 q 224 915 224 867 q 247 1001 224 963 q 310 1063 271 1040 q 400 1085 350 1085 q 444 1079 424 1085 q 485 1064 465 1074 l 565 1138 l 739 1138 l 561 985 q 576 915 576 951 q 553 828 576 867 q 490 768 529 790 q 400 746 450 746 m 400 836 q 456 858 433 836 q 479 915 479 881 q 456 972 479 950 q 400 993 433 993 q 344 972 367 993 q 321 915 321 950 q 344 858 321 881 q 400 836 367 836 z "},"ã":{"ha":789,"x_min":42,"x_max":721,"o":"m 310 -15 q 170 14 231 -15 q 76 94 110 43 q 42 210 42 144 q 81 327 42 283 q 206 390 119 371 q 435 408 292 408 l 488 408 l 488 428 q 462 499 488 478 q 374 519 436 519 q 257 503 321 519 q 132 451 193 486 l 69 614 q 158 658 104 639 q 272 688 213 678 q 385 699 332 699 q 638 625 556 699 q 721 393 721 551 l 721 0 l 490 0 l 490 97 q 425 15 472 44 q 310 -15 378 -15 m 365 146 q 452 179 417 146 q 488 267 488 213 l 488 292 l 435 292 q 315 274 353 292 q 276 219 276 257 q 299 167 276 188 q 365 146 322 146 m 221 801 l 107 808 q 165 978 114 918 q 296 1038 217 1038 q 354 1027 328 1038 q 413 997 381 1017 q 460 971 442 978 q 497 964 478 964 q 579 1046 565 964 l 693 1038 q 635 868 688 928 q 506 808 583 808 q 447 819 474 808 q 385 851 419 829 q 304 883 336 883 q 247 862 267 883 q 221 801 228 840 z "},"æ":{"ha":1208,"x_min":42,"x_max":1174,"o":"m 329 -15 q 119 49 196 -15 q 42 210 42 113 q 81 327 42 283 q 207 390 119 371 q 440 408 294 408 l 482 408 l 482 431 q 458 499 482 478 q 375 519 433 519 q 257 503 321 519 q 132 451 193 486 l 69 614 q 158 658 104 639 q 273 688 213 678 q 386 699 333 699 q 523 680 461 699 q 624 619 585 661 q 721 679 665 660 q 839 699 776 699 q 1016 656 940 699 q 1133 533 1092 613 q 1174 346 1174 453 l 1174 292 l 722 292 q 773 195 732 225 q 890 165 814 165 q 1001 183 946 165 q 1100 229 1056 200 l 1163 67 q 1033 7 1108 29 q 882 -15 957 -15 q 703 17 782 -15 q 579 115 625 50 q 329 -15 511 -15 m 849 539 q 721 408 738 539 l 971 408 q 849 539 963 539 m 367 146 q 450 180 418 146 q 482 271 482 214 l 482 292 l 435 292 q 315 274 353 292 q 276 219 276 257 q 299 167 276 188 q 367 146 322 146 z "},"ǽ":{"ha":1208,"x_min":42,"x_max":1174,"o":"m 329 -15 q 119 49 196 -15 q 42 210 42 113 q 81 327 42 283 q 207 390 119 371 q 440 408 294 408 l 482 408 l 482 431 q 458 499 482 478 q 375 519 433 519 q 257 503 321 519 q 132 451 193 486 l 69 614 q 158 658 104 639 q 273 688 213 678 q 386 699 333 699 q 523 680 461 699 q 624 619 585 661 q 721 679 665 660 q 839 699 776 699 q 1016 656 940 699 q 1133 533 1092 613 q 1174 346 1174 453 l 1174 292 l 722 292 q 773 195 732 225 q 890 165 814 165 q 1001 183 946 165 q 1100 229 1056 200 l 1163 67 q 1033 7 1108 29 q 882 -15 957 -15 q 703 17 782 -15 q 579 115 625 50 q 329 -15 511 -15 m 849 539 q 721 408 738 539 l 971 408 q 849 539 963 539 m 367 146 q 450 180 418 146 q 482 271 482 214 l 482 292 l 435 292 q 315 274 353 292 q 276 219 276 257 q 299 167 276 188 q 367 146 322 146 m 496 774 l 636 1058 l 868 1058 l 654 774 l 496 774 z "},"b":{"ha":861,"x_min":72,"x_max":821,"o":"m 522 -15 q 397 15 454 -15 q 313 93 340 44 l 313 0 l 72 0 l 72 979 l 319 979 l 319 601 q 403 672 349 646 q 522 699 458 699 q 678 656 611 699 q 783 533 746 613 q 821 342 821 453 q 783 151 821 232 q 677 28 744 71 q 522 -15 610 -15 m 444 167 q 536 208 500 167 q 572 342 572 250 q 536 476 572 435 q 444 517 500 517 q 351 476 388 517 q 315 342 315 435 q 351 208 315 250 q 444 167 388 167 z "},"ɓ":{"ha":861,"x_min":72,"x_max":821,"o":"m 522 -15 q 397 15 454 -15 q 313 93 340 44 l 313 0 l 72 0 l 72 688 q 152 910 72 826 q 394 994 232 994 q 450 990 419 994 q 501 978 481 986 l 474 797 q 445 803 457 801 q 418 804 433 804 q 319 683 319 804 l 319 601 q 403 672 349 646 q 522 699 458 699 q 678 656 611 699 q 783 533 746 613 q 821 342 821 453 q 783 151 821 232 q 677 28 744 71 q 522 -15 610 -15 m 444 167 q 536 208 500 167 q 572 342 572 250 q 536 476 572 435 q 444 517 500 517 q 351 476 388 517 q 315 342 315 435 q 351 208 315 250 q 444 167 388 167 z "},"c":{"ha":672,"x_min":40,"x_max":667,"o":"m 421 -15 q 220 28 306 -15 q 88 151 135 71 q 40 343 40 232 q 88 534 40 454 q 220 656 135 614 q 421 699 306 699 q 556 680 489 699 q 667 628 624 661 l 601 458 q 527 498 569 483 q 447 513 485 513 q 333 468 374 513 q 293 343 293 424 q 333 216 293 261 q 447 171 374 171 q 527 185 485 171 q 601 225 569 200 l 667 56 q 556 3 624 22 q 421 -15 488 -15 z "},"ć":{"ha":672,"x_min":40,"x_max":696,"o":"m 421 -15 q 220 28 306 -15 q 88 151 135 71 q 40 343 40 232 q 88 534 40 454 q 220 656 135 614 q 421 699 306 699 q 556 680 489 699 q 667 628 624 661 l 601 458 q 527 498 569 483 q 447 513 485 513 q 333 468 374 513 q 293 343 293 424 q 333 216 293 261 q 447 171 374 171 q 527 185 485 171 q 601 225 569 200 l 667 56 q 556 3 624 22 q 421 -15 488 -15 m 324 774 l 464 1058 l 696 1058 l 482 774 l 324 774 z "},"č":{"ha":672,"x_min":40,"x_max":667,"o":"m 421 -15 q 220 28 306 -15 q 88 151 135 71 q 40 343 40 232 q 88 534 40 454 q 220 656 135 614 q 421 699 306 699 q 556 680 489 699 q 667 628 624 661 l 601 458 q 527 498 569 483 q 447 513 485 513 q 333 468 374 513 q 293 343 293 424 q 333 216 293 261 q 447 171 374 171 q 527 185 485 171 q 601 225 569 200 l 667 56 q 556 3 624 22 q 421 -15 488 -15 m 300 774 l 146 1058 l 296 1058 l 403 901 l 510 1058 l 660 1058 l 506 774 l 300 774 z "},"ç":{"ha":672,"x_min":40,"x_max":667,"o":"m 421 -15 q 220 28 306 -15 q 88 151 135 71 q 40 343 40 232 q 88 534 40 454 q 220 656 135 614 q 421 699 306 699 q 556 680 489 699 q 667 628 624 661 l 601 458 q 527 498 569 483 q 447 513 485 513 q 333 468 374 513 q 293 343 293 424 q 333 216 293 261 q 447 171 374 171 q 527 185 485 171 q 601 225 569 200 l 667 56 q 556 3 624 22 q 421 -15 488 -15 m 400 -275 q 311 -267 354 -275 q 236 -243 268 -260 l 269 -146 q 374 -169 322 -169 q 442 -140 442 -169 q 392 -115 442 -115 q 343 -121 369 -115 l 314 -92 l 331 28 l 449 28 l 438 -43 l 439 -43 q 540 -71 504 -43 q 576 -149 576 -99 q 527 -241 576 -207 q 400 -275 478 -275 z "},"ḉ":{"ha":672,"x_min":40,"x_max":696,"o":"m 421 -15 q 220 28 306 -15 q 88 151 135 71 q 40 343 40 232 q 88 534 40 454 q 220 656 135 614 q 421 699 306 699 q 556 680 489 699 q 667 628 624 661 l 601 458 q 527 498 569 483 q 447 513 485 513 q 333 468 374 513 q 293 343 293 424 q 333 216 293 261 q 447 171 374 171 q 527 185 485 171 q 601 225 569 200 l 667 56 q 556 3 624 22 q 421 -15 488 -15 m 400 -275 q 311 -267 354 -275 q 236 -243 268 -260 l 269 -146 q 374 -169 322 -169 q 442 -140 442 -169 q 392 -115 442 -115 q 343 -121 369 -115 l 314 -92 l 331 28 l 449 28 l 438 -43 l 439 -43 q 540 -71 504 -43 q 576 -149 576 -99 q 527 -241 576 -207 q 400 -275 478 -275 m 324 774 l 464 1058 l 696 1058 l 482 774 l 324 774 z "},"ĉ":{"ha":672,"x_min":40,"x_max":667,"o":"m 421 -15 q 220 28 306 -15 q 88 151 135 71 q 40 343 40 232 q 88 534 40 454 q 220 656 135 614 q 421 699 306 699 q 556 680 489 699 q 667 628 624 661 l 601 458 q 527 498 569 483 q 447 513 485 513 q 333 468 374 513 q 293 343 293 424 q 333 216 293 261 q 447 171 374 171 q 527 185 485 171 q 601 225 569 200 l 667 56 q 556 3 624 22 q 421 -15 488 -15 m 146 774 l 300 1058 l 506 1058 l 660 774 l 510 774 l 403 931 l 296 774 l 146 774 z "},"ċ":{"ha":672,"x_min":40,"x_max":667,"o":"m 421 -15 q 220 28 306 -15 q 88 151 135 71 q 40 343 40 232 q 88 534 40 454 q 220 656 135 614 q 421 699 306 699 q 556 680 489 699 q 667 628 624 661 l 601 458 q 527 498 569 483 q 447 513 485 513 q 333 468 374 513 q 293 343 293 424 q 333 216 293 261 q 447 171 374 171 q 527 185 485 171 q 601 225 569 200 l 667 56 q 556 3 624 22 q 421 -15 488 -15 m 292 810 l 292 1018 l 514 1018 l 514 810 l 292 810 z "},"d":{"ha":861,"x_min":40,"x_max":790,"o":"m 339 -15 q 184 28 251 -15 q 78 151 117 71 q 40 342 40 232 q 78 533 40 453 q 184 656 117 613 q 339 699 251 699 q 459 672 404 699 q 543 601 514 644 l 543 979 l 790 979 l 790 0 l 549 0 l 549 94 q 465 15 522 44 q 339 -15 408 -15 m 418 167 q 510 208 474 167 q 546 342 546 250 q 510 476 546 435 q 418 517 474 517 q 325 476 361 517 q 289 342 289 435 q 325 208 289 250 q 418 167 361 167 z "},"ð":{"ha":842,"x_min":40,"x_max":804,"o":"m 407 -15 q 216 26 299 -15 q 87 140 133 67 q 40 307 40 213 q 84 469 40 399 q 205 581 128 540 q 382 621 282 621 q 479 608 435 621 q 557 563 524 594 q 503 662 539 617 q 419 740 467 707 l 186 631 l 135 739 l 285 810 q 164 842 225 831 l 206 997 q 360 959 290 983 q 488 904 431 935 l 683 997 l 735 889 l 601 826 q 753 627 703 739 q 804 406 804 515 q 758 182 804 276 q 622 36 711 88 q 407 -15 533 -15 m 417 169 q 512 207 479 169 q 544 307 544 244 q 512 405 544 368 q 417 442 479 442 q 323 405 357 442 q 289 307 289 368 q 324 206 289 243 q 417 169 358 169 z "},"ď":{"ha":861,"x_min":40,"x_max":983,"o":"m 339 -15 q 184 28 251 -15 q 78 151 117 71 q 40 342 40 232 q 78 533 40 453 q 184 656 117 613 q 339 699 251 699 q 459 672 404 699 q 543 601 514 644 l 543 979 l 790 979 l 790 0 l 549 0 l 549 94 q 465 15 522 44 q 339 -15 408 -15 m 418 167 q 510 208 474 167 q 546 342 546 250 q 510 476 546 435 q 418 517 474 517 q 325 476 361 517 q 289 342 289 435 q 325 208 289 250 q 418 167 361 167 m 836 708 l 836 979 l 983 979 l 943 708 l 836 708 z "},"đ":{"ha":861,"x_min":40,"x_max":906,"o":"m 339 -15 q 184 26 251 -15 q 78 147 117 68 q 40 333 40 225 q 78 519 40 442 q 184 640 117 597 q 339 682 251 682 q 460 654 406 682 q 543 582 515 626 l 543 739 l 289 739 l 289 907 l 543 907 l 543 979 l 790 979 l 790 907 l 906 907 l 906 739 l 790 739 l 790 0 l 549 0 l 549 93 q 465 15 522 44 q 339 -15 408 -15 m 418 167 q 511 207 475 167 q 547 333 547 247 q 511 459 547 419 q 418 499 475 499 q 325 459 361 499 q 289 333 289 419 q 325 207 289 247 q 418 167 361 167 z "},"ḍ":{"ha":861,"x_min":40,"x_max":790,"o":"m 339 -15 q 184 28 251 -15 q 78 151 117 71 q 40 342 40 232 q 78 533 40 453 q 184 656 117 613 q 339 699 251 699 q 459 672 404 699 q 543 601 514 644 l 543 979 l 790 979 l 790 0 l 549 0 l 549 94 q 465 15 522 44 q 339 -15 408 -15 m 418 167 q 510 208 474 167 q 546 342 546 250 q 510 476 546 435 q 418 517 474 517 q 325 476 361 517 q 289 342 289 435 q 325 208 289 250 q 418 167 361 167 m 322 -311 l 322 -104 l 544 -104 l 544 -311 l 322 -311 z "},"ɗ":{"ha":861,"x_min":40,"x_max":972,"o":"m 339 -15 q 184 28 251 -15 q 78 151 117 71 q 40 342 40 232 q 78 533 40 453 q 184 656 117 613 q 339 699 251 699 q 459 672 404 699 q 543 601 514 644 l 543 688 q 624 910 543 826 q 867 994 704 994 q 922 990 890 994 q 972 978 953 986 l 944 797 q 917 803 929 801 q 889 804 904 804 q 819 778 849 804 q 790 683 790 753 l 790 0 l 549 0 l 549 94 q 465 15 522 44 q 339 -15 408 -15 m 418 167 q 510 208 474 167 q 546 342 546 250 q 510 476 546 435 q 418 517 474 517 q 325 476 361 517 q 289 342 289 435 q 325 208 289 250 q 418 167 361 167 z "},"ḏ":{"ha":861,"x_min":40,"x_max":790,"o":"m 339 -15 q 184 28 251 -15 q 78 151 117 71 q 40 342 40 232 q 78 533 40 453 q 184 656 117 613 q 339 699 251 699 q 459 672 404 699 q 543 601 514 644 l 543 979 l 790 979 l 790 0 l 549 0 l 549 94 q 465 15 522 44 q 339 -15 408 -15 m 418 167 q 510 208 474 167 q 546 342 546 250 q 510 476 546 435 q 418 517 474 517 q 325 476 361 517 q 289 342 289 435 q 325 208 289 250 q 418 167 361 167 m 200 -243 l 200 -108 l 668 -108 l 668 -243 l 200 -243 z "},"ǆ":{"ha":1538,"x_min":40,"x_max":1507,"o":"m 339 -15 q 184 28 251 -15 q 78 151 117 71 q 40 342 40 232 q 78 533 40 453 q 184 656 117 613 q 339 699 251 699 q 459 672 404 699 q 543 601 514 644 l 543 979 l 790 979 l 790 0 l 549 0 l 549 94 q 465 15 522 44 q 339 -15 408 -15 m 418 167 q 510 208 474 167 q 546 342 546 250 q 510 476 546 435 q 418 517 474 517 q 325 476 361 517 q 289 342 289 435 q 325 208 289 250 q 418 167 361 167 z "},"e":{"ha":771,"x_min":40,"x_max":736,"o":"m 444 -15 q 228 28 319 -15 q 89 153 138 72 q 40 343 40 233 q 87 528 40 447 q 215 653 133 608 q 400 699 296 699 q 578 656 503 699 q 695 533 654 613 q 736 346 736 453 l 736 292 l 276 292 q 332 196 289 225 q 451 167 375 167 q 562 183 504 167 q 664 229 619 199 l 725 67 q 596 7 672 29 q 444 -15 519 -15 m 411 539 q 320 506 356 539 q 275 408 285 472 l 533 408 q 498 506 529 474 q 411 539 467 539 z "},"é":{"ha":771,"x_min":40,"x_max":736,"o":"m 444 -15 q 228 28 319 -15 q 89 153 138 72 q 40 343 40 233 q 87 528 40 447 q 215 653 133 608 q 400 699 296 699 q 578 656 503 699 q 695 533 654 613 q 736 346 736 453 l 736 292 l 276 292 q 332 196 289 225 q 451 167 375 167 q 562 183 504 167 q 664 229 619 199 l 725 67 q 596 7 672 29 q 444 -15 519 -15 m 411 539 q 320 506 356 539 q 275 408 285 472 l 533 408 q 498 506 529 474 q 411 539 467 539 m 324 774 l 464 1058 l 696 1058 l 482 774 l 324 774 z "},"ĕ":{"ha":771,"x_min":40,"x_max":736,"o":"m 444 -15 q 228 28 319 -15 q 89 153 138 72 q 40 343 40 233 q 87 528 40 447 q 215 653 133 608 q 400 699 296 699 q 578 656 503 699 q 695 533 654 613 q 736 346 736 453 l 736 292 l 276 292 q 332 196 289 225 q 451 167 375 167 q 562 183 504 167 q 664 229 619 199 l 725 67 q 596 7 672 29 q 444 -15 519 -15 m 411 539 q 320 506 356 539 q 275 408 285 472 l 533 408 q 498 506 529 474 q 411 539 467 539 m 403 768 q 223 842 292 768 q 153 1042 154 917 l 285 1054 q 321 946 290 983 q 403 908 351 908 q 485 946 454 908 q 521 1054 515 983 l 653 1042 q 583 842 651 917 q 403 768 514 768 z "},"ě":{"ha":771,"x_min":40,"x_max":736,"o":"m 444 -15 q 228 28 319 -15 q 89 153 138 72 q 40 343 40 233 q 87 528 40 447 q 215 653 133 608 q 400 699 296 699 q 578 656 503 699 q 695 533 654 613 q 736 346 736 453 l 736 292 l 276 292 q 332 196 289 225 q 451 167 375 167 q 562 183 504 167 q 664 229 619 199 l 725 67 q 596 7 672 29 q 444 -15 519 -15 m 411 539 q 320 506 356 539 q 275 408 285 472 l 533 408 q 498 506 529 474 q 411 539 467 539 m 300 774 l 146 1058 l 296 1058 l 403 901 l 510 1058 l 660 1058 l 506 774 l 300 774 z "},"ḝ":{"ha":771,"x_min":40,"x_max":736,"o":"m 444 -15 q 228 28 319 -15 q 89 153 138 72 q 40 343 40 233 q 87 528 40 447 q 215 653 133 608 q 400 699 296 699 q 578 656 503 699 q 695 533 654 613 q 736 346 736 453 l 736 292 l 276 292 q 332 196 289 225 q 451 167 375 167 q 562 183 504 167 q 664 229 619 199 l 725 67 q 596 7 672 29 q 444 -15 519 -15 m 411 539 q 320 506 356 539 q 275 408 285 472 l 533 408 q 498 506 529 474 q 411 539 467 539 m 400 -275 q 311 -267 354 -275 q 236 -243 268 -260 l 269 -146 q 374 -169 322 -169 q 442 -140 442 -169 q 392 -115 442 -115 q 343 -121 369 -115 l 314 -92 l 331 28 l 449 28 l 438 -43 l 439 -43 q 540 -71 504 -43 q 576 -149 576 -99 q 527 -241 576 -207 q 400 -275 478 -275 m 403 768 q 223 842 292 768 q 153 1042 154 917 l 285 1054 q 321 946 290 983 q 403 908 351 908 q 485 946 454 908 q 521 1054 515 983 l 653 1042 q 583 842 651 917 q 403 768 514 768 z "},"ê":{"ha":771,"x_min":40,"x_max":736,"o":"m 444 -15 q 228 28 319 -15 q 89 153 138 72 q 40 343 40 233 q 87 528 40 447 q 215 653 133 608 q 400 699 296 699 q 578 656 503 699 q 695 533 654 613 q 736 346 736 453 l 736 292 l 276 292 q 332 196 289 225 q 451 167 375 167 q 562 183 504 167 q 664 229 619 199 l 725 67 q 596 7 672 29 q 444 -15 519 -15 m 411 539 q 320 506 356 539 q 275 408 285 472 l 533 408 q 498 506 529 474 q 411 539 467 539 m 146 774 l 300 1058 l 506 1058 l 660 774 l 510 774 l 403 931 l 296 774 l 146 774 z "},"ế":{"ha":771,"x_min":40,"x_max":881,"o":"m 444 -15 q 228 28 319 -15 q 89 153 138 72 q 40 343 40 233 q 87 528 40 447 q 215 653 133 608 q 400 699 296 699 q 578 656 503 699 q 695 533 654 613 q 736 346 736 453 l 736 292 l 276 292 q 332 196 289 225 q 451 167 375 167 q 562 183 504 167 q 664 229 619 199 l 725 67 q 596 7 672 29 q 444 -15 519 -15 m 411 539 q 320 506 356 539 q 275 408 285 472 l 533 408 q 498 506 529 474 q 411 539 467 539 m 578 925 l 692 1133 l 881 1133 l 708 925 l 578 925 m 146 774 l 300 1003 l 506 1003 l 660 774 l 510 774 l 403 881 l 296 774 l 146 774 z "},"ệ":{"ha":771,"x_min":40,"x_max":736,"o":"m 444 -15 q 228 28 319 -15 q 89 153 138 72 q 40 343 40 233 q 87 528 40 447 q 215 653 133 608 q 400 699 296 699 q 578 656 503 699 q 695 533 654 613 q 736 346 736 453 l 736 292 l 276 292 q 332 196 289 225 q 451 167 375 167 q 562 183 504 167 q 664 229 619 199 l 725 67 q 596 7 672 29 q 444 -15 519 -15 m 411 539 q 320 506 356 539 q 275 408 285 472 l 533 408 q 498 506 529 474 q 411 539 467 539 m 292 -311 l 292 -104 l 514 -104 l 514 -311 l 292 -311 m 146 774 l 300 1058 l 506 1058 l 660 774 l 510 774 l 403 931 l 296 774 l 146 774 z "},"ề":{"ha":771,"x_min":40,"x_max":763,"o":"m 444 -15 q 228 28 319 -15 q 89 153 138 72 q 40 343 40 233 q 87 528 40 447 q 215 653 133 608 q 400 699 296 699 q 578 656 503 699 q 695 533 654 613 q 736 346 736 453 l 736 292 l 276 292 q 332 196 289 225 q 451 167 375 167 q 562 183 504 167 q 664 229 619 199 l 725 67 q 596 7 672 29 q 444 -15 519 -15 m 411 539 q 320 506 356 539 q 275 408 285 472 l 533 408 q 498 506 529 474 q 411 539 467 539 m 632 925 l 460 1133 l 650 1133 l 763 925 l 632 925 m 146 774 l 300 1003 l 506 1003 l 660 774 l 510 774 l 403 881 l 296 774 l 146 774 z "},"ể":{"ha":771,"x_min":40,"x_max":782,"o":"m 444 -15 q 228 28 319 -15 q 89 153 138 72 q 40 343 40 233 q 87 528 40 447 q 215 653 133 608 q 400 699 296 699 q 578 656 503 699 q 695 533 654 613 q 736 346 736 453 l 736 292 l 276 292 q 332 196 289 225 q 451 167 375 167 q 562 183 504 167 q 664 229 619 199 l 725 67 q 596 7 672 29 q 444 -15 519 -15 m 411 539 q 320 506 356 539 q 275 408 285 472 l 533 408 q 498 506 529 474 q 411 539 467 539 m 572 917 q 586 960 572 943 q 613 991 600 978 q 626 1019 626 1004 q 616 1033 626 1029 q 593 1038 606 1038 q 554 1034 574 1038 q 517 1022 535 1031 l 489 1103 q 555 1124 519 1117 q 644 1131 590 1131 q 746 1113 710 1131 q 782 1061 782 1094 q 769 1020 782 1038 q 740 988 757 1003 q 711 956 724 972 q 699 917 699 939 l 572 917 m 146 765 l 300 994 l 506 994 l 660 765 l 510 765 l 403 872 l 296 765 l 146 765 z "},"ễ":{"ha":771,"x_min":40,"x_max":736,"o":"m 444 -15 q 228 28 319 -15 q 89 153 138 72 q 40 343 40 233 q 87 528 40 447 q 215 653 133 608 q 400 699 296 699 q 578 656 503 699 q 695 533 654 613 q 736 346 736 453 l 736 292 l 276 292 q 332 196 289 225 q 451 167 375 167 q 562 183 504 167 q 664 229 619 199 l 725 67 q 596 7 672 29 q 444 -15 519 -15 m 411 539 q 320 506 356 539 q 275 408 285 472 l 533 408 q 498 506 529 474 q 411 539 467 539 m 243 993 l 140 997 q 192 1118 146 1078 q 308 1158 239 1158 q 362 1151 336 1158 q 417 1132 388 1144 q 489 1111 468 1111 q 563 1158 550 1111 l 665 1153 q 613 1033 660 1074 q 497 993 567 993 q 442 1001 469 993 q 385 1021 414 1008 q 317 1040 342 1040 q 267 1028 285 1040 q 243 993 250 1017 m 146 774 l 300 961 l 506 961 l 660 774 l 515 774 l 403 851 l 290 774 l 146 774 z "},"ȅ":{"ha":771,"x_min":40,"x_max":736,"o":"m 444 -15 q 228 28 319 -15 q 89 153 138 72 q 40 343 40 233 q 87 528 40 447 q 215 653 133 608 q 400 699 296 699 q 578 656 503 699 q 695 533 654 613 q 736 346 736 453 l 736 292 l 276 292 q 332 196 289 225 q 451 167 375 167 q 562 183 504 167 q 664 229 619 199 l 725 67 q 596 7 672 29 q 444 -15 519 -15 m 411 539 q 320 506 356 539 q 275 408 285 472 l 533 408 q 498 506 529 474 q 411 539 467 539 m 464 774 l 333 1058 l 529 1058 l 590 774 l 464 774 m 224 774 l 92 1058 l 288 1058 l 350 774 l 224 774 z "},"ë":{"ha":771,"x_min":40,"x_max":736,"o":"m 444 -15 q 228 28 319 -15 q 89 153 138 72 q 40 343 40 233 q 87 528 40 447 q 215 653 133 608 q 400 699 296 699 q 578 656 503 699 q 695 533 654 613 q 736 346 736 453 l 736 292 l 276 292 q 332 196 289 225 q 451 167 375 167 q 562 183 504 167 q 664 229 619 199 l 725 67 q 596 7 672 29 q 444 -15 519 -15 m 411 539 q 320 506 356 539 q 275 408 285 472 l 533 408 q 498 506 529 474 q 411 539 467 539 m 442 808 l 442 1017 l 650 1017 l 650 808 l 442 808 m 156 808 l 156 1017 l 364 1017 l 364 808 l 156 808 z "},"ė":{"ha":771,"x_min":40,"x_max":736,"o":"m 444 -15 q 228 28 319 -15 q 89 153 138 72 q 40 343 40 233 q 87 528 40 447 q 215 653 133 608 q 400 699 296 699 q 578 656 503 699 q 695 533 654 613 q 736 346 736 453 l 736 292 l 276 292 q 332 196 289 225 q 451 167 375 167 q 562 183 504 167 q 664 229 619 199 l 725 67 q 596 7 672 29 q 444 -15 519 -15 m 411 539 q 320 506 356 539 q 275 408 285 472 l 533 408 q 498 506 529 474 q 411 539 467 539 m 292 810 l 292 1018 l 514 1018 l 514 810 l 292 810 z "},"ẹ":{"ha":771,"x_min":40,"x_max":736,"o":"m 444 -15 q 228 28 319 -15 q 89 153 138 72 q 40 343 40 233 q 87 528 40 447 q 215 653 133 608 q 400 699 296 699 q 578 656 503 699 q 695 533 654 613 q 736 346 736 453 l 736 292 l 276 292 q 332 196 289 225 q 451 167 375 167 q 562 183 504 167 q 664 229 619 199 l 725 67 q 596 7 672 29 q 444 -15 519 -15 m 411 539 q 320 506 356 539 q 275 408 285 472 l 533 408 q 498 506 529 474 q 411 539 467 539 m 292 -311 l 292 -104 l 514 -104 l 514 -311 l 292 -311 z "},"è":{"ha":771,"x_min":40,"x_max":736,"o":"m 444 -15 q 228 28 319 -15 q 89 153 138 72 q 40 343 40 233 q 87 528 40 447 q 215 653 133 608 q 400 699 296 699 q 578 656 503 699 q 695 533 654 613 q 736 346 736 453 l 736 292 l 276 292 q 332 196 289 225 q 451 167 375 167 q 562 183 504 167 q 664 229 619 199 l 725 67 q 596 7 672 29 q 444 -15 519 -15 m 411 539 q 320 506 356 539 q 275 408 285 472 l 533 408 q 498 506 529 474 q 411 539 467 539 m 324 774 l 110 1058 l 342 1058 l 482 774 l 324 774 z "},"ẻ":{"ha":771,"x_min":40,"x_max":736,"o":"m 444 -15 q 228 28 319 -15 q 89 153 138 72 q 40 343 40 233 q 87 528 40 447 q 215 653 133 608 q 400 699 296 699 q 578 656 503 699 q 695 533 654 613 q 736 346 736 453 l 736 292 l 276 292 q 332 196 289 225 q 451 167 375 167 q 562 183 504 167 q 664 229 619 199 l 725 67 q 596 7 672 29 q 444 -15 519 -15 m 411 539 q 320 506 356 539 q 275 408 285 472 l 533 408 q 498 506 529 474 q 411 539 467 539 m 332 774 l 332 804 q 349 858 332 838 q 383 894 365 878 q 400 931 400 910 q 354 961 400 961 q 275 940 314 961 l 239 1035 q 414 1071 307 1071 q 535 1044 492 1071 q 578 967 578 1017 q 563 908 578 929 q 526 871 547 886 q 490 839 506 856 q 474 796 474 822 l 474 774 l 332 774 z "},"ȇ":{"ha":771,"x_min":40,"x_max":736,"o":"m 444 -15 q 228 28 319 -15 q 89 153 138 72 q 40 343 40 233 q 87 528 40 447 q 215 653 133 608 q 400 699 296 699 q 578 656 503 699 q 695 533 654 613 q 736 346 736 453 l 736 292 l 276 292 q 332 196 289 225 q 451 167 375 167 q 562 183 504 167 q 664 229 619 199 l 725 67 q 596 7 672 29 q 444 -15 519 -15 m 411 539 q 320 506 356 539 q 275 408 285 472 l 533 408 q 498 506 529 474 q 411 539 467 539 m 285 768 l 153 779 q 223 979 154 904 q 403 1054 292 1054 q 583 979 514 1054 q 653 779 651 904 l 521 768 q 485 875 515 838 q 403 913 454 913 q 321 875 351 913 q 285 768 290 838 z "},"ē":{"ha":771,"x_min":40,"x_max":736,"o":"m 444 -15 q 228 28 319 -15 q 89 153 138 72 q 40 343 40 233 q 87 528 40 447 q 215 653 133 608 q 400 699 296 699 q 578 656 503 699 q 695 533 654 613 q 736 346 736 453 l 736 292 l 276 292 q 332 196 289 225 q 451 167 375 167 q 562 183 504 167 q 664 229 619 199 l 725 67 q 596 7 672 29 q 444 -15 519 -15 m 411 539 q 320 506 356 539 q 275 408 285 472 l 533 408 q 498 506 529 474 q 411 539 467 539 m 169 840 l 169 975 l 638 975 l 638 840 l 169 840 z "},"ḗ":{"ha":771,"x_min":40,"x_max":736,"o":"m 444 -15 q 228 28 319 -15 q 89 153 138 72 q 40 343 40 233 q 87 528 40 447 q 215 653 133 608 q 400 699 296 699 q 578 656 503 699 q 695 533 654 613 q 736 346 736 453 l 736 292 l 276 292 q 332 196 289 225 q 451 167 375 167 q 562 183 504 167 q 664 229 619 199 l 725 67 q 596 7 672 29 q 444 -15 519 -15 m 411 539 q 320 506 356 539 q 275 408 285 472 l 533 408 q 498 506 529 474 q 411 539 467 539 m 331 965 l 410 1133 l 633 1133 l 475 965 l 331 965 m 169 779 l 169 914 l 638 914 l 638 779 l 169 779 z "},"ḕ":{"ha":771,"x_min":40,"x_max":736,"o":"m 444 -15 q 228 28 319 -15 q 89 153 138 72 q 40 343 40 233 q 87 528 40 447 q 215 653 133 608 q 400 699 296 699 q 578 656 503 699 q 695 533 654 613 q 736 346 736 453 l 736 292 l 276 292 q 332 196 289 225 q 451 167 375 167 q 562 183 504 167 q 664 229 619 199 l 725 67 q 596 7 672 29 q 444 -15 519 -15 m 411 539 q 320 506 356 539 q 275 408 285 472 l 533 408 q 498 506 529 474 q 411 539 467 539 m 331 965 l 172 1133 l 396 1133 l 475 965 l 331 965 m 169 779 l 169 914 l 638 914 l 638 779 l 169 779 z "},"ę":{"ha":771,"x_min":40,"x_max":736,"o":"m 444 -15 q 228 28 319 -15 q 89 153 138 72 q 40 343 40 233 q 87 528 40 447 q 215 653 133 608 q 400 699 296 699 q 578 656 503 699 q 695 533 654 613 q 736 346 736 453 l 736 292 l 276 292 q 332 196 289 225 q 451 167 375 167 q 562 183 504 167 q 664 229 619 199 l 725 67 q 596 7 672 29 q 444 -15 519 -15 m 411 539 q 320 506 356 539 q 275 408 285 472 l 533 408 q 498 506 529 474 q 411 539 467 539 m 508 -275 q 371 -233 419 -275 q 322 -121 322 -192 q 365 -8 322 -58 q 475 67 407 43 l 542 0 q 486 -40 504 -14 q 468 -92 468 -65 q 489 -137 468 -121 q 542 -154 510 -154 q 581 -151 564 -154 q 619 -140 599 -147 l 642 -251 q 576 -270 606 -265 q 508 -275 546 -275 z "},"ẽ":{"ha":771,"x_min":40,"x_max":736,"o":"m 444 -15 q 228 28 319 -15 q 89 153 138 72 q 40 343 40 233 q 87 528 40 447 q 215 653 133 608 q 400 699 296 699 q 578 656 503 699 q 695 533 654 613 q 736 346 736 453 l 736 292 l 276 292 q 332 196 289 225 q 451 167 375 167 q 562 183 504 167 q 664 229 619 199 l 725 67 q 596 7 672 29 q 444 -15 519 -15 m 411 539 q 320 506 356 539 q 275 408 285 472 l 533 408 q 498 506 529 474 q 411 539 467 539 m 224 801 l 110 808 q 168 978 117 918 q 299 1038 219 1038 q 357 1027 331 1038 q 415 997 383 1017 q 463 971 444 978 q 500 964 481 964 q 582 1046 568 964 l 696 1038 q 638 868 690 928 q 508 808 586 808 q 449 819 476 808 q 388 851 422 829 q 307 883 339 883 q 250 862 269 883 q 224 801 231 840 z "},"ə":{"ha":772,"x_min":35,"x_max":732,"o":"m 378 -15 q 126 76 217 -15 q 35 339 35 168 l 35 393 l 496 393 q 442 489 485 460 q 329 518 400 518 q 108 454 219 518 l 46 618 q 185 678 108 658 q 339 699 263 699 q 547 655 458 699 q 683 531 635 611 q 732 342 732 450 q 685 156 732 236 q 559 30 639 75 q 378 -15 479 -15 m 364 144 q 453 177 418 144 q 499 275 489 210 l 246 275 q 281 176 250 208 q 364 144 313 144 z "},"ʒ":{"ha":753,"x_min":0,"x_max":717,"o":"m 331 -265 q 0 -185 125 -265 l 67 -14 q 174 -63 113 -46 q 297 -81 235 -81 q 472 39 472 -81 q 293 157 472 157 l 168 157 l 168 271 l 407 500 l 39 500 l 39 683 l 674 683 l 674 519 l 457 314 q 648 234 579 301 q 717 57 717 167 q 669 -113 717 -40 q 535 -226 622 -186 q 331 -265 447 -265 z "},"ǯ":{"ha":753,"x_min":0,"x_max":717,"o":"m 331 -265 q 0 -185 125 -265 l 67 -14 q 174 -63 113 -46 q 297 -81 235 -81 q 472 39 472 -81 q 293 157 472 157 l 168 157 l 168 271 l 407 500 l 39 500 l 39 683 l 674 683 l 674 519 l 457 314 q 648 234 579 301 q 717 57 717 167 q 669 -113 717 -40 q 535 -226 622 -186 q 331 -265 447 -265 m 253 774 l 99 1058 l 249 1058 l 356 901 l 463 1058 l 613 1058 l 458 774 l 253 774 z "},"f":{"ha":558,"x_min":1,"x_max":582,"o":"m 131 0 l 131 501 l 1 501 l 1 683 l 131 683 q 224 901 138 828 q 485 983 310 974 l 568 988 l 582 811 l 518 807 q 408 778 438 801 q 378 704 378 754 l 378 683 l 550 683 l 550 501 l 378 501 l 378 0 l 131 0 z "},"g":{"ha":869,"x_min":40,"x_max":797,"o":"m 411 -265 q 219 -246 308 -265 q 65 -182 129 -226 l 129 -15 q 255 -65 182 -47 q 388 -83 328 -83 q 515 -48 472 -83 q 557 63 557 -12 l 557 126 q 469 47 528 76 q 344 18 411 18 q 185 60 253 18 q 78 179 117 103 q 40 358 40 256 q 78 538 40 461 q 185 656 117 614 q 344 699 253 699 q 472 669 414 699 q 556 590 529 639 l 556 683 l 797 683 l 797 92 q 697 -176 797 -87 q 411 -265 597 -265 m 421 200 q 518 242 482 200 q 554 358 554 283 q 518 475 554 433 q 421 517 482 517 q 325 475 361 517 q 289 358 289 433 q 325 242 289 283 q 421 200 361 200 z "},"ğ":{"ha":869,"x_min":40,"x_max":797,"o":"m 411 -265 q 219 -246 308 -265 q 65 -182 129 -226 l 129 -15 q 255 -65 182 -47 q 388 -83 328 -83 q 515 -48 472 -83 q 557 63 557 -12 l 557 126 q 469 47 528 76 q 344 18 411 18 q 185 60 253 18 q 78 179 117 103 q 40 358 40 256 q 78 538 40 461 q 185 656 117 614 q 344 699 253 699 q 472 669 414 699 q 556 590 529 639 l 556 683 l 797 683 l 797 92 q 697 -176 797 -87 q 411 -265 597 -265 m 421 200 q 518 242 482 200 q 554 358 554 283 q 518 475 554 433 q 421 517 482 517 q 325 475 361 517 q 289 358 289 433 q 325 242 289 283 q 421 200 361 200 m 433 768 q 253 842 322 768 q 183 1042 185 917 l 315 1054 q 351 946 321 983 q 433 908 382 908 q 515 946 485 908 q 551 1054 546 983 l 683 1042 q 613 842 682 917 q 433 768 544 768 z "},"ǧ":{"ha":869,"x_min":40,"x_max":797,"o":"m 411 -265 q 219 -246 308 -265 q 65 -182 129 -226 l 129 -15 q 255 -65 182 -47 q 388 -83 328 -83 q 515 -48 472 -83 q 557 63 557 -12 l 557 126 q 469 47 528 76 q 344 18 411 18 q 185 60 253 18 q 78 179 117 103 q 40 358 40 256 q 78 538 40 461 q 185 656 117 614 q 344 699 253 699 q 472 669 414 699 q 556 590 529 639 l 556 683 l 797 683 l 797 92 q 697 -176 797 -87 q 411 -265 597 -265 m 421 200 q 518 242 482 200 q 554 358 554 283 q 518 475 554 433 q 421 517 482 517 q 325 475 361 517 q 289 358 289 433 q 325 242 289 283 q 421 200 361 200 m 331 774 l 176 1058 l 326 1058 l 433 901 l 540 1058 l 690 1058 l 536 774 l 331 774 z "},"ĝ":{"ha":869,"x_min":40,"x_max":797,"o":"m 411 -265 q 219 -246 308 -265 q 65 -182 129 -226 l 129 -15 q 255 -65 182 -47 q 388 -83 328 -83 q 515 -48 472 -83 q 557 63 557 -12 l 557 126 q 469 47 528 76 q 344 18 411 18 q 185 60 253 18 q 78 179 117 103 q 40 358 40 256 q 78 538 40 461 q 185 656 117 614 q 344 699 253 699 q 472 669 414 699 q 556 590 529 639 l 556 683 l 797 683 l 797 92 q 697 -176 797 -87 q 411 -265 597 -265 m 421 200 q 518 242 482 200 q 554 358 554 283 q 518 475 554 433 q 421 517 482 517 q 325 475 361 517 q 289 358 289 433 q 325 242 289 283 q 421 200 361 200 m 176 774 l 331 1058 l 536 1058 l 690 774 l 540 774 l 433 931 l 326 774 l 176 774 z "},"ģ":{"ha":869,"x_min":40,"x_max":797,"o":"m 411 -265 q 219 -246 308 -265 q 65 -182 129 -226 l 129 -15 q 255 -65 182 -47 q 388 -83 328 -83 q 515 -48 472 -83 q 557 63 557 -12 l 557 126 q 469 47 528 76 q 344 18 411 18 q 185 60 253 18 q 78 179 117 103 q 40 358 40 256 q 78 538 40 461 q 185 656 117 614 q 344 699 253 699 q 472 669 414 699 q 556 590 529 639 l 556 683 l 797 683 l 797 92 q 697 -176 797 -87 q 411 -265 597 -265 m 421 200 q 518 242 482 200 q 554 358 554 283 q 518 475 554 433 q 421 517 482 517 q 325 475 361 517 q 289 358 289 433 q 325 242 289 283 q 421 200 361 200 m 315 778 l 315 882 q 335 998 315 947 q 404 1092 354 1049 l 489 1035 q 453 995 465 1015 q 438 953 442 975 l 550 953 l 550 778 l 315 778 z "},"ġ":{"ha":869,"x_min":40,"x_max":797,"o":"m 411 -265 q 219 -246 308 -265 q 65 -182 129 -226 l 129 -15 q 255 -65 182 -47 q 388 -83 328 -83 q 515 -48 472 -83 q 557 63 557 -12 l 557 126 q 469 47 528 76 q 344 18 411 18 q 185 60 253 18 q 78 179 117 103 q 40 358 40 256 q 78 538 40 461 q 185 656 117 614 q 344 699 253 699 q 472 669 414 699 q 556 590 529 639 l 556 683 l 797 683 l 797 92 q 697 -176 797 -87 q 411 -265 597 -265 m 421 200 q 518 242 482 200 q 554 358 554 283 q 518 475 554 433 q 421 517 482 517 q 325 475 361 517 q 289 358 289 433 q 325 242 289 283 q 421 200 361 200 m 322 810 l 322 1018 l 544 1018 l 544 810 l 322 810 z "},"ḡ":{"ha":869,"x_min":40,"x_max":797,"o":"m 411 -265 q 219 -246 308 -265 q 65 -182 129 -226 l 129 -15 q 255 -65 182 -47 q 388 -83 328 -83 q 515 -48 472 -83 q 557 63 557 -12 l 557 126 q 469 47 528 76 q 344 18 411 18 q 185 60 253 18 q 78 179 117 103 q 40 358 40 256 q 78 538 40 461 q 185 656 117 614 q 344 699 253 699 q 472 669 414 699 q 556 590 529 639 l 556 683 l 797 683 l 797 92 q 697 -176 797 -87 q 411 -265 597 -265 m 421 200 q 518 242 482 200 q 554 358 554 283 q 518 475 554 433 q 421 517 482 517 q 325 475 361 517 q 289 358 289 433 q 325 242 289 283 q 421 200 361 200 m 200 840 l 200 975 l 668 975 l 668 840 l 200 840 z "},"ǥ":{"ha":869,"x_min":40,"x_max":867,"o":"m 411 -265 q 219 -246 308 -265 q 65 -182 129 -226 l 131 -19 q 255 -78 182 -57 q 388 -100 328 -100 q 521 -58 481 -100 l 385 -58 l 385 51 l 557 51 l 557 179 q 471 104 529 132 q 346 76 413 76 q 187 115 256 76 q 79 224 118 154 q 40 388 40 294 q 79 551 40 481 q 187 660 118 621 q 346 699 256 699 q 470 671 413 699 q 556 596 528 643 l 556 683 l 797 683 l 797 92 q 796 51 797 71 l 867 51 l 867 -58 l 775 -58 q 645 -213 738 -161 q 411 -265 553 -265 m 421 256 q 517 290 481 256 q 553 385 553 325 q 517 481 553 446 q 421 517 481 517 q 326 482 363 517 q 289 385 289 447 q 326 290 289 324 q 421 256 364 256 z "},"h":{"ha":842,"x_min":72,"x_max":774,"o":"m 72 0 l 72 979 l 319 979 l 319 599 q 533 699 393 699 q 715 626 656 699 q 774 404 774 554 l 774 0 l 526 0 l 526 394 q 505 483 526 457 q 442 510 483 510 q 353 474 386 510 q 319 379 319 439 l 319 0 l 72 0 z "},"ħ":{"ha":842,"x_min":-43,"x_max":774,"o":"m 72 0 l 72 739 l -43 739 l -43 907 l 72 907 l 72 979 l 319 979 l 319 907 l 574 907 l 574 739 l 319 739 l 319 581 q 533 682 393 682 q 715 609 656 682 q 774 386 774 536 l 774 0 l 526 0 l 526 376 q 505 465 526 439 q 442 492 483 492 q 353 456 386 492 q 319 361 319 421 l 319 0 l 72 0 z "},"ḫ":{"ha":842,"x_min":72,"x_max":774,"o":"m 72 0 l 72 979 l 319 979 l 319 599 q 533 699 393 699 q 715 626 656 699 q 774 404 774 554 l 774 0 l 526 0 l 526 394 q 505 483 526 457 q 442 510 483 510 q 353 474 386 510 q 319 379 319 439 l 319 0 l 72 0 m 424 -299 q 244 -239 313 -299 q 174 -81 175 -179 l 306 -68 q 342 -136 311 -111 q 424 -161 372 -161 q 506 -136 475 -161 q 542 -68 536 -111 l 674 -81 q 603 -239 672 -179 q 424 -299 535 -299 z "},"ȟ":{"ha":842,"x_min":72,"x_max":774,"o":"m 72 0 l 72 979 l 319 979 l 319 599 q 533 699 393 699 q 715 626 656 699 q 774 404 774 554 l 774 0 l 526 0 l 526 394 q 505 483 526 457 q 442 510 483 510 q 353 474 386 510 q 319 379 319 439 l 319 0 l 72 0 m 321 1063 l 146 1307 l 313 1307 l 422 1188 l 532 1307 l 699 1307 l 524 1063 l 321 1063 z "},"ĥ":{"ha":842,"x_min":72,"x_max":774,"o":"m 72 0 l 72 979 l 319 979 l 319 599 q 533 699 393 699 q 715 626 656 699 q 774 404 774 554 l 774 0 l 526 0 l 526 394 q 505 483 526 457 q 442 510 483 510 q 353 474 386 510 q 319 379 319 439 l 319 0 l 72 0 m 146 1063 l 321 1307 l 524 1307 l 699 1063 l 532 1063 l 422 1182 l 313 1063 l 146 1063 z "},"ḥ":{"ha":842,"x_min":72,"x_max":774,"o":"m 72 0 l 72 979 l 319 979 l 319 599 q 533 699 393 699 q 715 626 656 699 q 774 404 774 554 l 774 0 l 526 0 l 526 394 q 505 483 526 457 q 442 510 483 510 q 353 474 386 510 q 319 379 319 439 l 319 0 l 72 0 m 313 -311 l 313 -104 l 535 -104 l 535 -311 l 313 -311 z "},"i":{"ha":390,"x_min":65,"x_max":325,"o":"m 65 801 l 65 1025 l 325 1025 l 325 801 l 65 801 m 72 0 l 72 683 l 319 683 l 319 0 l 72 0 z "},"ı":{"ha":390,"x_min":72,"x_max":319,"o":"m 72 0 l 72 683 l 319 683 l 319 0 l 72 0 z "},"í":{"ha":390,"x_min":72,"x_max":488,"o":"m 72 0 l 72 683 l 319 683 l 319 0 l 72 0 m 115 774 l 256 1058 l 488 1058 l 274 774 l 115 774 z "},"ĭ":{"ha":390,"x_min":-56,"x_max":444,"o":"m 72 0 l 72 683 l 319 683 l 319 0 l 72 0 m 194 768 q 15 842 83 768 q -56 1042 -54 917 l 76 1054 q 113 946 82 983 q 194 908 143 908 q 276 946 246 908 q 313 1054 307 983 l 444 1042 q 374 842 443 917 q 194 768 306 768 z "},"î":{"ha":390,"x_min":-62,"x_max":451,"o":"m 72 0 l 72 683 l 319 683 l 319 0 l 72 0 m -62 774 l 92 1058 l 297 1058 l 451 774 l 301 774 l 194 931 l 88 774 l -62 774 z "},"ȉ":{"ha":390,"x_min":-117,"x_max":382,"o":"m 72 0 l 72 683 l 319 683 l 319 0 l 72 0 m 256 774 l 125 1058 l 321 1058 l 382 774 l 256 774 m 15 774 l -117 1058 l 79 1058 l 142 774 l 15 774 z "},"ï":{"ha":390,"x_min":-53,"x_max":442,"o":"m 72 0 l 72 683 l 319 683 l 319 0 l 72 0 m 233 808 l 233 1017 l 442 1017 l 442 808 l 233 808 m -53 808 l -53 1017 l 156 1017 l 156 808 l -53 808 z "},"ḯ":{"ha":390,"x_min":-53,"x_max":442,"o":"m 72 0 l 72 683 l 319 683 l 319 0 l 72 0 m 122 965 l 201 1133 l 425 1133 l 267 965 l 122 965 m -53 774 l -53 919 l 156 919 l 156 774 l -53 774 m 233 774 l 233 919 l 442 919 l 442 774 l 233 774 z "},"ị":{"ha":390,"x_min":65,"x_max":325,"o":"m 65 801 l 65 1025 l 325 1025 l 325 801 l 65 801 m 72 0 l 72 683 l 319 683 l 319 0 l 72 0 m 85 -311 l 85 -104 l 307 -104 l 307 -311 l 85 -311 z "},"ì":{"ha":390,"x_min":-99,"x_max":319,"o":"m 72 0 l 72 683 l 319 683 l 319 0 l 72 0 m 115 774 l -99 1058 l 133 1058 l 274 774 l 115 774 z "},"ỉ":{"ha":390,"x_min":31,"x_max":369,"o":"m 72 0 l 72 683 l 319 683 l 319 0 l 72 0 m 124 774 l 124 804 q 140 858 124 838 q 174 894 157 878 q 192 931 192 910 q 146 961 192 961 q 67 940 106 961 l 31 1035 q 206 1071 99 1071 q 326 1044 283 1071 q 369 967 369 1017 q 354 908 369 929 q 318 871 339 886 q 281 839 297 856 q 265 796 265 822 l 265 774 l 124 774 z "},"ȋ":{"ha":390,"x_min":-56,"x_max":444,"o":"m 72 0 l 72 683 l 319 683 l 319 0 l 72 0 m 76 768 l -56 779 q 15 979 -54 904 q 194 1054 83 1054 q 374 979 306 1054 q 444 779 443 904 l 313 768 q 276 875 307 838 q 194 913 246 913 q 113 875 143 913 q 76 768 82 838 z "},"ī":{"ha":390,"x_min":-39,"x_max":429,"o":"m 72 0 l 72 683 l 319 683 l 319 0 l 72 0 m -39 840 l -39 975 l 429 975 l 429 840 l -39 840 z "},"į":{"ha":390,"x_min":40,"x_max":360,"o":"m 72 0 l 72 683 l 319 683 l 319 0 l 72 0 m 64 801 l 64 1025 l 325 1025 l 325 801 l 64 801 m 226 -275 q 89 -233 138 -275 q 40 -121 40 -192 q 83 -8 40 -58 q 193 67 125 43 l 260 0 q 204 -40 222 -14 q 186 -92 186 -65 q 207 -137 186 -121 q 260 -154 228 -154 q 299 -151 282 -154 q 338 -140 317 -147 l 360 -251 q 294 -270 324 -265 q 226 -275 264 -275 z "},"ĩ":{"ha":390,"x_min":-99,"x_max":488,"o":"m 72 0 l 72 683 l 319 683 l 319 0 l 72 0 m 15 801 l -99 808 q -40 978 -92 918 q 90 1038 11 1038 q 149 1027 122 1038 q 207 997 175 1017 q 254 971 236 978 q 292 964 272 964 q 374 1046 360 964 l 488 1038 q 430 868 482 928 q 300 808 378 808 q 241 819 268 808 q 179 851 214 829 q 99 883 131 883 q 42 862 61 883 q 15 801 22 840 z "},"j":{"ha":399,"x_min":-71,"x_max":332,"o":"m 71 801 l 71 1025 l 332 1025 l 332 801 l 71 801 m -54 -268 l -71 -94 l -3 -86 q 60 -60 40 -81 q 79 4 79 -39 l 79 683 l 326 683 l 326 39 q 297 -128 326 -64 q 197 -224 267 -192 q 7 -264 126 -256 l -54 -268 z "},"ȷ":{"ha":399,"x_min":-71,"x_max":326,"o":"m -54 -268 l -71 -94 l -3 -86 q 60 -60 40 -81 q 79 4 79 -39 l 79 683 l 326 683 l 326 39 q 297 -128 326 -64 q 197 -224 267 -192 q 7 -264 126 -256 l -54 -268 z "},"ĵ":{"ha":399,"x_min":-71,"x_max":458,"o":"m -54 -268 l -71 -94 l -3 -86 q 60 -60 40 -81 q 79 4 79 -39 l 79 683 l 326 683 l 326 39 q 297 -128 326 -64 q 197 -224 267 -192 q 7 -264 126 -256 l -54 -268 m -56 774 l 99 1058 l 304 1058 l 458 774 l 308 774 l 201 931 l 94 774 l -56 774 z "},"k":{"ha":806,"x_min":72,"x_max":847,"o":"m 72 0 l 72 979 l 319 979 l 319 408 l 322 408 l 547 683 l 838 683 l 567 358 l 847 0 l 551 0 l 322 285 l 319 285 l 319 0 l 72 0 z "},"ǩ":{"ha":806,"x_min":72,"x_max":847,"o":"m 72 0 l 72 979 l 319 979 l 319 408 l 322 408 l 547 683 l 838 683 l 567 358 l 847 0 l 551 0 l 322 285 l 319 285 l 319 0 l 72 0 m 321 1063 l 146 1307 l 313 1307 l 422 1188 l 532 1307 l 699 1307 l 524 1063 l 321 1063 z "},"ķ":{"ha":806,"x_min":72,"x_max":847,"o":"m 72 0 l 72 979 l 319 979 l 319 408 l 322 408 l 547 683 l 838 683 l 567 358 l 847 0 l 551 0 l 322 285 l 319 285 l 319 0 l 72 0 m 431 -403 l 347 -347 q 381 -307 369 -328 q 397 -264 393 -286 l 285 -264 l 285 -90 l 519 -90 l 519 -194 q 500 -310 519 -258 q 431 -403 481 -361 z "},"ĸ":{"ha":806,"x_min":72,"x_max":847,"o":"m 72 0 l 72 683 l 319 683 l 319 408 l 322 408 l 547 683 l 838 683 l 567 358 l 847 0 l 551 0 l 322 285 l 319 285 l 319 0 l 72 0 z "},"l":{"ha":483,"x_min":72,"x_max":465,"o":"m 342 -15 q 136 56 200 -15 q 72 272 72 128 l 72 979 l 319 979 l 319 281 q 408 183 319 183 q 437 185 422 183 q 465 189 451 186 l 463 0 q 342 -15 407 -15 z "},"ĺ":{"ha":483,"x_min":72,"x_max":521,"o":"m 342 -15 q 136 56 200 -15 q 72 272 72 128 l 72 979 l 319 979 l 319 281 q 408 183 319 183 q 437 185 422 183 q 465 189 451 186 l 463 0 q 342 -15 407 -15 m 110 1063 l 274 1307 l 521 1307 l 279 1063 l 110 1063 z "},"ľ":{"ha":483,"x_min":72,"x_max":513,"o":"m 342 -15 q 136 56 200 -15 q 72 272 72 128 l 72 979 l 319 979 l 319 281 q 408 183 319 183 q 437 185 422 183 q 465 189 451 186 l 463 0 q 342 -15 407 -15 m 365 708 l 365 979 l 513 979 l 472 708 l 365 708 z "},"ļ":{"ha":483,"x_min":72,"x_max":465,"o":"m 342 -15 q 136 56 200 -15 q 72 272 72 128 l 72 979 l 319 979 l 319 281 q 408 183 319 183 q 437 185 422 183 q 465 189 451 186 l 463 0 q 342 -15 407 -15 m 304 -403 l 221 -347 q 255 -307 243 -328 q 271 -264 267 -286 l 158 -264 l 158 -90 l 393 -90 l 393 -194 q 374 -310 393 -258 q 304 -403 354 -361 z "},"ŀ":{"ha":636,"x_min":72,"x_max":643,"o":"m 342 -15 q 136 56 200 -15 q 72 272 72 128 l 72 979 l 319 979 l 319 281 q 408 183 319 183 q 437 185 422 183 q 465 189 451 186 l 463 0 q 342 -15 407 -15 m 385 385 l 385 606 l 643 606 l 643 385 l 385 385 z "},"ḷ":{"ha":483,"x_min":72,"x_max":465,"o":"m 342 -15 q 136 56 200 -15 q 72 272 72 128 l 72 979 l 319 979 l 319 281 q 408 183 319 183 q 437 185 422 183 q 465 189 451 186 l 463 0 q 342 -15 407 -15 m 165 -311 l 165 -104 l 388 -104 l 388 -311 l 165 -311 z "},"ǉ":{"ha":882,"x_min":72,"x_max":815,"o":"m 342 -15 q 136 56 200 -15 q 72 272 72 128 l 72 979 l 319 979 l 319 281 q 408 183 319 183 q 437 185 422 183 q 465 189 451 186 l 463 0 q 342 -15 407 -15 m 554 801 l 554 1025 l 815 1025 l 815 801 l 554 801 m 429 -268 l 413 -94 l 481 -86 q 543 -60 524 -81 q 563 4 563 -39 l 563 683 l 810 683 l 810 39 q 780 -128 810 -64 q 680 -224 750 -192 q 490 -264 610 -256 l 429 -268 z "},"ḻ":{"ha":483,"x_min":43,"x_max":511,"o":"m 342 -15 q 136 56 200 -15 q 72 272 72 128 l 72 979 l 319 979 l 319 281 q 408 183 319 183 q 437 185 422 183 q 465 189 451 186 l 463 0 q 342 -15 407 -15 m 43 -243 l 43 -108 l 511 -108 l 511 -243 l 43 -243 z "},"ł":{"ha":483,"x_min":-81,"x_max":499,"o":"m 342 -15 q 136 56 200 -15 q 72 272 72 128 l 72 979 l 319 979 l 319 281 q 408 183 319 183 q 437 185 422 183 q 465 189 451 186 l 463 0 q 342 -15 407 -15 m 11 272 l -81 435 l 407 718 l 499 554 l 11 272 z "},"m":{"ha":1253,"x_min":75,"x_max":1182,"o":"m 75 0 l 75 683 l 315 683 l 315 592 q 401 669 347 640 q 524 699 454 699 q 644 668 593 699 q 721 574 694 638 q 815 666 756 633 q 947 699 875 699 q 1124 627 1067 699 q 1182 404 1182 556 l 1182 0 l 935 0 l 935 397 q 917 483 935 457 q 857 510 899 510 q 778 474 806 510 q 751 371 751 438 l 751 0 l 504 0 l 504 397 q 486 483 504 457 q 426 510 468 510 q 349 474 376 510 q 322 371 322 438 l 322 0 l 75 0 z "},"ṃ":{"ha":1253,"x_min":75,"x_max":1182,"o":"m 75 0 l 75 683 l 315 683 l 315 592 q 401 669 347 640 q 524 699 454 699 q 644 668 593 699 q 721 574 694 638 q 815 666 756 633 q 947 699 875 699 q 1124 627 1067 699 q 1182 404 1182 556 l 1182 0 l 935 0 l 935 397 q 917 483 935 457 q 857 510 899 510 q 778 474 806 510 q 751 371 751 438 l 751 0 l 504 0 l 504 397 q 486 483 504 457 q 426 510 468 510 q 349 474 376 510 q 322 371 322 438 l 322 0 l 75 0 m 517 -311 l 517 -104 l 739 -104 l 739 -311 l 517 -311 z "},"n":{"ha":842,"x_min":72,"x_max":774,"o":"m 72 0 l 72 683 l 313 683 l 313 590 q 406 671 349 643 q 533 699 463 699 q 715 626 656 699 q 774 404 774 554 l 774 0 l 526 0 l 526 394 q 505 483 526 457 q 442 510 483 510 q 353 474 386 510 q 319 379 319 439 l 319 0 l 72 0 z "},"ń":{"ha":842,"x_min":72,"x_max":774,"o":"m 72 0 l 72 683 l 313 683 l 313 590 q 406 671 349 643 q 533 699 463 699 q 715 626 656 699 q 774 404 774 554 l 774 0 l 526 0 l 526 394 q 505 483 526 457 q 442 510 483 510 q 353 474 386 510 q 319 379 319 439 l 319 0 l 72 0 m 344 774 l 485 1058 l 717 1058 l 503 774 l 344 774 z "},"ŉ":{"ha":840,"x_min":-57,"x_max":774,"o":"m 89 779 l 6 836 q 40 874 28 854 q 56 915 51 894 l -57 915 l -57 1092 l 178 1092 l 178 986 q 159 873 178 924 q 89 779 140 822 m 72 0 l 72 683 l 313 683 l 313 590 q 406 671 349 643 q 533 699 463 699 q 715 626 656 699 q 774 404 774 554 l 774 0 l 526 0 l 526 394 q 505 483 526 457 q 442 510 483 510 q 353 474 386 510 q 319 379 319 439 l 319 0 l 72 0 z "},"ň":{"ha":842,"x_min":72,"x_max":774,"o":"m 72 0 l 72 683 l 313 683 l 313 590 q 406 671 349 643 q 533 699 463 699 q 715 626 656 699 q 774 404 774 554 l 774 0 l 526 0 l 526 394 q 505 483 526 457 q 442 510 483 510 q 353 474 386 510 q 319 379 319 439 l 319 0 l 72 0 m 321 774 l 167 1058 l 317 1058 l 424 901 l 531 1058 l 681 1058 l 526 774 l 321 774 z "},"ņ":{"ha":842,"x_min":72,"x_max":774,"o":"m 72 0 l 72 683 l 313 683 l 313 590 q 406 671 349 643 q 533 699 463 699 q 715 626 656 699 q 774 404 774 554 l 774 0 l 526 0 l 526 394 q 505 483 526 457 q 442 510 483 510 q 353 474 386 510 q 319 379 319 439 l 319 0 l 72 0 m 451 -403 l 368 -347 q 402 -307 390 -328 q 418 -264 414 -286 l 306 -264 l 306 -90 l 540 -90 l 540 -194 q 521 -310 540 -258 q 451 -403 501 -361 z "},"ṅ":{"ha":842,"x_min":72,"x_max":774,"o":"m 72 0 l 72 683 l 313 683 l 313 590 q 406 671 349 643 q 533 699 463 699 q 715 626 656 699 q 774 404 774 554 l 774 0 l 526 0 l 526 394 q 505 483 526 457 q 442 510 483 510 q 353 474 386 510 q 319 379 319 439 l 319 0 l 72 0 m 313 810 l 313 1018 l 535 1018 l 535 810 l 313 810 z "},"ṇ":{"ha":842,"x_min":72,"x_max":774,"o":"m 72 0 l 72 683 l 313 683 l 313 590 q 406 671 349 643 q 533 699 463 699 q 715 626 656 699 q 774 404 774 554 l 774 0 l 526 0 l 526 394 q 505 483 526 457 q 442 510 483 510 q 353 474 386 510 q 319 379 319 439 l 319 0 l 72 0 m 313 -311 l 313 -104 l 535 -104 l 535 -311 l 313 -311 z "},"ŋ":{"ha":842,"x_min":72,"x_max":774,"o":"m 393 -268 l 378 -94 l 444 -86 q 507 -60 488 -81 q 526 4 526 -39 l 526 394 q 505 483 526 457 q 442 510 483 510 q 353 474 386 510 q 319 379 319 439 l 319 0 l 72 0 l 72 683 l 313 683 l 313 590 q 406 671 349 643 q 533 699 463 699 q 715 626 656 699 q 774 404 774 554 l 774 39 q 744 -128 774 -64 q 644 -224 714 -192 q 454 -264 574 -256 l 393 -268 z "},"ǌ":{"ha":1240,"x_min":72,"x_max":1174,"o":"m 72 0 l 72 683 l 313 683 l 313 590 q 406 671 349 643 q 533 699 463 699 q 715 626 656 699 q 774 404 774 554 l 774 0 l 526 0 l 526 394 q 505 483 526 457 q 442 510 483 510 q 353 474 386 510 q 319 379 319 439 l 319 0 l 72 0 m 913 801 l 913 1025 l 1174 1025 l 1174 801 l 913 801 m 788 -268 l 771 -94 l 839 -86 q 901 -60 882 -81 q 921 4 921 -39 l 921 683 l 1168 683 l 1168 39 q 1138 -128 1168 -64 q 1038 -224 1108 -192 q 849 -264 968 -256 l 788 -268 z "},"ṉ":{"ha":842,"x_min":72,"x_max":774,"o":"m 72 0 l 72 683 l 313 683 l 313 590 q 406 671 349 643 q 533 699 463 699 q 715 626 656 699 q 774 404 774 554 l 774 0 l 526 0 l 526 394 q 505 483 526 457 q 442 510 483 510 q 353 474 386 510 q 319 379 319 439 l 319 0 l 72 0 m 190 -243 l 190 -108 l 658 -108 l 658 -243 l 190 -243 z "},"ñ":{"ha":842,"x_min":72,"x_max":774,"o":"m 72 0 l 72 683 l 313 683 l 313 590 q 406 671 349 643 q 533 699 463 699 q 715 626 656 699 q 774 404 774 554 l 774 0 l 526 0 l 526 394 q 505 483 526 457 q 442 510 483 510 q 353 474 386 510 q 319 379 319 439 l 319 0 l 72 0 m 244 801 l 131 808 q 189 978 138 918 q 319 1038 240 1038 q 378 1027 351 1038 q 436 997 404 1017 q 483 971 465 978 q 521 964 501 964 q 603 1046 589 964 l 717 1038 q 659 868 711 928 q 529 808 607 808 q 470 819 497 808 q 408 851 443 829 q 328 883 360 883 q 271 862 290 883 q 244 801 251 840 z "},"o":{"ha":836,"x_min":40,"x_max":794,"o":"m 418 -15 q 219 28 304 -15 q 88 151 135 71 q 40 342 40 232 q 88 533 40 453 q 219 656 135 613 q 418 699 304 699 q 617 656 532 699 q 748 533 701 613 q 794 342 794 453 q 748 151 794 232 q 617 28 701 71 q 418 -15 532 -15 m 418 167 q 510 208 474 167 q 546 342 546 250 q 510 476 546 435 q 418 517 474 517 q 325 476 361 517 q 289 342 289 435 q 325 208 289 250 q 418 167 361 167 z "},"ó":{"ha":836,"x_min":40,"x_max":794,"o":"m 418 -15 q 219 28 304 -15 q 88 151 135 71 q 40 342 40 232 q 88 533 40 453 q 219 656 135 613 q 418 699 304 699 q 617 656 532 699 q 748 533 701 613 q 794 342 794 453 q 748 151 794 232 q 617 28 701 71 q 418 -15 532 -15 m 418 167 q 510 208 474 167 q 546 342 546 250 q 510 476 546 435 q 418 517 474 517 q 325 476 361 517 q 289 342 289 435 q 325 208 289 250 q 418 167 361 167 m 339 774 l 479 1058 l 711 1058 l 497 774 l 339 774 z "},"ŏ":{"ha":836,"x_min":40,"x_max":794,"o":"m 418 -15 q 219 28 304 -15 q 88 151 135 71 q 40 342 40 232 q 88 533 40 453 q 219 656 135 613 q 418 699 304 699 q 617 656 532 699 q 748 533 701 613 q 794 342 794 453 q 748 151 794 232 q 617 28 701 71 q 418 -15 532 -15 m 418 167 q 510 208 474 167 q 546 342 546 250 q 510 476 546 435 q 418 517 474 517 q 325 476 361 517 q 289 342 289 435 q 325 208 289 250 q 418 167 361 167 m 418 768 q 238 842 307 768 q 168 1042 169 917 l 300 1054 q 336 946 306 983 q 418 908 367 908 q 500 946 469 908 q 536 1054 531 983 l 668 1042 q 598 842 667 917 q 418 768 529 768 z "},"ô":{"ha":836,"x_min":40,"x_max":794,"o":"m 418 -15 q 219 28 304 -15 q 88 151 135 71 q 40 342 40 232 q 88 533 40 453 q 219 656 135 613 q 418 699 304 699 q 617 656 532 699 q 748 533 701 613 q 794 342 794 453 q 748 151 794 232 q 617 28 701 71 q 418 -15 532 -15 m 418 167 q 510 208 474 167 q 546 342 546 250 q 510 476 546 435 q 418 517 474 517 q 325 476 361 517 q 289 342 289 435 q 325 208 289 250 q 418 167 361 167 m 161 774 l 315 1058 l 521 1058 l 675 774 l 525 774 l 418 931 l 311 774 l 161 774 z "},"ố":{"ha":836,"x_min":40,"x_max":896,"o":"m 418 -15 q 219 28 304 -15 q 88 151 135 71 q 40 342 40 232 q 88 533 40 453 q 219 656 135 613 q 418 699 304 699 q 617 656 532 699 q 748 533 701 613 q 794 342 794 453 q 748 151 794 232 q 617 28 701 71 q 418 -15 532 -15 m 418 167 q 510 208 474 167 q 546 342 546 250 q 510 476 546 435 q 418 517 474 517 q 325 476 361 517 q 289 342 289 435 q 325 208 289 250 q 418 167 361 167 m 593 925 l 707 1133 l 896 1133 l 724 925 l 593 925 m 161 774 l 315 1003 l 521 1003 l 675 774 l 525 774 l 418 881 l 311 774 l 161 774 z "},"ộ":{"ha":836,"x_min":40,"x_max":794,"o":"m 418 -15 q 219 28 304 -15 q 88 151 135 71 q 40 342 40 232 q 88 533 40 453 q 219 656 135 613 q 418 699 304 699 q 617 656 532 699 q 748 533 701 613 q 794 342 794 453 q 748 151 794 232 q 617 28 701 71 q 418 -15 532 -15 m 418 167 q 510 208 474 167 q 546 342 546 250 q 510 476 546 435 q 418 517 474 517 q 325 476 361 517 q 289 342 289 435 q 325 208 289 250 q 418 167 361 167 m 307 -311 l 307 -104 l 529 -104 l 529 -311 l 307 -311 m 161 774 l 315 1058 l 521 1058 l 675 774 l 525 774 l 418 931 l 311 774 l 161 774 z "},"ồ":{"ha":836,"x_min":40,"x_max":794,"o":"m 418 -15 q 219 28 304 -15 q 88 151 135 71 q 40 342 40 232 q 88 533 40 453 q 219 656 135 613 q 418 699 304 699 q 617 656 532 699 q 748 533 701 613 q 794 342 794 453 q 748 151 794 232 q 617 28 701 71 q 418 -15 532 -15 m 418 167 q 510 208 474 167 q 546 342 546 250 q 510 476 546 435 q 418 517 474 517 q 325 476 361 517 q 289 342 289 435 q 325 208 289 250 q 418 167 361 167 m 647 925 l 475 1133 l 665 1133 l 778 925 l 647 925 m 161 774 l 315 1003 l 521 1003 l 675 774 l 525 774 l 418 881 l 311 774 l 161 774 z "},"ổ":{"ha":836,"x_min":40,"x_max":797,"o":"m 418 -15 q 219 28 304 -15 q 88 151 135 71 q 40 342 40 232 q 88 533 40 453 q 219 656 135 613 q 418 699 304 699 q 617 656 532 699 q 748 533 701 613 q 794 342 794 453 q 748 151 794 232 q 617 28 701 71 q 418 -15 532 -15 m 418 167 q 510 208 474 167 q 546 342 546 250 q 510 476 546 435 q 418 517 474 517 q 325 476 361 517 q 289 342 289 435 q 325 208 289 250 q 418 167 361 167 m 588 917 q 601 960 588 943 q 628 991 615 978 q 642 1019 642 1004 q 631 1033 642 1029 q 608 1038 621 1038 q 569 1034 589 1038 q 532 1022 550 1031 l 504 1103 q 570 1124 535 1117 q 660 1131 606 1131 q 761 1113 725 1131 q 797 1061 797 1094 q 785 1020 797 1038 q 756 988 772 1003 q 726 956 739 972 q 714 917 714 939 l 588 917 m 161 765 l 315 994 l 521 994 l 675 765 l 525 765 l 418 872 l 311 765 l 161 765 z "},"ỗ":{"ha":836,"x_min":40,"x_max":794,"o":"m 418 -15 q 219 28 304 -15 q 88 151 135 71 q 40 342 40 232 q 88 533 40 453 q 219 656 135 613 q 418 699 304 699 q 617 656 532 699 q 748 533 701 613 q 794 342 794 453 q 748 151 794 232 q 617 28 701 71 q 418 -15 532 -15 m 418 167 q 510 208 474 167 q 546 342 546 250 q 510 476 546 435 q 418 517 474 517 q 325 476 361 517 q 289 342 289 435 q 325 208 289 250 q 418 167 361 167 m 258 993 l 156 997 q 208 1118 161 1078 q 324 1158 254 1158 q 377 1151 351 1158 q 432 1132 403 1144 q 504 1111 483 1111 q 578 1158 565 1111 l 681 1153 q 628 1033 675 1074 q 513 993 582 993 q 457 1001 485 993 q 400 1021 429 1008 q 332 1040 357 1040 q 283 1028 300 1040 q 258 993 265 1017 m 161 774 l 315 961 l 521 961 l 675 774 l 531 774 l 418 851 l 306 774 l 161 774 z "},"ȍ":{"ha":836,"x_min":40,"x_max":794,"o":"m 418 -15 q 219 28 304 -15 q 88 151 135 71 q 40 342 40 232 q 88 533 40 453 q 219 656 135 613 q 418 699 304 699 q 617 656 532 699 q 748 533 701 613 q 794 342 794 453 q 748 151 794 232 q 617 28 701 71 q 418 -15 532 -15 m 418 167 q 510 208 474 167 q 546 342 546 250 q 510 476 546 435 q 418 517 474 517 q 325 476 361 517 q 289 342 289 435 q 325 208 289 250 q 418 167 361 167 m 479 774 l 349 1058 l 544 1058 l 606 774 l 479 774 m 239 774 l 107 1058 l 303 1058 l 365 774 l 239 774 z "},"ö":{"ha":836,"x_min":40,"x_max":794,"o":"m 418 -15 q 219 28 304 -15 q 88 151 135 71 q 40 342 40 232 q 88 533 40 453 q 219 656 135 613 q 418 699 304 699 q 617 656 532 699 q 748 533 701 613 q 794 342 794 453 q 748 151 794 232 q 617 28 701 71 q 418 -15 532 -15 m 418 167 q 510 208 474 167 q 546 342 546 250 q 510 476 546 435 q 418 517 474 517 q 325 476 361 517 q 289 342 289 435 q 325 208 289 250 q 418 167 361 167 m 457 808 l 457 1017 l 665 1017 l 665 808 l 457 808 m 171 808 l 171 1017 l 379 1017 l 379 808 l 171 808 z "},"ȫ":{"ha":836,"x_min":40,"x_max":794,"o":"m 418 -15 q 219 28 304 -15 q 88 151 135 71 q 40 342 40 232 q 88 533 40 453 q 219 656 135 613 q 418 699 304 699 q 617 656 532 699 q 748 533 701 613 q 794 342 794 453 q 748 151 794 232 q 617 28 701 71 q 418 -15 532 -15 m 418 167 q 510 208 474 167 q 546 342 546 250 q 510 476 546 435 q 418 517 474 517 q 325 476 361 517 q 289 342 289 435 q 325 208 289 250 q 418 167 361 167 m 183 985 l 183 1119 l 653 1119 l 653 985 l 183 985 m 171 782 l 171 928 l 379 928 l 379 782 l 171 782 m 457 782 l 457 928 l 665 928 l 665 782 l 457 782 z "},"ȱ":{"ha":836,"x_min":40,"x_max":794,"o":"m 418 -15 q 219 28 304 -15 q 88 151 135 71 q 40 342 40 232 q 88 533 40 453 q 219 656 135 613 q 418 699 304 699 q 617 656 532 699 q 748 533 701 613 q 794 342 794 453 q 748 151 794 232 q 617 28 701 71 q 418 -15 532 -15 m 418 167 q 510 208 474 167 q 546 342 546 250 q 510 476 546 435 q 418 517 474 517 q 325 476 361 517 q 289 342 289 435 q 325 208 289 250 q 418 167 361 167 m 183 985 l 183 1119 l 653 1119 l 653 985 l 183 985 m 314 782 l 314 928 l 522 928 l 522 782 l 314 782 z "},"ọ":{"ha":836,"x_min":40,"x_max":794,"o":"m 418 -15 q 219 28 304 -15 q 88 151 135 71 q 40 342 40 232 q 88 533 40 453 q 219 656 135 613 q 418 699 304 699 q 617 656 532 699 q 748 533 701 613 q 794 342 794 453 q 748 151 794 232 q 617 28 701 71 q 418 -15 532 -15 m 418 167 q 510 208 474 167 q 546 342 546 250 q 510 476 546 435 q 418 517 474 517 q 325 476 361 517 q 289 342 289 435 q 325 208 289 250 q 418 167 361 167 m 307 -311 l 307 -104 l 529 -104 l 529 -311 l 307 -311 z "},"ò":{"ha":836,"x_min":40,"x_max":794,"o":"m 418 -15 q 219 28 304 -15 q 88 151 135 71 q 40 342 40 232 q 88 533 40 453 q 219 656 135 613 q 418 699 304 699 q 617 656 532 699 q 748 533 701 613 q 794 342 794 453 q 748 151 794 232 q 617 28 701 71 q 418 -15 532 -15 m 418 167 q 510 208 474 167 q 546 342 546 250 q 510 476 546 435 q 418 517 474 517 q 325 476 361 517 q 289 342 289 435 q 325 208 289 250 q 418 167 361 167 m 339 774 l 125 1058 l 357 1058 l 497 774 l 339 774 z "},"ỏ":{"ha":836,"x_min":40,"x_max":794,"o":"m 418 -15 q 219 28 304 -15 q 88 151 135 71 q 40 342 40 232 q 88 533 40 453 q 219 656 135 613 q 418 699 304 699 q 617 656 532 699 q 748 533 701 613 q 794 342 794 453 q 748 151 794 232 q 617 28 701 71 q 418 -15 532 -15 m 418 167 q 510 208 474 167 q 546 342 546 250 q 510 476 546 435 q 418 517 474 517 q 325 476 361 517 q 289 342 289 435 q 325 208 289 250 q 418 167 361 167 m 347 774 l 347 804 q 364 858 347 838 q 398 894 381 878 q 415 931 415 910 q 369 961 415 961 q 290 940 329 961 l 254 1035 q 429 1071 322 1071 q 550 1044 507 1071 q 593 967 593 1017 q 578 908 593 929 q 542 871 563 886 q 505 839 521 856 q 489 796 489 822 l 489 774 l 347 774 z "},"ơ":{"ha":836,"x_min":40,"x_max":839,"o":"m 418 -15 q 219 28 304 -15 q 88 151 135 71 q 40 342 40 232 q 88 533 40 453 q 219 656 135 613 q 418 699 304 699 q 617 656 532 699 q 748 533 701 613 q 794 342 794 453 q 748 151 794 232 q 617 28 701 71 q 418 -15 532 -15 m 418 167 q 510 208 474 167 q 546 342 546 250 q 510 476 546 435 q 418 517 474 517 q 325 476 361 517 q 289 342 289 435 q 325 208 289 250 q 418 167 361 167 m 660 572 l 511 663 l 511 683 q 574 693 549 683 q 614 732 600 703 q 628 818 628 761 l 628 856 l 839 856 l 839 789 q 789 644 839 704 q 660 572 739 583 z "},"ớ":{"ha":836,"x_min":40,"x_max":839,"o":"m 418 -15 q 219 28 304 -15 q 88 151 135 71 q 40 342 40 232 q 88 533 40 453 q 219 656 135 613 q 418 699 304 699 q 617 656 532 699 q 748 533 701 613 q 794 342 794 453 q 748 151 794 232 q 617 28 701 71 q 418 -15 532 -15 m 418 167 q 510 208 474 167 q 546 342 546 250 q 510 476 546 435 q 418 517 474 517 q 325 476 361 517 q 289 342 289 435 q 325 208 289 250 q 418 167 361 167 m 660 572 l 511 663 l 511 683 q 574 693 549 683 q 614 732 600 703 q 628 818 628 761 l 628 856 l 839 856 l 839 789 q 789 644 839 704 q 660 572 739 583 m 338 774 l 478 1058 l 710 1058 l 496 774 l 338 774 z "},"ợ":{"ha":836,"x_min":40,"x_max":839,"o":"m 418 -15 q 219 28 304 -15 q 88 151 135 71 q 40 342 40 232 q 88 533 40 453 q 219 656 135 613 q 418 699 304 699 q 617 656 532 699 q 748 533 701 613 q 794 342 794 453 q 748 151 794 232 q 617 28 701 71 q 418 -15 532 -15 m 418 167 q 510 208 474 167 q 546 342 546 250 q 510 476 546 435 q 418 517 474 517 q 325 476 361 517 q 289 342 289 435 q 325 208 289 250 q 418 167 361 167 m 660 572 l 511 663 l 511 683 q 574 693 549 683 q 614 732 600 703 q 628 818 628 761 l 628 856 l 839 856 l 839 789 q 789 644 839 704 q 660 572 739 583 m 306 -311 l 306 -104 l 528 -104 l 528 -311 l 306 -311 z "},"ờ":{"ha":836,"x_min":40,"x_max":839,"o":"m 418 -15 q 219 28 304 -15 q 88 151 135 71 q 40 342 40 232 q 88 533 40 453 q 219 656 135 613 q 418 699 304 699 q 617 656 532 699 q 748 533 701 613 q 794 342 794 453 q 748 151 794 232 q 617 28 701 71 q 418 -15 532 -15 m 418 167 q 510 208 474 167 q 546 342 546 250 q 510 476 546 435 q 418 517 474 517 q 325 476 361 517 q 289 342 289 435 q 325 208 289 250 q 418 167 361 167 m 660 572 l 511 663 l 511 683 q 574 693 549 683 q 614 732 600 703 q 628 818 628 761 l 628 856 l 839 856 l 839 789 q 789 644 839 704 q 660 572 739 583 m 338 774 l 124 1058 l 356 1058 l 496 774 l 338 774 z "},"ở":{"ha":836,"x_min":40,"x_max":839,"o":"m 418 -15 q 219 28 304 -15 q 88 151 135 71 q 40 342 40 232 q 88 533 40 453 q 219 656 135 613 q 418 699 304 699 q 617 656 532 699 q 748 533 701 613 q 794 342 794 453 q 748 151 794 232 q 617 28 701 71 q 418 -15 532 -15 m 418 167 q 510 208 474 167 q 546 342 546 250 q 510 476 546 435 q 418 517 474 517 q 325 476 361 517 q 289 342 289 435 q 325 208 289 250 q 418 167 361 167 m 660 572 l 511 663 l 511 683 q 574 693 549 683 q 614 732 600 703 q 628 818 628 761 l 628 856 l 839 856 l 839 789 q 789 644 839 704 q 660 572 739 583 m 346 774 l 346 804 q 363 858 346 838 q 397 894 379 878 q 414 931 414 910 q 368 961 414 961 q 289 940 328 961 l 253 1035 q 428 1071 321 1071 q 549 1044 506 1071 q 592 967 592 1017 q 576 908 592 929 q 540 871 561 886 q 503 839 519 856 q 488 796 488 822 l 488 774 l 346 774 z "},"ỡ":{"ha":836,"x_min":40,"x_max":839,"o":"m 418 -15 q 219 28 304 -15 q 88 151 135 71 q 40 342 40 232 q 88 533 40 453 q 219 656 135 613 q 418 699 304 699 q 617 656 532 699 q 748 533 701 613 q 794 342 794 453 q 748 151 794 232 q 617 28 701 71 q 418 -15 532 -15 m 418 167 q 510 208 474 167 q 546 342 546 250 q 510 476 546 435 q 418 517 474 517 q 325 476 361 517 q 289 342 289 435 q 325 208 289 250 q 418 167 361 167 m 660 572 l 511 663 l 511 683 q 574 693 549 683 q 614 732 600 703 q 628 818 628 761 l 628 856 l 839 856 l 839 789 q 789 644 839 704 q 660 572 739 583 m 239 801 l 126 808 q 179 978 132 919 q 296 1038 226 1038 q 347 1028 324 1038 q 403 996 369 1019 q 478 964 449 964 q 553 1046 540 964 l 665 1038 q 614 868 661 928 q 497 808 567 808 q 444 819 468 808 q 389 851 421 829 q 344 877 361 871 q 314 883 328 883 q 239 801 253 883 z "},"ő":{"ha":836,"x_min":40,"x_max":794,"o":"m 418 -15 q 219 28 304 -15 q 88 151 135 71 q 40 342 40 232 q 88 533 40 453 q 219 656 135 613 q 418 699 304 699 q 617 656 532 699 q 748 533 701 613 q 794 342 794 453 q 748 151 794 232 q 617 28 701 71 q 418 -15 532 -15 m 418 167 q 510 208 474 167 q 546 342 546 250 q 510 476 546 435 q 418 517 474 517 q 325 476 361 517 q 289 342 289 435 q 325 208 289 250 q 418 167 361 167 m 472 774 l 533 1058 l 729 1058 l 599 774 l 472 774 m 231 774 l 292 1058 l 488 1058 l 357 774 l 231 774 z "},"ȏ":{"ha":836,"x_min":40,"x_max":794,"o":"m 418 -15 q 219 28 304 -15 q 88 151 135 71 q 40 342 40 232 q 88 533 40 453 q 219 656 135 613 q 418 699 304 699 q 617 656 532 699 q 748 533 701 613 q 794 342 794 453 q 748 151 794 232 q 617 28 701 71 q 418 -15 532 -15 m 418 167 q 510 208 474 167 q 546 342 546 250 q 510 476 546 435 q 418 517 474 517 q 325 476 361 517 q 289 342 289 435 q 325 208 289 250 q 418 167 361 167 m 300 768 l 168 779 q 238 979 169 904 q 418 1054 307 1054 q 598 979 529 1054 q 668 779 667 904 l 536 768 q 500 875 531 838 q 418 913 469 913 q 336 875 367 913 q 300 768 306 838 z "},"ō":{"ha":836,"x_min":40,"x_max":794,"o":"m 418 -15 q 219 28 304 -15 q 88 151 135 71 q 40 342 40 232 q 88 533 40 453 q 219 656 135 613 q 418 699 304 699 q 617 656 532 699 q 748 533 701 613 q 794 342 794 453 q 748 151 794 232 q 617 28 701 71 q 418 -15 532 -15 m 418 167 q 510 208 474 167 q 546 342 546 250 q 510 476 546 435 q 418 517 474 517 q 325 476 361 517 q 289 342 289 435 q 325 208 289 250 q 418 167 361 167 m 185 840 l 185 975 l 653 975 l 653 840 l 185 840 z "},"ṓ":{"ha":836,"x_min":40,"x_max":794,"o":"m 418 -15 q 219 28 304 -15 q 88 151 135 71 q 40 342 40 232 q 88 533 40 453 q 219 656 135 613 q 418 699 304 699 q 617 656 532 699 q 748 533 701 613 q 794 342 794 453 q 748 151 794 232 q 617 28 701 71 q 418 -15 532 -15 m 418 167 q 510 208 474 167 q 546 342 546 250 q 510 476 546 435 q 418 517 474 517 q 325 476 361 517 q 289 342 289 435 q 325 208 289 250 q 418 167 361 167 m 346 965 l 425 1133 l 649 1133 l 490 965 l 346 965 m 185 779 l 185 914 l 653 914 l 653 779 l 185 779 z "},"ṑ":{"ha":836,"x_min":40,"x_max":794,"o":"m 418 -15 q 219 28 304 -15 q 88 151 135 71 q 40 342 40 232 q 88 533 40 453 q 219 656 135 613 q 418 699 304 699 q 617 656 532 699 q 748 533 701 613 q 794 342 794 453 q 748 151 794 232 q 617 28 701 71 q 418 -15 532 -15 m 418 167 q 510 208 474 167 q 546 342 546 250 q 510 476 546 435 q 418 517 474 517 q 325 476 361 517 q 289 342 289 435 q 325 208 289 250 q 418 167 361 167 m 346 965 l 188 1133 l 411 1133 l 490 965 l 346 965 m 185 779 l 185 914 l 653 914 l 653 779 l 185 779 z "},"ǫ":{"ha":836,"x_min":40,"x_max":794,"o":"m 418 -15 q 219 28 304 -15 q 88 151 135 71 q 40 342 40 232 q 88 533 40 453 q 219 656 135 613 q 418 699 304 699 q 617 656 532 699 q 748 533 701 613 q 794 342 794 453 q 748 151 794 232 q 617 28 701 71 q 418 -15 532 -15 m 418 167 q 510 208 474 167 q 546 342 546 250 q 510 476 546 435 q 418 517 474 517 q 325 476 361 517 q 289 342 289 435 q 325 208 289 250 q 418 167 361 167 m 467 -275 q 329 -233 378 -275 q 281 -121 281 -192 q 323 -8 281 -58 q 433 67 365 43 l 500 0 q 444 -40 463 -14 q 426 -92 426 -65 q 447 -137 426 -121 q 500 -154 468 -154 q 540 -151 522 -154 q 578 -140 557 -147 l 600 -251 q 534 -270 564 -265 q 467 -275 504 -275 z "},"ø":{"ha":836,"x_min":40,"x_max":794,"o":"m 238 -97 l 124 -31 l 174 56 q 75 174 110 101 q 40 342 40 247 q 88 533 40 453 q 219 656 135 613 q 418 699 304 699 q 543 683 485 699 l 600 781 l 714 714 l 663 628 q 760 509 725 582 q 794 342 794 436 q 748 151 794 232 q 617 28 701 71 q 418 -15 532 -15 q 294 0 351 -15 l 238 -97 m 268 343 q 285 244 268 285 l 451 526 q 418 531 435 531 q 309 485 350 531 q 268 343 268 439 m 418 154 q 526 200 486 154 q 567 343 567 246 q 551 439 567 399 l 386 157 q 418 154 401 154 z "},"ǿ":{"ha":836,"x_min":40,"x_max":794,"o":"m 238 -97 l 124 -31 l 174 56 q 75 174 110 101 q 40 342 40 247 q 88 533 40 453 q 219 656 135 613 q 418 699 304 699 q 543 683 485 699 l 600 781 l 714 714 l 663 628 q 760 509 725 582 q 794 342 794 436 q 748 151 794 232 q 617 28 701 71 q 418 -15 532 -15 q 294 0 351 -15 l 238 -97 m 268 343 q 285 244 268 285 l 451 526 q 418 531 435 531 q 309 485 350 531 q 268 343 268 439 m 418 154 q 526 200 486 154 q 567 343 567 246 q 551 439 567 399 l 386 157 q 418 154 401 154 m 338 774 l 478 1058 l 710 1058 l 496 774 l 338 774 z "},"õ":{"ha":836,"x_min":40,"x_max":794,"o":"m 418 -15 q 219 28 304 -15 q 88 151 135 71 q 40 342 40 232 q 88 533 40 453 q 219 656 135 613 q 418 699 304 699 q 617 656 532 699 q 748 533 701 613 q 794 342 794 453 q 748 151 794 232 q 617 28 701 71 q 418 -15 532 -15 m 418 167 q 510 208 474 167 q 546 342 546 250 q 510 476 546 435 q 418 517 474 517 q 325 476 361 517 q 289 342 289 435 q 325 208 289 250 q 418 167 361 167 m 239 801 l 125 808 q 183 978 132 918 q 314 1038 235 1038 q 372 1027 346 1038 q 431 997 399 1017 q 478 971 460 978 q 515 964 496 964 q 597 1046 583 964 l 711 1038 q 653 868 706 928 q 524 808 601 808 q 465 819 492 808 q 403 851 438 829 q 322 883 354 883 q 265 862 285 883 q 239 801 246 840 z "},"ṍ":{"ha":836,"x_min":40,"x_max":794,"o":"m 418 -15 q 219 28 304 -15 q 88 151 135 71 q 40 342 40 232 q 88 533 40 453 q 219 656 135 613 q 418 699 304 699 q 617 656 532 699 q 748 533 701 613 q 794 342 794 453 q 748 151 794 232 q 617 28 701 71 q 418 -15 532 -15 m 418 167 q 510 208 474 167 q 546 342 546 250 q 510 476 546 435 q 418 517 474 517 q 325 476 361 517 q 289 342 289 435 q 325 208 289 250 q 418 167 361 167 m 346 965 l 425 1133 l 649 1133 l 490 965 l 346 965 m 258 768 l 156 774 q 208 893 161 853 q 324 933 254 933 q 376 927 350 933 q 429 908 401 921 q 470 893 451 899 q 504 888 489 888 q 578 935 565 888 l 681 929 q 628 808 675 849 q 513 768 582 768 q 457 776 485 768 q 403 796 429 783 q 363 810 381 804 q 332 815 344 815 q 283 803 300 815 q 258 768 265 792 z "},"ṏ":{"ha":836,"x_min":40,"x_max":794,"o":"m 418 -15 q 219 28 304 -15 q 88 151 135 71 q 40 342 40 232 q 88 533 40 453 q 219 656 135 613 q 418 699 304 699 q 617 656 532 699 q 748 533 701 613 q 794 342 794 453 q 748 151 794 232 q 617 28 701 71 q 418 -15 532 -15 m 418 167 q 510 208 474 167 q 546 342 546 250 q 510 476 546 435 q 418 517 474 517 q 325 476 361 517 q 289 342 289 435 q 325 208 289 250 q 418 167 361 167 m 172 975 l 172 1121 l 378 1121 l 378 975 l 172 975 m 458 975 l 458 1121 l 665 1121 l 665 975 l 458 975 m 258 768 l 156 774 q 208 893 161 853 q 324 933 254 933 q 376 927 350 933 q 429 908 401 921 q 470 893 451 899 q 504 888 489 888 q 578 935 565 888 l 681 929 q 628 808 675 849 q 513 768 582 768 q 457 776 485 768 q 403 796 429 783 q 363 810 381 804 q 332 815 344 815 q 283 803 300 815 q 258 768 265 792 z "},"ȭ":{"ha":836,"x_min":40,"x_max":794,"o":"m 418 -15 q 219 28 304 -15 q 88 151 135 71 q 40 342 40 232 q 88 533 40 453 q 219 656 135 613 q 418 699 304 699 q 617 656 532 699 q 748 533 701 613 q 794 342 794 453 q 748 151 794 232 q 617 28 701 71 q 418 -15 532 -15 m 418 167 q 510 208 474 167 q 546 342 546 250 q 510 476 546 435 q 418 517 474 517 q 325 476 361 517 q 289 342 289 435 q 325 208 289 250 q 418 167 361 167 m 185 985 l 185 1119 l 653 1119 l 653 985 l 185 985 m 258 768 l 156 774 q 208 893 161 853 q 324 933 254 933 q 376 927 350 933 q 429 908 401 921 q 470 893 451 899 q 504 888 489 888 q 578 935 565 888 l 681 929 q 628 808 675 849 q 513 768 582 768 q 457 776 485 768 q 403 796 429 783 q 363 810 381 804 q 332 815 344 815 q 283 803 300 815 q 258 768 265 792 z "},"œ":{"ha":1278,"x_min":40,"x_max":1243,"o":"m 410 -15 q 214 29 297 -15 q 85 154 131 74 q 40 346 40 235 q 85 533 40 454 q 214 656 131 613 q 410 699 297 699 q 668 603 574 699 q 773 674 711 649 q 908 699 835 699 q 1153 604 1063 699 q 1243 346 1243 510 l 1243 292 l 793 292 q 845 195 804 225 q 963 165 886 165 q 1070 183 1014 165 q 1171 229 1126 200 l 1232 67 q 1103 7 1179 29 q 953 -15 1026 -15 q 788 13 860 -15 q 669 92 715 40 q 558 13 624 40 q 410 -15 493 -15 m 921 539 q 790 408 807 539 l 1042 408 q 1007 506 1039 474 q 921 539 975 539 m 418 167 q 510 209 475 167 q 546 343 546 251 q 510 475 546 433 q 418 517 474 517 q 325 475 361 517 q 289 343 289 433 q 326 209 289 251 q 418 167 363 167 z "},"p":{"ha":861,"x_min":72,"x_max":821,"o":"m 72 -250 l 72 683 l 313 683 l 313 590 q 397 669 340 640 q 522 699 454 699 q 677 656 610 699 q 783 533 744 613 q 821 342 821 453 q 783 151 821 232 q 678 28 746 71 q 522 -15 611 -15 q 403 11 458 -15 q 319 82 349 38 l 319 -250 l 72 -250 m 444 167 q 536 208 500 167 q 572 342 572 250 q 536 476 572 435 q 444 517 500 517 q 351 476 388 517 q 315 342 315 435 q 351 208 315 250 q 444 167 388 167 z "},"þ":{"ha":861,"x_min":72,"x_max":821,"o":"m 72 -250 l 72 979 l 319 979 l 319 600 q 403 672 349 646 q 522 699 457 699 q 677 656 610 699 q 783 533 744 613 q 821 342 821 453 q 783 151 821 232 q 678 28 746 71 q 522 -15 611 -15 q 403 11 458 -15 q 319 82 349 38 l 319 -250 l 72 -250 m 444 167 q 536 208 500 167 q 572 342 572 250 q 536 476 572 435 q 444 517 500 517 q 351 476 388 517 q 315 342 315 435 q 351 208 315 250 q 444 167 388 167 z "},"q":{"ha":861,"x_min":40,"x_max":790,"o":"m 543 -250 l 543 83 q 459 12 514 39 q 339 -15 404 -15 q 184 28 251 -15 q 78 151 117 71 q 40 342 40 232 q 78 533 40 453 q 184 656 117 613 q 339 699 251 699 q 465 669 408 699 q 549 589 522 639 l 549 683 l 790 683 l 790 -250 l 543 -250 m 418 167 q 510 208 474 167 q 546 342 546 250 q 510 476 546 435 q 418 517 474 517 q 325 476 361 517 q 289 342 289 435 q 325 208 289 250 q 418 167 361 167 z "},"r":{"ha":603,"x_min":72,"x_max":599,"o":"m 72 0 l 72 683 l 313 683 l 313 568 q 517 697 360 686 l 585 703 l 599 494 l 464 482 q 357 441 390 475 q 324 340 324 407 l 324 0 l 72 0 z "},"ŕ":{"ha":603,"x_min":72,"x_max":628,"o":"m 72 0 l 72 683 l 313 683 l 313 568 q 517 697 360 686 l 585 703 l 599 494 l 464 482 q 357 441 390 475 q 324 340 324 407 l 324 0 l 72 0 m 256 774 l 396 1058 l 628 1058 l 414 774 l 256 774 z "},"ř":{"ha":603,"x_min":72,"x_max":599,"o":"m 72 0 l 72 683 l 313 683 l 313 568 q 517 697 360 686 l 585 703 l 599 494 l 464 482 q 357 441 390 475 q 324 340 324 407 l 324 0 l 72 0 m 232 774 l 78 1058 l 228 1058 l 335 901 l 442 1058 l 592 1058 l 438 774 l 232 774 z "},"ŗ":{"ha":603,"x_min":72,"x_max":599,"o":"m 72 0 l 72 683 l 313 683 l 313 568 q 517 697 360 686 l 585 703 l 599 494 l 464 482 q 357 441 390 475 q 324 340 324 407 l 324 0 l 72 0 m 225 -403 l 142 -347 q 176 -307 164 -328 q 192 -264 188 -286 l 79 -264 l 79 -90 l 314 -90 l 314 -194 q 294 -310 314 -258 q 225 -403 275 -361 z "},"ȑ":{"ha":603,"x_min":24,"x_max":599,"o":"m 72 0 l 72 683 l 313 683 l 313 568 q 517 697 360 686 l 585 703 l 599 494 l 464 482 q 357 441 390 475 q 324 340 324 407 l 324 0 l 72 0 m 396 774 l 265 1058 l 461 1058 l 522 774 l 396 774 m 156 774 l 24 1058 l 219 1058 l 282 774 l 156 774 z "},"ṛ":{"ha":603,"x_min":72,"x_max":599,"o":"m 72 0 l 72 683 l 313 683 l 313 568 q 517 697 360 686 l 585 703 l 599 494 l 464 482 q 357 441 390 475 q 324 340 324 407 l 324 0 l 72 0 m 86 -311 l 86 -104 l 308 -104 l 308 -311 l 86 -311 z "},"ȓ":{"ha":603,"x_min":72,"x_max":599,"o":"m 72 0 l 72 683 l 313 683 l 313 568 q 517 697 360 686 l 585 703 l 599 494 l 464 482 q 357 441 390 475 q 324 340 324 407 l 324 0 l 72 0 m 217 768 l 85 779 q 155 979 86 904 q 335 1054 224 1054 q 515 979 446 1054 q 585 779 583 904 l 453 768 q 417 875 447 838 q 335 913 386 913 q 253 875 283 913 q 217 768 222 838 z "},"ṟ":{"ha":603,"x_min":-36,"x_max":599,"o":"m 72 0 l 72 683 l 313 683 l 313 568 q 517 697 360 686 l 585 703 l 599 494 l 464 482 q 357 441 390 475 q 324 340 324 407 l 324 0 l 72 0 m -36 -243 l -36 -108 l 432 -108 l 432 -243 l -36 -243 z "},"s":{"ha":689,"x_min":35,"x_max":660,"o":"m 344 -15 q 170 4 250 -15 q 35 58 90 24 l 92 218 q 211 170 143 189 q 346 151 279 151 q 419 166 397 151 q 442 204 442 181 q 427 235 442 225 q 386 251 413 246 l 232 276 q 99 339 146 290 q 51 465 51 388 q 92 590 51 538 q 204 670 132 642 q 369 699 276 699 q 515 681 443 699 q 642 625 588 664 l 581 468 q 481 515 540 496 q 374 533 421 533 q 293 517 317 533 q 269 479 269 501 q 321 433 269 442 l 475 407 q 612 347 564 393 q 660 221 660 300 q 574 47 660 108 q 344 -15 488 -15 z "},"ś":{"ha":689,"x_min":35,"x_max":660,"o":"m 344 -15 q 170 4 250 -15 q 35 58 90 24 l 92 218 q 211 170 143 189 q 346 151 279 151 q 419 166 397 151 q 442 204 442 181 q 427 235 442 225 q 386 251 413 246 l 232 276 q 99 339 146 290 q 51 465 51 388 q 92 590 51 538 q 204 670 132 642 q 369 699 276 699 q 515 681 443 699 q 642 625 588 664 l 581 468 q 481 515 540 496 q 374 533 421 533 q 293 517 317 533 q 269 479 269 501 q 321 433 269 442 l 475 407 q 612 347 564 393 q 660 221 660 300 q 574 47 660 108 q 344 -15 488 -15 m 278 774 l 418 1058 l 650 1058 l 436 774 l 278 774 z "},"ṥ":{"ha":689,"x_min":35,"x_max":663,"o":"m 344 -15 q 170 4 250 -15 q 35 58 90 24 l 92 218 q 211 170 143 189 q 346 151 279 151 q 419 166 397 151 q 442 204 442 181 q 427 235 442 225 q 386 251 413 246 l 232 276 q 99 339 146 290 q 51 465 51 388 q 92 590 51 538 q 204 670 132 642 q 369 699 276 699 q 515 681 443 699 q 642 625 588 664 l 581 468 q 481 515 540 496 q 374 533 421 533 q 293 517 317 533 q 269 479 269 501 q 321 433 269 442 l 475 407 q 612 347 564 393 q 660 221 660 300 q 574 47 660 108 q 344 -15 488 -15 m 151 1036 l 151 1182 l 358 1182 l 358 1036 l 151 1036 m 278 774 l 431 1058 l 663 1058 l 436 774 l 278 774 z "},"š":{"ha":689,"x_min":35,"x_max":660,"o":"m 344 -15 q 170 4 250 -15 q 35 58 90 24 l 92 218 q 211 170 143 189 q 346 151 279 151 q 419 166 397 151 q 442 204 442 181 q 427 235 442 225 q 386 251 413 246 l 232 276 q 99 339 146 290 q 51 465 51 388 q 92 590 51 538 q 204 670 132 642 q 369 699 276 699 q 515 681 443 699 q 642 625 588 664 l 581 468 q 481 515 540 496 q 374 533 421 533 q 293 517 317 533 q 269 479 269 501 q 321 433 269 442 l 475 407 q 612 347 564 393 q 660 221 660 300 q 574 47 660 108 q 344 -15 488 -15 m 254 774 l 100 1058 l 250 1058 l 357 901 l 464 1058 l 614 1058 l 460 774 l 254 774 z "},"ṧ":{"ha":689,"x_min":35,"x_max":660,"o":"m 344 -15 q 170 4 250 -15 q 35 58 90 24 l 92 218 q 211 170 143 189 q 346 151 279 151 q 419 166 397 151 q 442 204 442 181 q 427 235 442 225 q 386 251 413 246 l 232 276 q 99 339 146 290 q 51 465 51 388 q 92 590 51 538 q 204 670 132 642 q 369 699 276 699 q 515 681 443 699 q 642 625 588 664 l 581 468 q 481 515 540 496 q 374 533 421 533 q 293 517 317 533 q 269 479 269 501 q 321 433 269 442 l 475 407 q 612 347 564 393 q 660 221 660 300 q 574 47 660 108 q 344 -15 488 -15 m 253 1036 l 253 1182 l 461 1182 l 461 1036 l 253 1036 m 254 774 l 100 992 l 250 992 l 357 896 l 464 992 l 614 992 l 460 774 l 254 774 z "},"ş":{"ha":689,"x_min":35,"x_max":660,"o":"m 344 -15 q 170 4 250 -15 q 35 58 90 24 l 92 218 q 211 170 143 189 q 346 151 279 151 q 419 166 397 151 q 442 204 442 181 q 427 235 442 225 q 386 251 413 246 l 232 276 q 99 339 146 290 q 51 465 51 388 q 92 590 51 538 q 204 670 132 642 q 369 699 276 699 q 515 681 443 699 q 642 625 588 664 l 581 468 q 481 515 540 496 q 374 533 421 533 q 293 517 317 533 q 269 479 269 501 q 321 433 269 442 l 475 407 q 612 347 564 393 q 660 221 660 300 q 574 47 660 108 q 344 -15 488 -15 m 343 -275 q 254 -267 297 -275 q 179 -243 211 -260 l 213 -146 q 317 -169 265 -169 q 385 -140 385 -169 q 335 -115 385 -115 q 286 -121 313 -115 l 257 -92 l 274 28 l 392 28 l 381 -43 l 382 -43 q 483 -71 447 -43 q 519 -149 519 -99 q 470 -241 519 -207 q 343 -275 421 -275 z "},"ŝ":{"ha":689,"x_min":35,"x_max":660,"o":"m 344 -15 q 170 4 250 -15 q 35 58 90 24 l 92 218 q 211 170 143 189 q 346 151 279 151 q 419 166 397 151 q 442 204 442 181 q 427 235 442 225 q 386 251 413 246 l 232 276 q 99 339 146 290 q 51 465 51 388 q 92 590 51 538 q 204 670 132 642 q 369 699 276 699 q 515 681 443 699 q 642 625 588 664 l 581 468 q 481 515 540 496 q 374 533 421 533 q 293 517 317 533 q 269 479 269 501 q 321 433 269 442 l 475 407 q 612 347 564 393 q 660 221 660 300 q 574 47 660 108 q 344 -15 488 -15 m 100 774 l 254 1058 l 460 1058 l 614 774 l 464 774 l 357 931 l 250 774 l 100 774 z "},"ș":{"ha":689,"x_min":35,"x_max":660,"o":"m 344 -15 q 170 4 250 -15 q 35 58 90 24 l 92 218 q 211 170 143 189 q 346 151 279 151 q 419 166 397 151 q 442 204 442 181 q 427 235 442 225 q 386 251 413 246 l 232 276 q 99 339 146 290 q 51 465 51 388 q 92 590 51 538 q 204 670 132 642 q 369 699 276 699 q 515 681 443 699 q 642 625 588 664 l 581 468 q 481 515 540 496 q 374 533 421 533 q 293 517 317 533 q 269 479 269 501 q 321 433 269 442 l 475 407 q 612 347 564 393 q 660 221 660 300 q 574 47 660 108 q 344 -15 488 -15 m 374 -403 l 290 -347 q 324 -307 313 -328 q 340 -264 336 -286 l 228 -264 l 228 -90 l 463 -90 l 463 -194 q 443 -310 463 -258 q 374 -403 424 -361 z "},"ṡ":{"ha":689,"x_min":35,"x_max":660,"o":"m 344 -15 q 170 4 250 -15 q 35 58 90 24 l 92 218 q 211 170 143 189 q 346 151 279 151 q 419 166 397 151 q 442 204 442 181 q 427 235 442 225 q 386 251 413 246 l 232 276 q 99 339 146 290 q 51 465 51 388 q 92 590 51 538 q 204 670 132 642 q 369 699 276 699 q 515 681 443 699 q 642 625 588 664 l 581 468 q 481 515 540 496 q 374 533 421 533 q 293 517 317 533 q 269 479 269 501 q 321 433 269 442 l 475 407 q 612 347 564 393 q 660 221 660 300 q 574 47 660 108 q 344 -15 488 -15 m 246 810 l 246 1018 l 468 1018 l 468 810 l 246 810 z "},"ṣ":{"ha":689,"x_min":35,"x_max":660,"o":"m 344 -15 q 170 4 250 -15 q 35 58 90 24 l 92 218 q 211 170 143 189 q 346 151 279 151 q 419 166 397 151 q 442 204 442 181 q 427 235 442 225 q 386 251 413 246 l 232 276 q 99 339 146 290 q 51 465 51 388 q 92 590 51 538 q 204 670 132 642 q 369 699 276 699 q 515 681 443 699 q 642 625 588 664 l 581 468 q 481 515 540 496 q 374 533 421 533 q 293 517 317 533 q 269 479 269 501 q 321 433 269 442 l 475 407 q 612 347 564 393 q 660 221 660 300 q 574 47 660 108 q 344 -15 488 -15 m 235 -311 l 235 -104 l 457 -104 l 457 -311 l 235 -311 z "},"ṩ":{"ha":689,"x_min":35,"x_max":660,"o":"m 344 -15 q 170 4 250 -15 q 35 58 90 24 l 92 218 q 211 170 143 189 q 346 151 279 151 q 419 166 397 151 q 442 204 442 181 q 427 235 442 225 q 386 251 413 246 l 232 276 q 99 339 146 290 q 51 465 51 388 q 92 590 51 538 q 204 670 132 642 q 369 699 276 699 q 515 681 443 699 q 642 625 588 664 l 581 468 q 481 515 540 496 q 374 533 421 533 q 293 517 317 533 q 269 479 269 501 q 321 433 269 442 l 475 407 q 612 347 564 393 q 660 221 660 300 q 574 47 660 108 q 344 -15 488 -15 m 235 -311 l 235 -104 l 457 -104 l 457 -311 l 235 -311 m 246 810 l 246 1018 l 468 1018 l 468 810 l 246 810 z "},"ß":{"ha":972,"x_min":72,"x_max":953,"o":"m 661 -15 q 502 7 581 -15 q 368 69 424 29 l 432 233 q 551 181 488 200 q 664 163 614 163 q 732 211 732 163 q 709 248 732 233 q 619 281 686 263 q 467 360 511 313 q 422 479 422 408 q 441 565 422 524 q 514 665 460 606 q 551 717 540 696 q 563 761 563 739 q 542 805 563 788 q 478 822 522 822 q 359 775 399 822 q 319 643 319 728 l 319 0 l 72 0 l 72 601 q 177 894 72 793 q 481 994 282 994 q 710 938 629 994 q 792 785 792 881 q 774 697 792 739 q 711 611 757 656 q 658 549 671 569 q 644 513 644 529 q 669 476 644 492 q 767 439 693 460 q 909 357 865 410 q 953 228 953 304 q 874 51 953 117 q 661 -15 794 -15 z "},"t":{"ha":592,"x_min":-3,"x_max":589,"o":"m 431 -15 q 200 57 275 -15 q 125 275 125 129 l 125 501 l -3 501 l -3 683 l 125 683 l 125 882 l 372 882 l 372 683 l 567 683 l 567 501 l 372 501 l 372 283 q 474 183 372 183 q 510 187 490 183 q 556 197 531 190 l 589 19 q 514 -6 557 3 q 431 -15 471 -15 z "},"ŧ":{"ha":592,"x_min":-3,"x_max":589,"o":"m 431 -15 q 200 57 275 -15 q 125 275 125 129 l 125 501 l -3 501 l -3 683 l 125 683 l 125 882 l 372 882 l 372 683 l 567 683 l 567 501 l 372 501 l 372 283 q 474 183 372 183 q 510 187 490 183 q 556 197 531 190 l 589 19 q 514 -6 557 3 q 431 -15 471 -15 m 33 282 l 33 424 l 515 424 l 515 282 l 33 282 z "},"ť":{"ha":592,"x_min":-3,"x_max":589,"o":"m 431 -15 q 200 57 275 -15 q 125 275 125 129 l 125 501 l -3 501 l -3 683 l 125 683 l 125 882 l 372 882 l 372 683 l 567 683 l 567 501 l 372 501 l 372 283 q 474 183 372 183 q 510 187 490 183 q 556 197 531 190 l 589 19 q 514 -6 557 3 q 431 -15 471 -15 m 426 733 l 426 979 l 574 979 l 533 733 l 426 733 z "},"ţ":{"ha":592,"x_min":-3,"x_max":589,"o":"m 431 -15 q 200 57 275 -15 q 125 275 125 129 l 125 501 l -3 501 l -3 683 l 125 683 l 125 882 l 372 882 l 372 683 l 567 683 l 567 501 l 372 501 l 372 283 q 474 183 372 183 q 510 187 490 183 q 556 197 531 190 l 589 19 q 514 -6 557 3 q 431 -15 471 -15 m 340 -275 q 251 -267 294 -275 q 176 -243 208 -260 l 210 -146 q 314 -169 263 -169 q 382 -140 382 -169 q 332 -115 382 -115 q 283 -121 310 -115 l 254 -92 l 271 28 l 389 28 l 378 -43 l 379 -43 q 481 -71 444 -43 q 517 -149 517 -99 q 467 -241 517 -207 q 340 -275 418 -275 z "},"ț":{"ha":592,"x_min":-3,"x_max":589,"o":"m 431 -15 q 200 57 275 -15 q 125 275 125 129 l 125 501 l -3 501 l -3 683 l 125 683 l 125 882 l 372 882 l 372 683 l 567 683 l 567 501 l 372 501 l 372 283 q 474 183 372 183 q 510 187 490 183 q 556 197 531 190 l 589 19 q 514 -6 557 3 q 431 -15 471 -15 m 371 -403 l 288 -347 q 322 -307 310 -328 q 338 -264 333 -286 l 225 -264 l 225 -90 l 460 -90 l 460 -194 q 440 -310 460 -258 q 371 -403 421 -361 z "},"ẗ":{"ha":592,"x_min":-3,"x_max":589,"o":"m 431 -15 q 200 57 275 -15 q 125 275 125 129 l 125 501 l -3 501 l -3 683 l 125 683 l 125 882 l 372 882 l 372 683 l 567 683 l 567 501 l 372 501 l 372 283 q 474 183 372 183 q 510 187 490 183 q 556 197 531 190 l 589 19 q 514 -6 557 3 q 431 -15 471 -15 m 288 974 l 288 1181 l 496 1181 l 496 974 l 288 974 m 1 974 l 1 1181 l 210 1181 l 210 974 l 1 974 z "},"ṭ":{"ha":592,"x_min":-3,"x_max":589,"o":"m 431 -15 q 200 57 275 -15 q 125 275 125 129 l 125 501 l -3 501 l -3 683 l 125 683 l 125 882 l 372 882 l 372 683 l 567 683 l 567 501 l 372 501 l 372 283 q 474 183 372 183 q 510 187 490 183 q 556 197 531 190 l 589 19 q 514 -6 557 3 q 431 -15 471 -15 m 232 -311 l 232 -104 l 454 -104 l 454 -311 l 232 -311 z "},"ṯ":{"ha":592,"x_min":-3,"x_max":589,"o":"m 431 -15 q 200 57 275 -15 q 125 275 125 129 l 125 501 l -3 501 l -3 683 l 125 683 l 125 882 l 372 882 l 372 683 l 567 683 l 567 501 l 372 501 l 372 283 q 474 183 372 183 q 510 187 490 183 q 556 197 531 190 l 589 19 q 514 -6 557 3 q 431 -15 471 -15 m 110 -243 l 110 -108 l 578 -108 l 578 -243 l 110 -243 z "},"u":{"ha":835,"x_min":68,"x_max":763,"o":"m 328 -15 q 131 58 194 -15 q 68 281 68 131 l 68 683 l 315 683 l 315 274 q 401 174 315 174 q 483 210 451 174 q 515 306 515 246 l 515 683 l 763 683 l 763 0 l 521 0 l 521 85 q 328 -15 454 -15 z "},"ú":{"ha":835,"x_min":68,"x_max":763,"o":"m 328 -15 q 131 58 194 -15 q 68 281 68 131 l 68 683 l 315 683 l 315 274 q 401 174 315 174 q 483 210 451 174 q 515 306 515 246 l 515 683 l 763 683 l 763 0 l 521 0 l 521 85 q 328 -15 454 -15 m 338 774 l 478 1058 l 710 1058 l 496 774 l 338 774 z "},"ŭ":{"ha":835,"x_min":68,"x_max":763,"o":"m 328 -15 q 131 58 194 -15 q 68 281 68 131 l 68 683 l 315 683 l 315 274 q 401 174 315 174 q 483 210 451 174 q 515 306 515 246 l 515 683 l 763 683 l 763 0 l 521 0 l 521 85 q 328 -15 454 -15 m 417 768 q 237 842 306 768 q 167 1042 168 917 l 299 1054 q 335 946 304 983 q 417 908 365 908 q 499 946 468 908 q 535 1054 529 983 l 667 1042 q 597 842 665 917 q 417 768 528 768 z "},"ǔ":{"ha":835,"x_min":68,"x_max":763,"o":"m 328 -15 q 131 58 194 -15 q 68 281 68 131 l 68 683 l 315 683 l 315 274 q 401 174 315 174 q 483 210 451 174 q 515 306 515 246 l 515 683 l 763 683 l 763 0 l 521 0 l 521 85 q 328 -15 454 -15 m 314 774 l 160 1058 l 310 1058 l 417 901 l 524 1058 l 674 1058 l 519 774 l 314 774 z "},"û":{"ha":835,"x_min":68,"x_max":763,"o":"m 328 -15 q 131 58 194 -15 q 68 281 68 131 l 68 683 l 315 683 l 315 274 q 401 174 315 174 q 483 210 451 174 q 515 306 515 246 l 515 683 l 763 683 l 763 0 l 521 0 l 521 85 q 328 -15 454 -15 m 160 774 l 314 1058 l 519 1058 l 674 774 l 524 774 l 417 931 l 310 774 l 160 774 z "},"ȕ":{"ha":835,"x_min":68,"x_max":763,"o":"m 328 -15 q 131 58 194 -15 q 68 281 68 131 l 68 683 l 315 683 l 315 274 q 401 174 315 174 q 483 210 451 174 q 515 306 515 246 l 515 683 l 763 683 l 763 0 l 521 0 l 521 85 q 328 -15 454 -15 m 478 774 l 347 1058 l 543 1058 l 604 774 l 478 774 m 238 774 l 106 1058 l 301 1058 l 364 774 l 238 774 z "},"ü":{"ha":835,"x_min":68,"x_max":763,"o":"m 328 -15 q 131 58 194 -15 q 68 281 68 131 l 68 683 l 315 683 l 315 274 q 401 174 315 174 q 483 210 451 174 q 515 306 515 246 l 515 683 l 763 683 l 763 0 l 521 0 l 521 85 q 328 -15 454 -15 m 456 808 l 456 1017 l 664 1017 l 664 808 l 456 808 m 169 808 l 169 1017 l 378 1017 l 378 808 l 169 808 z "},"ụ":{"ha":835,"x_min":68,"x_max":763,"o":"m 328 -15 q 131 58 194 -15 q 68 281 68 131 l 68 683 l 315 683 l 315 274 q 401 174 315 174 q 483 210 451 174 q 515 306 515 246 l 515 683 l 763 683 l 763 0 l 521 0 l 521 85 q 328 -15 454 -15 m 306 -311 l 306 -104 l 528 -104 l 528 -311 l 306 -311 z "},"ù":{"ha":835,"x_min":68,"x_max":763,"o":"m 328 -15 q 131 58 194 -15 q 68 281 68 131 l 68 683 l 315 683 l 315 274 q 401 174 315 174 q 483 210 451 174 q 515 306 515 246 l 515 683 l 763 683 l 763 0 l 521 0 l 521 85 q 328 -15 454 -15 m 338 774 l 124 1058 l 356 1058 l 496 774 l 338 774 z "}}}
